<?xml version="1.0" encoding="UTF-8" standalone="no"?>
<!-- Created with Inkscape (http://www.inkscape.org/) -->

<svg
   xmlns:dc="http://purl.org/dc/elements/1.1/"
   xmlns:cc="http://creativecommons.org/ns#"
   xmlns:rdf="http://www.w3.org/1999/02/22-rdf-syntax-ns#"
   xmlns:svg="http://www.w3.org/2000/svg"
   xmlns="http://www.w3.org/2000/svg"
   xmlns:sodipodi="http://sodipodi.sourceforge.net/DTD/sodipodi-0.dtd"
   xmlns:inkscape="http://www.inkscape.org/namespaces/inkscape"
   width="6.373919mm"
   height="6.4678874mm"
   viewBox="0 0 6.3739191 6.4678875"
   version="1.1"
   id="svg8"
   inkscape:version="0.92.3 (2405546, 2018-03-11)"
   sodipodi:docname="blobogram24.svg">
  <defs
     id="defs2" />
  <sodipodi:namedview
     id="base"
     pagecolor="#ffffff"
     bordercolor="#666666"
     borderopacity="1.0"
     inkscape:pageopacity="0.0"
     inkscape:pageshadow="2"
     inkscape:zoom="15.839192"
     inkscape:cx="-27.299467"
     inkscape:cy="9.2377428"
     inkscape:document-units="mm"
     inkscape:current-layer="layer1"
     showgrid="false"
     fit-margin-top="0"
     fit-margin-left="0"
     fit-margin-right="0"
     fit-margin-bottom="0"
     inkscape:window-width="1918"
     inkscape:window-height="1058"
     inkscape:window-x="0"
     inkscape:window-y="0"
     inkscape:window-maximized="0" />
  <metadata
     id="metadata5">
    <rdf:RDF>
      <cc:Work
         rdf:about="">
        <dc:format>image/svg+xml</dc:format>
        <dc:type
           rdf:resource="http://purl.org/dc/dcmitype/StillImage" />
        <dc:title></dc:title>
      </cc:Work>
    </rdf:RDF>
  </metadata>
  <g
     inkscape:label="Layer 1"
     inkscape:groupmode="layer"
     id="layer1"
     transform="translate(-34.004891,-20.061917)">
    <ellipse
       style="fill:#ffd42a;fill-opacity:1;stroke-width:0.07656078"
       id="path10"
       cx="37.110996"
       cy="23.579887"
       rx="2.9630044"
       ry="2.8866246" />
    <ellipse
       style="fill:#c83737;fill-opacity:1;stroke-width:0.07656078"
       id="path12"
       cx="39.191883"
       cy="21.155132"
       rx="0.95234555"
       ry="0.88319063" />
    <ellipse
       style="fill:#c83737;fill-opacity:1;stroke-width:0.07656078"
       id="path14"
       cx="37.896694"
       cy="20.389702"
       rx="0.34284443"
       ry="0.31402335" />
    <ellipse
       style="fill:#c83737;fill-opacity:1;stroke-width:0.07656078"
       id="path16"
       cx="38.468098"
       cy="20.259676"
       rx="0.095234565"
       ry="0.090772368" />
    <ellipse
       style="fill:#ffd42a;fill-opacity:1;stroke-width:0.07656078"
       id="path18"
       cx="39.615677"
       cy="26.179506"
       rx="0.34760615"
       ry="0.33364984" />
    <ellipse
       style="fill:#ffd42a;fill-opacity:1;stroke-width:0.07656078"
       id="path20"
       cx="38.920467"
       cy="26.297264"
       rx="0.18570741"
       ry="0.17663813" />
    <ellipse
       style="fill:#c83737;fill-opacity:1;stroke-width:0.07656078"
       id="path32"
       cx="39.820431"
       cy="22.578053"
       rx="0.34284443"
       ry="0.32383657" />
    <ellipse
       style="fill:#c83737;fill-opacity:1;stroke-width:0.07656078"
       id="path34"
       cx="39.115696"
       cy="22.371973"
       rx="0.22856297"
       ry="0.21589106" />
    <ellipse
       style="fill:#c83737;fill-opacity:1;stroke-width:0.07656078"
       id="path36"
       cx="40.053757"
       cy="22.136456"
       rx="0.21427776"
       ry="0.21098442" />
    <ellipse
       style="fill:#c83737;fill-opacity:1;stroke-width:0.07656078"
       id="path38"
       cx="39.363552"
       cy="23.071606"
       rx="0.29293337"
       ry="0.27235579" />
    <ellipse
       style="fill:#c83737;fill-opacity:1;stroke-width:0.07656078"
       id="path40"
       cx="37.797874"
       cy="21.269201"
       rx="0.39057779"
       ry="0.36776707" />
    <ellipse
       style="fill:#c83737;fill-opacity:1;stroke-width:0.07656078"
       id="path42"
       cx="40.060898"
       cy="23.142313"
       rx="0.16666049"
       ry="0.15455838" />
    <ellipse
       style="fill:#c83737;fill-opacity:1;stroke-width:0.07656078"
       id="path44"
       cx="39.814476"
       cy="23.406042"
       rx="0.16785091"
       ry="0.15333171" />
    <ellipse
       style="fill:#ffcc00;fill-opacity:1;stroke-width:0.07656078"
       id="path50"
       cx="39.419258"
       cy="25.687618"
       rx="0.12737621"
       ry="0.12143873" />
    <ellipse
       style="fill:#ffcc00;fill-opacity:1;stroke-width:0.07656078"
       id="path52"
       cx="39.164505"
       cy="26.121855"
       rx="0.070235491"
       ry="0.065012649" />
    <ellipse
       style="fill:#aa00d4;fill-opacity:1;stroke-width:0.07656078"
       id="path58"
       cx="35.106319"
       cy="21.272892"
       rx="0.72378266"
       ry="0.71636581" />
    <ellipse
       style="fill:#aa00d4;fill-opacity:1;stroke-width:0.07656078"
       id="path60"
       cx="36.201515"
       cy="20.89999"
       rx="0.29522714"
       ry="0.29439688" />
    <ellipse
       style="fill:#aa00d4;fill-opacity:1;stroke-width:0.07656078"
       id="path64"
       cx="34.539673"
       cy="22.141363"
       rx="0.21427776"
       ry="0.22079766" />
    <ellipse
       style="fill:#aa00d4;fill-opacity:1;stroke-width:0.07656078"
       id="path66"
       cx="35.677727"
       cy="20.610498"
       rx="0.11428148"
       ry="0.10303891" />
    <ellipse
       style="fill:#aa00d4;fill-opacity:1;stroke-width:0.07656078"
       id="path68"
       cx="35.949146"
       cy="20.350449"
       rx="0.20475431"
       ry="0.18645136" />
    <ellipse
       style="fill:#aa00d4;fill-opacity:1;stroke-width:0.07656078"
       id="path70"
       cx="36.744354"
       cy="20.468206"
       rx="0.29522714"
       ry="0.28458366" />
    <ellipse
       style="fill:#aa00d4;fill-opacity:1;stroke-width:0.07656078"
       id="path72"
       cx="35.342026"
       cy="20.328268"
       rx="0.17856482"
       ry="0.15946499" />
    <ellipse
       style="fill:#aa00d4;fill-opacity:1;stroke-width:0.07656078"
       id="path74"
       cx="34.358727"
       cy="21.756193"
       rx="0.10951975"
       ry="0.10549221" />
    <ellipse
       style="fill:#aa00d4;fill-opacity:1;stroke-width:0.07656078"
       id="path76"
       cx="34.977753"
       cy="22.165895"
       rx="0.099996284"
       ry="0.088319063" />
    <ellipse
       style="fill:#447821;fill-opacity:1;stroke-width:0.08567352"
       id="path80"
       cx="35.172604"
       cy="25.427153"
       rx="1.0662476"
       ry="0.99768418" />
    <ellipse
       style="fill:#447821;fill-opacity:1;stroke-width:0.07656078"
       id="path82"
       cx="36.046761"
       cy="26.331612"
       rx="0.16904137"
       ry="0.16682492" />
    <ellipse
       style="fill:#447821;fill-opacity:1;stroke-width:0.07656078"
       id="path84"
       cx="36.268181"
       cy="25.914549"
       rx="0.19523086"
       ry="0.17663813" />
    <ellipse
       style="fill:#447821;fill-opacity:1;stroke-width:0.07656078"
       id="path86"
       cx="36.59198"
       cy="26.336519"
       rx="0.17142221"
       ry="0.16682492" />
    <ellipse
       style="fill:#447821;fill-opacity:1;stroke-width:0.31740099"
       id="path88"
       cx="36.887943"
       cy="25.763474"
       rx="0.34357929"
       ry="0.31790137" />
    <ellipse
       style="fill:#447821;fill-opacity:1;stroke-width:0.07656078"
       id="path90"
       cx="35.65987"
       cy="26.421158"
       rx="0.089282416"
       ry="0.082185805" />
    <ellipse
       style="fill:#447821;fill-opacity:1;stroke-width:0.07656078"
       id="path92"
       cx="35.98843"
       cy="26.071562"
       rx="0.063092902"
       ry="0.056426071" />
    <ellipse
       style="fill:#447821;fill-opacity:1;stroke-width:0.07656078"
       id="path94"
       cx="34.375988"
       cy="24.653549"
       rx="0.17201743"
       ry="0.15578502" />
    <ellipse
       style="fill:#447821;fill-opacity:1;stroke-width:0.07656078"
       id="path96"
       cx="34.253376"
       cy="24.888453"
       rx="0.077973306"
       ry="0.074212551" />
    <ellipse
       style="fill:#447821;fill-opacity:1;stroke-width:0.07656078"
       id="path98"
       cx="34.634911"
       cy="24.672562"
       rx="0.041665122"
       ry="0.037412938" />
    <ellipse
       style="fill:#447821;fill-opacity:1;stroke-width:0.07656078"
       id="path100"
       cx="34.314087"
       cy="26.197906"
       rx="0.15058964"
       ry="0.13983852" />
    <ellipse
       style="fill:#447821;fill-opacity:1;stroke-width:0.07656078"
       id="path102"
       cx="34.483128"
       cy="26.384357"
       rx="0.047022063"
       ry="0.045386188" />
    <ellipse
       style="fill:#447821;fill-opacity:1;stroke-width:0.07656078"
       id="path104"
       cx="34.595028"
       cy="26.364731"
       rx="0.027975153"
       ry="0.024533074" />
    <ellipse
       style="fill:#447821;fill-opacity:1;stroke-width:0.07656078"
       id="path106"
       cx="34.115879"
       cy="25.946442"
       rx="0.063092902"
       ry="0.056426071" />
    <ellipse
       style="fill:#447821;fill-opacity:1;stroke-width:0.07656078"
       id="path108"
       cx="34.13612"
       cy="26.071562"
       rx="0.026189506"
       ry="0.025759729" />
    <ellipse
       style="fill:#447821;fill-opacity:1;stroke-width:0.07656078"
       id="path110"
       cx="36.861019"
       cy="26.448145"
       rx="0.066664197"
       ry="0.067465961" />
    <ellipse
       style="fill:#aa00d4;fill-opacity:1;stroke-width:0.07656078"
       id="path112"
       cx="34.210281"
       cy="22.469648"
       rx="0.18687129"
       ry="0.16653603" />
    <ellipse
       style="fill:#aa00d4;fill-opacity:1;stroke-width:0.07656078"
       id="path114"
       cx="34.812141"
       cy="22.291836"
       rx="0.029461689"
       ry="0.028623382" />
    <ellipse
       style="fill:#aa00d4;fill-opacity:1;stroke-width:0.07656078"
       id="path116"
       cx="35.972931"
       cy="21.306498"
       rx="0.095960937"
       ry="0.090207018" />
    <ellipse
       style="fill:#aa00d4;fill-opacity:1;stroke-width:0.07656078"
       id="path118"
       cx="34.353371"
       cy="21.557476"
       rx="0.058926392"
       ry="0.056426071" />
    <ellipse
       style="fill:#aa00d4;fill-opacity:1;stroke-width:0.10857785"
       id="path120"
       cx="34.952332"
       cy="20.352873"
       rx="0.12512952"
       ry="0.11810746" />
    <ellipse
       style="fill:#aa00d4;fill-opacity:1;stroke-width:0.09778409"
       id="path122"
       cx="34.263493"
       cy="20.441219"
       rx="0.24999073"
       ry="0.24042414" />
    <ellipse
       style="fill:#aa00d4;fill-opacity:1;stroke-width:0.07656078"
       id="path124"
       cx="34.403965"
       cy="20.814123"
       rx="0.059521597"
       ry="0.056426071" />
    <ellipse
       style="fill:#aa00d4;fill-opacity:1;stroke-width:0.07656078"
       id="path126"
       cx="34.390873"
       cy="21.104841"
       rx="0.039284255"
       ry="0.03679961" />
    <ellipse
       style="fill:#aa00d4;fill-opacity:1;stroke-width:0.07656078"
       id="path128"
       cx="34.145466"
       cy="21.309967"
       rx="0.10690385"
       ry="0.098013401" />
    <ellipse
       style="fill:#aa00d4;fill-opacity:1;stroke-width:0.07656078"
       id="path130"
       cx="34.639835"
       cy="20.59033"
       rx="0.069445409"
       ry="0.064619452" />
    <ellipse
       style="fill:#aa00d4;fill-opacity:1;stroke-width:0.07656078"
       id="path132"
       cx="34.675354"
       cy="20.295137"
       rx="0.082071856"
       ry="0.081533276" />
    <ellipse
       style="fill:#aa00d4;fill-opacity:1;stroke-width:0.07656078"
       id="path134"
       cx="34.817192"
       cy="20.496368"
       rx="0.023569349"
       ry="0.024286505" />
    <ellipse
       style="fill:#aa00d4;fill-opacity:1;stroke-width:0.07656078"
       id="path136"
       cx="34.192604"
       cy="22.122696"
       rx="0.18771307"
       ry="0.17520981" />
    <ellipse
       style="fill:#aa00d4;fill-opacity:1;stroke-width:0.07656078"
       id="path138"
       cx="34.238586"
       cy="21.008104"
       rx="0.099996284"
       ry="0.09322568" />
    <ellipse
       style="fill:#447821;fill-opacity:1;stroke-width:0.07656078"
       id="path142"
       cx="36.233658"
       cy="25.525702"
       rx="0.11309105"
       ry="0.099358961" />
    <ellipse
       style="fill:#447821;fill-opacity:1;stroke-width:0.07656078"
       id="path144"
       cx="34.68074"
       cy="24.52107"
       rx="0.10178193"
       ry="0.088319063" />
    <ellipse
       style="fill:#ffd42a;fill-opacity:1;stroke-width:0.07656078"
       id="path146"
       cx="38.365723"
       cy="26.390491"
       rx="0.11190061"
       ry="0.11039883" />
    <ellipse
       style="fill:#ffd42a;fill-opacity:1;stroke-width:0.07656078"
       id="path150"
       cx="39.220451"
       cy="26.459185"
       rx="0.061902463"
       ry="0.063785993" />
    <ellipse
       style="fill:#ffd42a;fill-opacity:1;stroke-width:0.07656078"
       id="path152"
       cx="39.97221"
       cy="24.811789"
       rx="0.091068052"
       ry="0.08463911" />
    <ellipse
       style="fill:#ffd42a;fill-opacity:1;stroke-width:0.07656078"
       id="path156"
       cx="39.988979"
       cy="26.317757"
       rx="0.021044064"
       ry="0.021250693" />
    <ellipse
       style="fill:#ffd42a;fill-opacity:1;stroke-width:0.07656078"
       id="path158"
       cx="39.922062"
       cy="26.46521"
       rx="0.038300198"
       ry="0.034261316" />
    <ellipse
       style="fill:#c83737;fill-opacity:1;stroke-width:0.07656078"
       id="path166"
       cx="40.163277"
       cy="23.48823"
       rx="0.090472832"
       ry="0.090772368" />
    <ellipse
       style="fill:#c83737;fill-opacity:1;stroke-width:0.07656078"
       id="path168"
       cx="39.770432"
       cy="22.088003"
       rx="0.12142407"
       ry="0.11959874" />
    <ellipse
       style="fill:#c83737;fill-opacity:1;stroke-width:0.07656078"
       id="path170"
       cx="38.816692"
       cy="20.20545"
       rx="0.1279479"
       ry="0.12663677" />
    <ellipse
       style="fill:#c83737;fill-opacity:1;stroke-width:0.10169603"
       id="path172"
       cx="40.127247"
       cy="20.345152"
       rx="0.25156313"
       ry="0.22355738" />
    <ellipse
       style="fill:#c83737;fill-opacity:1;stroke-width:0.07656078"
       id="path174"
       cx="40.218781"
       cy="20.781734"
       rx="0.087543309"
       ry="0.088472262" />
    <ellipse
       style="fill:#c83737;fill-opacity:1;stroke-width:0.07656078"
       id="path176"
       cx="39.723438"
       cy="20.136511"
       rx="0.07912568"
       ry="0.074594259" />
    <ellipse
       style="fill:#c83737;fill-opacity:1;stroke-width:0.07656078"
       id="path178"
       cx="40.015076"
       cy="21.704622"
       rx="0.13299848"
       ry="0.12663677" />
    <ellipse
       style="fill:#c83737;fill-opacity:1;stroke-width:0.07247089"
       id="path180"
       cx="40.241875"
       cy="21.465103"
       rx="0.10774562"
       ry="0.10569648" />
    <ellipse
       style="fill:#c83737;fill-opacity:1;stroke-width:0.07451878"
       id="path182"
       cx="40.228882"
       cy="21.786156"
       rx="0.075758629"
       ry="0.069390014" />
    <ellipse
       style="fill:#c83737;fill-opacity:1;stroke-width:0.07656078"
       id="path184"
       cx="40.196178"
       cy="22.874439"
       rx="0.11279619"
       ry="0.10928927" />
    <ellipse
       style="fill:#c83737;fill-opacity:1;stroke-width:0.07656078"
       id="path186"
       cx="40.016758"
       cy="23.907755"
       rx="0.23232646"
       ry="0.2203133" />
    <ellipse
       style="fill:#c83737;fill-opacity:1;stroke-width:0.07656078"
       id="path188"
       cx="40.22678"
       cy="21.107435"
       rx="0.057660732"
       ry="0.055945702" />
    <ellipse
       style="fill:#c83737;fill-opacity:1;stroke-width:0.07656078"
       id="path190"
       cx="39.387123"
       cy="20.288631"
       rx="0.17003605"
       ry="0.15569384" />
    <ellipse
       style="fill:#447821;fill-opacity:1;stroke-width:0.19954272"
       id="path192"
       cx="34.540333"
       cy="23.957176"
       rx="0.45762148"
       ry="0.4401097" />
    <path
       style="fill:#0000ff;fill-opacity:1;stroke-width:0.00241681"
       d="m 39.201034,26.518745 c -0.0077,-0.0025 -0.01544,-0.0078 -0.02307,-0.01565 -0.03105,-0.03199 -0.02087,-0.08433 0.01981,-0.101845 0.01273,-0.0054 0.03612,-0.0048 0.04845,0.0013 0.0117,0.0058 0.02607,0.02126 0.0309,0.03317 0.0044,0.01089 0.0043,0.03573 -3.02e-4,0.04698 -0.01225,0.0302 -0.04546,0.046 -0.07578,0.03605 z"
       id="path91"
       inkscape:connector-curvature="0" />
    <path
       style="fill:#0000ff;fill-opacity:1;stroke-width:0.00241681"
       d="m 38.891188,26.470972 c -0.06518,-0.01052 -0.123898,-0.05747 -0.145161,-0.116079 -0.01109,-0.03058 -0.01311,-0.06469 -0.0058,-0.09695 0.0052,-0.02251 0.02228,-0.05475 0.03894,-0.07329 0.03733,-0.04155 0.08393,-0.06188 0.141922,-0.06191 0.03293,-2.1e-5 0.056,0.0053 0.08431,0.01928 0.04873,0.02415 0.08267,0.06611 0.09544,0.118021 0.0055,0.02232 0.0037,0.06639 -0.0036,0.08838 -0.01904,0.05746 -0.06706,0.101811 -0.127432,0.11772 -0.02221,0.0058 -0.05854,0.0081 -0.07871,0.0048 z"
       id="path93"
       inkscape:connector-curvature="0" />
    <path
       style="fill:#0000ff;fill-opacity:1;stroke-width:0.00241681"
       d=""
       id="path95"
       inkscape:connector-curvature="0" />
    <path
       style="fill:#892ca0;fill-opacity:1;stroke-width:0.02698658"
       d="m 37.97832,26.264817 c -0.140694,-0.04857 -0.226477,-0.130936 -0.281487,-0.27036 -0.119478,-0.302817 0.107853,-0.593627 0.464104,-0.593627 0.170679,0 0.294986,0.06612 0.395373,0.210312 0.11892,0.170799 0.06296,0.464047 -0.111827,0.586185 -0.148083,0.103471 -0.298663,0.125278 -0.466149,0.06746 z"
       id="path97"
       inkscape:connector-curvature="0" />
    <path
       style="fill:#0000ff;fill-opacity:1;stroke-width:0.00241681"
       d="m 38.340643,26.496974 c -0.05591,-0.0131 -0.09395,-0.06887 -0.0842,-0.123421 0.0075,-0.04161 0.034,-0.07254 0.07432,-0.08656 0.02199,-0.0077 0.0591,-0.0061 0.07914,0.0033 0.03095,0.01453 0.0515,0.03708 0.06121,0.06716 0.0042,0.01307 0.005,0.0201 0.0042,0.03867 -8.22e-4,0.0194 -0.0021,0.02501 -0.0086,0.03862 -0.01386,0.02902 -0.03476,0.04817 -0.06382,0.05848 -0.01863,0.0066 -0.04361,0.0081 -0.06228,0.0037 z"
       id="path99"
       inkscape:connector-curvature="0" />
    <path
       style="fill:#0000ff;fill-opacity:1;stroke-width:0.00241681"
       d="m 39.149422,26.184376 c -0.03548,-0.0077 -0.05936,-0.04077 -0.05282,-0.07309 0.0064,-0.03183 0.03246,-0.052 0.06736,-0.05224 0.0201,-1.4e-4 0.03497,0.0052 0.04831,0.01728 0.0264,0.02394 0.02797,0.0625 0.0036,0.08788 -0.01534,0.01597 -0.04474,0.0249 -0.06645,0.02017 z"
       id="path101"
       inkscape:connector-curvature="0" />
    <path
       style="fill:#0000ff;fill-opacity:1;stroke-width:0.00566293"
       d="m 38.95157,26.072504 c -0.108983,-0.02188 -0.185998,-0.09581 -0.203974,-0.195778 -0.0177,-0.0985 0.0417,-0.202069 0.142421,-0.24827 0.03263,-0.01497 0.04702,-0.0181 0.09212,-0.02004 0.114881,-0.005 0.200985,0.04244 0.25022,0.137683 0.01547,0.02993 0.01673,0.03697 0.01673,0.09401 0,0.05806 -0.001,0.06381 -0.01841,0.0985 -0.0483,0.09669 -0.17107,0.155587 -0.279107,0.13389 z"
       id="path103"
       inkscape:connector-curvature="0" />
    <path
       style="fill:#0000ff;fill-opacity:1;stroke-width:0.00241681"
       d="m 39.392179,25.805175 c -0.0636,-0.01368 -0.107808,-0.07449 -0.09781,-0.134548 0.0041,-0.0249 0.01488,-0.04625 0.0322,-0.06404 0.02572,-0.02643 0.05471,-0.03831 0.09342,-0.03831 0.03802,0 0.06848,0.01328 0.09422,0.04108 0.02331,0.02518 0.03181,0.04951 0.02997,0.0858 -10e-4,0.02022 -0.0022,0.0251 -0.0101,0.04152 -0.02479,0.05169 -0.08497,0.08074 -0.141902,0.06849 z"
       id="path105"
       inkscape:connector-curvature="0" />
    <path
       style="fill:#0000ff;fill-opacity:1;stroke-width:0.00241681"
       d="m 39.5864,26.51115 c -0.02516,-0.0022 -0.05976,-0.0095 -0.08504,-0.01807 -0.161185,-0.05446 -0.256476,-0.211144 -0.226716,-0.372801 0.02281,-0.123873 0.120547,-0.226876 0.247471,-0.260787 0.03299,-0.0088 0.05547,-0.01154 0.09517,-0.01154 0.09754,0 0.1841,0.0363 0.251397,0.105421 0.04867,0.04999 0.078,0.107419 0.08944,0.175151 0.0058,0.03428 0.0034,0.09275 -0.0051,0.126435 -0.01563,0.06192 -0.04317,0.10988 -0.08964,0.156123 -0.07151,0.07114 -0.175831,0.108831 -0.277039,0.100068 z"
       id="path107"
       inkscape:connector-curvature="0" />
    <path
       style="fill:#0000ff;fill-opacity:1;stroke-width:0.00241681"
       d="m 39.905318,26.494629 c -0.01184,-0.0053 -0.02012,-0.01737 -0.02012,-0.0293 0,-0.0352 0.0542,-0.04582 0.07028,-0.01377 0.01415,0.0282 -0.0193,0.05692 -0.05016,0.04306 z"
       id="path109"
       inkscape:connector-curvature="0" />
    <path
       style="fill:#0000ff;fill-opacity:1;stroke-width:0.00505228"
       d="m 40.134719,26.522345 c -0.04521,-0.01725 -0.0781,-0.06386 -0.0781,-0.1107 0,-0.07482 0.07672,-0.134396 0.152112,-0.11814 0.0797,0.01718 0.1219,0.09781 0.08809,0.168285 -0.02124,0.04426 -0.06277,0.06869 -0.115643,0.068 -0.01534,-1.95e-4 -0.03625,-0.0036 -0.04646,-0.0074 z"
       id="path111"
       inkscape:connector-curvature="0" />
    <path
       style="fill:#0000ff;fill-opacity:1;stroke-width:0.00241681"
       d=""
       id="path113"
       inkscape:connector-curvature="0" />
    <path
       style="fill:#0000ff;fill-opacity:1;stroke-width:0.00241681"
       d="m 39.975488,26.331443 c -0.0042,-0.0043 -0.0069,-0.0098 -0.0069,-0.01368 0,-0.0086 0.01188,-0.02085 0.02024,-0.02085 0.0084,0 0.02024,0.01225 0.02024,0.02085 0,0.0086 -0.01188,0.02085 -0.02024,0.02085 -0.0038,0 -0.0091,-0.0028 -0.01328,-0.0072 z"
       id="path115"
       inkscape:connector-curvature="0" />
    <path
       style="fill:#0000ff;fill-opacity:1;stroke-width:0.00608962"
       d="m 40.09912,26.250534 c -0.04082,-0.01772 -0.07056,-0.04447 -0.09362,-0.0842 -0.01176,-0.02027 -0.0143,-0.03394 -0.01434,-0.07714 -4.1e-5,-0.04726 0.0018,-0.05561 0.01868,-0.08354 0.0333,-0.05517 0.08762,-0.08814 0.153169,-0.09297 0.126136,-0.0093 0.226435,0.09114 0.206208,0.206474 -0.0074,0.04199 -0.02583,0.07205 -0.06317,0.102874 -0.05862,0.04838 -0.136459,0.05909 -0.206924,0.0285 z"
       id="path117"
       inkscape:connector-curvature="0" />
    <path
       style="fill:#0000ff;fill-opacity:1;stroke-width:0.0038581"
       d="m 39.962803,25.851735 c -0.08447,-0.01242 -0.159113,-0.05246 -0.214911,-0.115272 -0.03203,-0.03606 -0.05136,-0.06878 -0.06583,-0.111448 -0.06367,-0.187793 0.05259,-0.385555 0.25282,-0.430046 0.04772,-0.01061 0.132287,-0.0084 0.176731,0.0047 0.09766,0.02869 0.179206,0.09917 0.220115,0.190246 0.01984,0.04416 0.02714,0.07967 0.02722,0.132395 2.48e-4,0.154882 -0.110435,0.288122 -0.269178,0.324034 -0.03377,0.0077 -0.09424,0.0102 -0.126967,0.0054 z"
       id="path119"
       inkscape:connector-curvature="0" />
    <path
       style="fill:#0000ff;fill-opacity:1;stroke-width:0.0291333"
       d="M 38.625141,25.528703 C 38.262399,25.39842 38.04103,25.0755 38.046397,24.684485 c 0.0065,-0.466157 0.393155,-0.824459 0.889942,-0.824459 0.250057,0 0.426678,0.06358 0.59036,0.212482 0.187953,0.170994 0.277126,0.343335 0.294694,0.569508 0.02093,0.270603 -0.04793,0.463689 -0.234342,0.656375 -0.248993,0.25734 -0.631634,0.348937 -0.961906,0.230319 z"
       id="path121"
       inkscape:connector-curvature="0" />
    <path
       style="fill:#0000ff;fill-opacity:1;stroke-width:0.00241681"
       d="m 40.162569,25.149617 c -0.07961,-0.01309 -0.133358,-0.08028 -0.123097,-0.153903 0.0071,-0.05088 0.04304,-0.09407 0.09334,-0.112129 0.02093,-0.0075 0.06175,-0.0093 0.08351,-0.0037 0.05163,0.01336 0.09346,0.05502 0.104587,0.104168 0.0046,0.02044 0.002,0.057 -0.0054,0.07557 -0.01597,0.04004 -0.04758,0.06986 -0.08799,0.08301 -0.01847,0.006 -0.05013,0.0094 -0.06496,0.007 z"
       id="path123"
       inkscape:connector-curvature="0" />
    <path
       style="fill:#0000ff;fill-opacity:1;stroke-width:0.00241681"
       d="m 39.951971,24.893538 c -0.02589,-0.0056 -0.05139,-0.02536 -0.06237,-0.04832 -0.0046,-0.0097 -0.0056,-0.01557 -0.0056,-0.03378 0,-0.01983 7.09e-4,-0.0234 0.007,-0.03505 0.0089,-0.01649 0.02418,-0.03105 0.04142,-0.03938 0.01206,-0.0058 0.01632,-0.0066 0.0397,-0.0066 0.02343,0 0.02762,6.92e-4 0.0398,0.0066 0.01715,0.0083 0.03489,0.02524 0.04238,0.04052 0.0068,0.01393 0.0092,0.04178 0.0048,0.05636 -0.0072,0.02363 -0.03013,0.04719 -0.05453,0.05596 -0.0134,0.0048 -0.03891,0.0066 -0.05252,0.0036 z"
       id="path125"
       inkscape:connector-curvature="0" />
    <path
       style="fill:#ff00ff;fill-opacity:1;stroke-width:0.00483363"
       d="m 34.154837,22.626494 c -0.04998,-0.01445 -0.09443,-0.05088 -0.115289,-0.09453 -0.01564,-0.03272 -0.01564,-0.09186 -5e-6,-0.124567 0.06331,-0.132445 0.2721,-0.135205 0.337789,-0.0045 0.01333,0.02653 0.01548,0.03578 0.01548,0.06675 0,0.03096 -0.0022,0.04021 -0.01548,0.06674 -0.01862,0.03705 -0.05228,0.06725 -0.09241,0.0829 -0.03638,0.01419 -0.09472,0.01741 -0.130088,0.0072 z"
       id="path127"
       inkscape:connector-curvature="0" />
    <path
       style="fill:#ff00ff;fill-opacity:1;stroke-width:0.00483363"
       d="m 34.483281,22.351721 c -0.05145,-0.0148 -0.110025,-0.06302 -0.130453,-0.107373 l -0.0081,-0.01769 -0.02236,0.01916 c -0.04393,0.03765 -0.0898,0.05269 -0.147049,0.04823 -0.06447,-0.0051 -0.119925,-0.04125 -0.149322,-0.09755 -0.01475,-0.02825 -0.01622,-0.03479 -0.01633,-0.07275 -1.06e-4,-0.03577 0.0017,-0.04564 0.01303,-0.0693 0.01623,-0.03405 0.05216,-0.06942 0.08819,-0.08682 0.02459,-0.01188 0.03253,-0.01315 0.08209,-0.01315 0.05224,0 0.05636,7.61e-4 0.08621,0.0159 0.01862,0.0094 0.04021,0.02567 0.05318,0.03995 l 0.02183,0.02404 0.01314,-0.01953 c 0.0446,-0.06632 0.128451,-0.102154 0.206678,-0.08833 0.05728,0.01012 0.102347,0.03858 0.136326,0.08609 0.05187,0.07253 0.05342,0.175059 0.0038,0.252154 -0.02049,0.03184 -0.06287,0.06679 -0.09747,0.08041 -0.03474,0.01367 -0.09784,0.01677 -0.133329,0.0066 z"
       id="path129"
       inkscape:connector-curvature="0" />
    <path
       style="fill:#ff00ff;fill-opacity:1;stroke-width:0.00483363"
       d="m 34.79445,22.308219 c -0.01302,-0.01168 -0.01327,-0.01271 -0.0063,-0.02594 0.0099,-0.01863 0.03374,-0.02163 0.04463,-0.0056 0.0092,0.01347 0.0095,0.01937 0.0016,0.02964 -0.01092,0.01431 -0.0254,0.015 -0.04001,0.0019 z"
       id="path131"
       inkscape:connector-curvature="0" />
    <path
       style="fill:#ff00ff;fill-opacity:1;stroke-width:0.00483363"
       d="m 34.933067,22.242105 c -0.02356,-0.01103 -0.04293,-0.03392 -0.05038,-0.05953 -0.01468,-0.05049 0.03578,-0.102979 0.099,-0.102979 0.02604,0 0.06592,0.02154 0.08032,0.04337 0.01377,0.02089 0.01586,0.05683 0.0046,0.07928 -0.02093,0.04171 -0.08727,0.06151 -0.133531,0.03985 z"
       id="path133"
       inkscape:connector-curvature="0" />
    <path
       style="fill:#ff00ff;fill-opacity:1;stroke-width:0.00483363"
       d="m 35.011833,21.981418 c -0.103707,-0.01468 -0.215453,-0.05577 -0.300301,-0.110424 -0.03858,-0.02485 -0.09685,-0.07438 -0.13347,-0.11345 -0.116688,-0.124485 -0.18074,-0.274322 -0.192681,-0.45074 -0.0027,-0.04009 0.003,-0.1273 0.0103,-0.157282 0.0025,-0.01043 0.0013,-0.012 -0.0095,-0.012 -0.02735,0 -0.04187,-0.03785 -0.02173,-0.05663 0.0059,-0.0054 0.01753,-0.0093 0.02939,-0.0096 0.01925,-4.97e-4 0.01981,-0.001 0.0279,-0.02554 0.05512,-0.167109 0.190011,-0.322431 0.353471,-0.407023 0.120262,-0.06224 0.275932,-0.09113 0.408039,-0.07573 0.17643,0.02057 0.328068,0.09543 0.447741,0.221068 0.100578,0.105588 0.165368,0.237105 0.188594,0.382827 0.01116,0.06999 0.0066,0.19681 -0.0095,0.262911 -0.06701,0.275624 -0.27743,0.481271 -0.554657,0.54209 -0.05243,0.0115 -0.191231,0.01692 -0.243603,0.0095 z"
       id="path135"
       inkscape:connector-curvature="0" />
    <path
       style="fill:#ff00ff;fill-opacity:1;stroke-width:0.00483363"
       d="m 34.307483,21.845811 c -0.02851,-0.01464 -0.05,-0.04394 -0.05512,-0.07517 -0.01272,-0.07757 0.07681,-0.141876 0.149966,-0.107703 0.04101,0.01915 0.0619,0.05058 0.0619,0.0931 0,0.07924 -0.08379,0.127225 -0.156751,0.08976 z"
       id="path137"
       inkscape:connector-curvature="0" />
    <path
       style="fill:#ff00ff;fill-opacity:1;stroke-width:0.00483363"
       d="m 34.340429,21.610321 c -0.02915,-0.01011 -0.04285,-0.02802 -0.04285,-0.05598 0,-0.01103 0.0046,-0.02023 0.01619,-0.03213 0.01407,-0.0145 0.0193,-0.01668 0.03983,-0.01668 0.06938,0 0.07665,0.09223 0.0083,0.104675 -0.0079,0.0014 -0.0175,0.0015 -0.02143,1.25e-4 z"
       id="path139"
       inkscape:connector-curvature="0" />
    <path
       style="fill:#ff00ff;fill-opacity:1;stroke-width:0.00483363"
       d="m 34.108038,21.398325 c -0.08167,-0.02986 -0.09059,-0.127281 -0.01552,-0.169384 0.02223,-0.01247 0.02856,-0.01375 0.0599,-0.01212 0.02954,0.0015 0.03826,0.0041 0.05557,0.01653 0.03654,0.02617 0.05181,0.07594 0.03426,0.111724 -0.02486,0.05071 -0.08064,0.07283 -0.134219,0.05325 z"
       id="path141"
       inkscape:connector-curvature="0" />
    <path
       style="fill:#ff00ff;fill-opacity:1;stroke-width:0.00483363"
       d="m 34.197611,21.090457 c -0.03232,-0.01444 -0.05728,-0.05009 -0.05707,-0.08153 3.13e-4,-0.04816 0.04674,-0.09226 0.09703,-0.09217 0.08277,1.55e-4 0.128304,0.0904 0.07517,0.149016 -0.02727,0.03008 -0.07848,0.04107 -0.115135,0.02468 z"
       id="path143"
       inkscape:connector-curvature="0" />
    <path
       style="fill:#ff00ff;fill-opacity:1;stroke-width:0.00483363"
       d="m 34.372598,20.859343 c -0.01707,-0.01129 -0.02892,-0.03722 -0.02513,-0.05501 0.0043,-0.02026 0.02672,-0.04005 0.04879,-0.0431 0.05115,-0.007 0.08311,0.04896 0.04983,0.08735 -0.01688,0.01947 -0.05244,0.02467 -0.07349,0.01076 z"
       id="path145"
       inkscape:connector-curvature="0" />
    <path
       style="fill:#ff00ff;fill-opacity:1;stroke-width:0.00483363"
       d="m 34.213598,20.674228 c -0.06786,-0.01321 -0.13911,-0.0655 -0.170143,-0.124888 -0.06937,-0.132748 7.08e-4,-0.290816 0.149034,-0.336163 0.03308,-0.01011 0.103666,-0.01031 0.140631,-3.86e-4 0.08749,0.02348 0.159941,0.103438 0.174836,0.192938 0.02679,0.160975 -0.126828,0.301096 -0.294358,0.268499 z"
       id="path147"
       inkscape:connector-curvature="0" />
    <path
       style="fill:#ff00ff;fill-opacity:1;stroke-width:0.00483363"
       d="m 34.601907,20.640584 c -0.05291,-0.03674 -0.02709,-0.111478 0.03851,-0.111478 0.03644,0 0.06663,0.02779 0.06663,0.06133 0,0.04866 -0.0636,0.07899 -0.105139,0.05015 z"
       id="path149"
       inkscape:connector-curvature="0" />
    <path
       style="fill:#ff00ff;fill-opacity:1;stroke-width:0.00483363"
       d="m 34.658196,20.371253 c -0.03857,-0.0085 -0.06063,-0.03625 -0.06063,-0.07629 0,-0.03125 0.01408,-0.05393 0.04271,-0.06884 0.02566,-0.01336 0.0438,-0.01379 0.06966,-0.0017 0.04016,0.01879 0.05756,0.07329 0.03448,0.107958 -0.02181,0.03275 -0.05205,0.04638 -0.08621,0.03886 z"
       id="path151"
       inkscape:connector-curvature="0" />
    <path
       style="fill:#ff00ff;fill-opacity:1;stroke-width:0.00483363"
       d="m 34.803269,20.513405 c -0.0073,-0.0076 -0.0073,-0.02482 0,-0.03238 0.009,-0.0093 0.02674,-0.007 0.03255,0.0043 0.01058,0.02036 -0.01698,0.04417 -0.03255,0.02813 z"
       id="path153"
       inkscape:connector-curvature="0" />
    <path
       style="fill:#ff00ff;fill-opacity:1;stroke-width:0.00483363"
       d="m 34.923741,20.465889 c -0.03974,-0.01075 -0.07257,-0.0387 -0.08692,-0.07399 -0.01131,-0.02782 -0.0061,-0.07403 0.0111,-0.09932 0.04924,-0.07219 0.159542,-0.07219 0.208782,0 0.01725,0.02528 0.02241,0.0715 0.01111,0.09932 -0.0217,0.05336 -0.09022,0.08856 -0.144064,0.07399 z"
       id="path155"
       inkscape:connector-curvature="0" />
    <path
       style="fill:#ff00ff;fill-opacity:1;stroke-width:0.00483363"
       d="m 35.279921,20.475038 c -0.05277,-0.01773 -0.09473,-0.06051 -0.109001,-0.111104 -0.01858,-0.06584 0.01852,-0.140118 0.0864,-0.172996 0.09186,-0.04449 0.20449,-0.0098 0.245262,0.07554 0.01363,0.02853 0.01487,0.0349 0.01313,0.06734 -0.0033,0.0611 -0.0298,0.100281 -0.08792,0.129878 -0.03169,0.01614 -0.0407,0.01845 -0.07712,0.01977 -0.0315,0.0011 -0.04821,-8.69e-4 -0.07076,-0.0084 z"
       id="path157"
       inkscape:connector-curvature="0" />
    <path
       style="fill:#ff00ff;fill-opacity:1;stroke-width:0.00483363"
       d="m 35.633329,20.702809 c -0.02066,-0.0078 -0.04731,-0.03163 -0.05707,-0.05103 -0.01703,-0.03391 -0.01229,-0.07163 0.01268,-0.100939 0.02403,-0.02821 0.04816,-0.03866 0.08953,-0.03878 0.04193,-1.33e-4 0.06813,0.01213 0.09243,0.04328 0.01343,0.01721 0.01471,0.02197 0.01471,0.05475 0,0.03261 -0.0013,0.03761 -0.01452,0.05475 -0.02093,0.02716 -0.05898,0.04593 -0.09228,0.0455 -0.01459,-1.9e-4 -0.03506,-0.0036 -0.04548,-0.0075 z"
       id="path159"
       inkscape:connector-curvature="0" />
    <path
       style="fill:#ff00ff;fill-opacity:1;stroke-width:0.00483363"
       d="m 35.896079,20.528638 c -0.05101,-0.01237 -0.105596,-0.05325 -0.12817,-0.09599 -0.0482,-0.09124 -0.0093,-0.198732 0.08855,-0.244904 0.08076,-0.0381 0.176162,-0.02333 0.237899,0.03683 0.01397,0.01361 0.03163,0.03636 0.03927,0.05056 0.01273,0.02369 0.01388,0.02985 0.01388,0.07488 -3e-6,0.0443 -0.0013,0.05161 -0.01338,0.07525 -0.02522,0.04934 -0.07199,0.08622 -0.129462,0.102063 -0.02661,0.0073 -0.08101,0.008 -0.108575,0.0013 z"
       id="path161"
       inkscape:connector-curvature="0" />
    <path
       style="fill:#ff00ff;fill-opacity:1;stroke-width:0.00483363"
       d="m 36.149886,21.188401 c -0.158313,-0.03119 -0.267253,-0.18814 -0.23624,-0.340365 0.04657,-0.228566 0.319363,-0.318306 0.48694,-0.160184 0.04065,0.03836 0.06539,0.07784 0.08092,0.129184 0.01086,0.03588 0.01205,0.04675 0.0102,0.09346 -0.0023,0.05858 -0.01166,0.09224 -0.03821,0.137591 -0.03296,0.0563 -0.09814,0.108797 -0.160691,0.129434 -0.03042,0.01004 -0.114653,0.01645 -0.142925,0.01088 z"
       id="path163"
       inkscape:connector-curvature="0" />
    <path
       style="fill:#ff00ff;fill-opacity:1;stroke-width:0.00483363"
       d="m 35.926886,21.38241 c -0.06225,-0.03256 -0.06256,-0.119192 -5.43e-4,-0.151795 0.02176,-0.01144 0.06399,-0.01292 0.08679,-0.003 0.03603,0.0156 0.05894,0.05785 0.05101,0.09407 -0.005,0.0228 -0.01505,0.03797 -0.03625,0.05463 -0.02427,0.01908 -0.07085,0.02191 -0.101009,0.0062 z"
       id="path165"
       inkscape:connector-curvature="0" />
    <path
       style="fill:#ff00ff;fill-opacity:1;stroke-width:0.00483363"
       d="m 36.674475,20.742675 c -0.07892,-0.01843 -0.163179,-0.08562 -0.195573,-0.155966 -0.05181,-0.112519 -0.02858,-0.233436 0.06134,-0.319218 0.11686,-0.111484 0.304519,-0.107699 0.416506,0.0084 0.05463,0.05664 0.07882,0.115521 0.07882,0.191881 0,0.1215 -0.07465,0.223789 -0.193904,0.265676 -0.0458,0.01609 -0.120203,0.0202 -0.167188,0.0092 z"
       id="path167"
       inkscape:connector-curvature="0" />
    <path
       style="fill:#892ca0;fill-opacity:1;stroke-width:0.00683578"
       d="m 34.960203,21.970438 c -0.101941,-0.02385 -0.183448,-0.0587 -0.260506,-0.111411 -0.221311,-0.151368 -0.342566,-0.42101 -0.306554,-0.681702 0.0048,-0.03483 0.0042,-0.03705 -0.01228,-0.04517 -0.01818,-0.0089 -0.02676,-0.03616 -0.01516,-0.04811 0.0037,-0.0038 0.01617,-0.0089 0.02778,-0.01134 0.01899,-0.004 0.02338,-0.0102 0.04393,-0.06195 0.04423,-0.111342 0.14159,-0.236427 0.24026,-0.308663 0.220706,-0.161579 0.519455,-0.184609 0.763316,-0.05885 0.145914,0.07525 0.277698,0.222061 0.33584,0.37413 0.03675,0.09612 0.04637,0.15813 0.04288,0.276382 -0.0027,0.08996 -0.0061,0.117527 -0.02096,0.168536 -0.06961,0.238802 -0.250436,0.420188 -0.49311,0.494633 -0.05296,0.01625 -0.07404,0.01869 -0.18115,0.02099 -0.08947,0.0019 -0.132493,-4.1e-5 -0.164281,-0.0075 z"
       id="path171"
       inkscape:connector-curvature="0" />
    <path
       style="fill:#892ca0;fill-opacity:1;stroke-width:0.00341789"
       d="m 34.943754,22.244519 c -0.023,-0.0085 -0.0361,-0.01875 -0.04838,-0.03785 -0.01752,-0.02726 -0.01811,-0.05139 -0.0019,-0.07983 0.01428,-0.02511 0.05374,-0.0463 0.08622,-0.0463 0.017,0 0.04701,0.0119 0.06414,0.02544 0.03477,0.02747 0.03894,0.07823 0.0092,0.111521 -0.02507,0.02802 -0.07384,0.04009 -0.10921,0.02701 z"
       id="path173"
       inkscape:connector-curvature="0" />
    <path
       style="fill:#892ca0;fill-opacity:1;stroke-width:0.00341789"
       d="m 34.797037,22.308535 c -0.01498,-0.0104 -0.01583,-0.01761 -0.0036,-0.03024 0.01311,-0.01351 0.02757,-0.01401 0.0373,-0.0013 0.0091,0.01193 0.0088,0.02254 -8.22e-4,0.03189 -0.01,0.0096 -0.01865,0.0095 -0.03293,-3.8e-4 z"
       id="path175"
       inkscape:connector-curvature="0" />
    <path
       style="fill:#892ca0;fill-opacity:1;stroke-width:0.00341789"
       d="m 34.501399,22.354067 c -0.02891,-0.0043 -0.06396,-0.0216 -0.09462,-0.04681 -0.02677,-0.02201 -0.03953,-0.0372 -0.05373,-0.06397 l -0.0088,-0.01649 -0.02347,0.01887 c -0.02695,0.02167 -0.05028,0.03438 -0.0761,0.04146 -0.02341,0.0064 -0.08024,0.0064 -0.103785,-7.8e-5 -0.05159,-0.01415 -0.09362,-0.04923 -0.116733,-0.09743 -0.01288,-0.02687 -0.01305,-0.02772 -0.01302,-0.06729 2.8e-5,-0.03795 6.08e-4,-0.04134 0.01094,-0.06389 0.01542,-0.03363 0.05076,-0.06939 0.0865,-0.08751 l 0.02676,-0.01357 h 0.05759 0.05759 l 0.0264,0.01344 c 0.01822,0.0093 0.03437,0.0213 0.05215,0.0388 l 0.02575,0.02536 0.01165,-0.0176 c 0.03607,-0.0545 0.107613,-0.09284 0.173267,-0.09284 0.05414,0 0.109965,0.02409 0.148122,0.06393 0.04138,0.0432 0.06011,0.09076 0.06018,0.1528 6.7e-5,0.05975 -0.01975,0.110951 -0.05847,0.151025 -0.03728,0.03859 -0.07055,0.0556 -0.121663,0.0622 -0.03152,0.0041 -0.03631,0.004 -0.06655,-4.12e-4 z"
       id="path177"
       inkscape:connector-curvature="0" />
    <path
       style="fill:#892ca0;fill-opacity:1;stroke-width:0.00341789"
       d="m 34.167719,22.628322 c -0.02935,-0.0048 -0.07048,-0.02764 -0.09527,-0.0528 -0.03054,-0.03101 -0.04003,-0.05259 -0.04205,-0.09562 -0.0019,-0.04147 0.0035,-0.06336 0.02321,-0.09381 0.03208,-0.04951 0.09078,-0.07799 0.159551,-0.07744 0.07527,6.06e-4 0.135028,0.03661 0.165206,0.09953 0.01198,0.02498 0.01259,0.02791 0.01259,0.06064 0,0.03239 -7.15e-4,0.03594 -0.0123,0.06107 -0.03415,0.07408 -0.118869,0.113613 -0.210953,0.09842 z"
       id="path179"
       inkscape:connector-curvature="0" />
    <path
       style="fill:#892ca0;fill-opacity:1;stroke-width:0.00341789"
       d="m 34.335178,21.854917 c -0.01844,-0.0047 -0.03956,-0.01641 -0.05244,-0.02889 -0.0303,-0.02938 -0.03841,-0.07685 -0.01921,-0.112623 0.01984,-0.03699 0.05435,-0.05766 0.09612,-0.05758 0.05491,1.09e-4 0.09704,0.03702 0.103181,0.09041 0.0026,0.0227 -0.0055,0.05163 -0.02002,0.07126 -0.02142,0.02899 -0.0721,0.04662 -0.107619,0.03742 z"
       id="path181"
       inkscape:connector-curvature="0" />
    <path
       style="fill:#892ca0;fill-opacity:1;stroke-width:0.00341789"
       d="m 34.326027,21.602262 c -0.02495,-0.01379 -0.03429,-0.04479 -0.02043,-0.06788 0.01168,-0.01948 0.02354,-0.02631 0.04564,-0.02631 0.03812,0 0.05684,0.0181 0.05468,0.05286 -9.72e-4,0.01513 -0.0032,0.0221 -0.0094,0.02907 -0.01688,0.01886 -0.04853,0.02437 -0.07044,0.01226 z"
       id="path183"
       inkscape:connector-curvature="0" />
    <path
       style="fill:#892ca0;fill-opacity:1;stroke-width:0.00341789"
       d="m 34.111841,21.398206 c -0.03975,-0.01209 -0.06877,-0.04907 -0.06863,-0.08743 1.29e-4,-0.03415 0.01687,-0.0614 0.04977,-0.08099 0.01833,-0.01092 0.02068,-0.01141 0.05285,-0.01115 0.03685,2.96e-4 0.04802,0.0039 0.07012,0.02268 0.02004,0.01702 0.03066,0.04159 0.03079,0.07117 1e-4,0.0231 -7.47e-4,0.02601 -0.01282,0.04407 -0.02726,0.0408 -0.07328,0.05649 -0.122075,0.04164 z"
       id="path185"
       inkscape:connector-curvature="0" />
    <path
       style="fill:#892ca0;fill-opacity:1;stroke-width:0.00341789"
       d="m 34.217898,21.095115 c -0.0085,-0.0015 -0.02023,-0.0052 -0.02604,-0.0083 -0.02258,-0.01203 -0.04377,-0.04095 -0.04928,-0.06724 -0.0061,-0.02934 0.01609,-0.0699 0.04871,-0.08884 0.01668,-0.0097 0.02137,-0.01075 0.04714,-0.01075 0.02344,0 0.03136,0.0015 0.04377,0.0081 0.03852,0.02064 0.05731,0.05663 0.05015,0.09609 -0.0061,0.03351 -0.03912,0.06466 -0.0737,0.06947 -0.0083,0.0012 -0.01744,0.0025 -0.02022,0.0031 -0.0028,5.44e-4 -0.01202,-2.03e-4 -0.02053,-0.0017 z"
       id="path187"
       inkscape:connector-curvature="0" />
    <path
       style="fill:#892ca0;fill-opacity:1;stroke-width:0.00341789"
       d="m 34.224138,20.675094 c -0.05074,-0.0077 -0.101397,-0.03522 -0.142522,-0.07755 -0.04293,-0.04419 -0.06307,-0.09411 -0.06307,-0.156342 0,-0.06339 0.02007,-0.111603 0.06659,-0.159996 0.02584,-0.02687 0.03521,-0.03405 0.06239,-0.04778 0.03918,-0.0198 0.0679,-0.0263 0.116163,-0.0263 0.04789,0 0.07705,0.0065 0.11448,0.02555 0.04923,0.02505 0.08973,0.0685 0.11241,0.120576 0.02977,0.06836 0.02389,0.145373 -0.01586,0.208089 -0.05279,0.08328 -0.152514,0.128545 -0.250571,0.113745 z"
       id="path189"
       inkscape:connector-curvature="0" />
    <path
       style="fill:#892ca0;fill-opacity:1;stroke-width:0.00341789"
       d="m 34.377211,20.860442 c -0.01304,-0.0066 -0.02231,-0.01906 -0.02674,-0.03586 -0.01078,-0.04094 0.04014,-0.07691 0.07981,-0.05637 0.0366,0.01895 0.03583,0.07403 -0.0013,0.0914 -0.01697,0.0079 -0.03714,0.0083 -0.05178,8.69e-4 z"
       id="path191"
       inkscape:connector-curvature="0" />
    <path
       style="fill:#892ca0;fill-opacity:1;stroke-width:0.00341789"
       d="m 34.618202,20.647674 c -0.02685,-0.0083 -0.04486,-0.03516 -0.04226,-0.06296 0.0037,-0.03898 0.04237,-0.06295 0.08335,-0.05158 0.01995,0.0055 0.04232,0.02829 0.04563,0.04642 0.008,0.04419 -0.04062,0.08243 -0.08671,0.06812 z"
       id="path193"
       inkscape:connector-curvature="0" />
    <path
       style="fill:#892ca0;fill-opacity:1;stroke-width:0.00341789"
       d="m 34.808607,20.515552 c -0.01756,-0.0067 -0.01031,-0.03792 0.0088,-0.03792 0.01772,0 0.02551,0.01517 0.01542,0.03002 -0.0059,0.0087 -0.01463,0.01155 -0.02421,0.0079 z"
       id="path195"
       inkscape:connector-curvature="0" />
    <path
       style="fill:#892ca0;fill-opacity:1;stroke-width:0.00341789"
       d="m 35.935446,21.38554 c -0.01702,-0.0056 -0.04569,-0.03568 -0.05019,-0.05268 -0.0095,-0.03582 0.0014,-0.07205 0.02761,-0.09191 0.01868,-0.01415 0.03533,-0.01827 0.06814,-0.01684 0.02342,0.001 0.02972,0.0027 0.04383,0.01169 0.03254,0.02073 0.04711,0.06426 0.03366,0.100547 -0.007,0.01889 -0.03298,0.04389 -0.05157,0.04963 -0.01633,0.0051 -0.0555,0.0048 -0.07148,-4.43e-4 z"
       id="path197"
       inkscape:connector-curvature="0" />
    <path
       style="fill:#892ca0;fill-opacity:1;stroke-width:0.00341789"
       d="m 36.125658,21.181766 c -0.113658,-0.03435 -0.198424,-0.132597 -0.214059,-0.24811 -0.0093,-0.06855 0.01314,-0.148042 0.0591,-0.209589 0.03731,-0.04996 0.09459,-0.08757 0.161981,-0.106339 0.01806,-0.0051 0.03426,-0.0064 0.0721,-0.0062 0.04273,2.66e-4 0.05252,0.0014 0.07848,0.0096 0.09187,0.02869 0.161969,0.09631 0.194739,0.187854 0.01095,0.0306 0.01117,0.03235 0.01108,0.08674 -1.06e-4,0.0652 -0.0041,0.08488 -0.02667,0.132304 -0.03326,0.06981 -0.114194,0.136245 -0.185664,0.15241 -0.01273,0.0028 -0.04663,0.0059 -0.07533,0.0069 -0.0457,0.0014 -0.05512,7.3e-4 -0.07576,-0.0055 z"
       id="path199"
       inkscape:connector-curvature="0" />
    <path
       style="fill:#892ca0;fill-opacity:1;stroke-width:0.00341789"
       d="m 36.684589,20.7433 c -0.06652,-0.01359 -0.132685,-0.05573 -0.176765,-0.112573 -0.03454,-0.04454 -0.05043,-0.09004 -0.05287,-0.151364 -0.002,-0.05019 0.0035,-0.08139 0.02094,-0.119268 0.04298,-0.09326 0.130104,-0.157211 0.232264,-0.170496 0.13369,-0.01739 0.26932,0.06519 0.312849,0.190475 0.01001,0.02882 0.01039,0.03196 0.01039,0.08715 0,0.05528 -3.63e-4,0.05828 -0.01048,0.08741 -0.03225,0.09286 -0.112243,0.164299 -0.207292,0.185135 -0.03505,0.0077 -0.100018,0.0095 -0.129038,0.0036 z"
       id="path201"
       inkscape:connector-curvature="0" />
    <path
       style="fill:#892ca0;fill-opacity:1;stroke-width:0.00341789"
       d="m 35.906266,20.529578 c -0.05594,-0.01039 -0.120322,-0.05848 -0.14119,-0.105446 -0.01365,-0.03071 -0.01918,-0.06495 -0.01499,-0.09275 0.0096,-0.064 0.04402,-0.110942 0.102485,-0.139921 0.03182,-0.01577 0.0611,-0.0225 0.09814,-0.02257 0.03631,-6e-5 0.06176,0.0061 0.09583,0.02306 0.03181,0.01587 0.07399,0.05826 0.08923,0.08965 0.0098,0.02018 0.0101,0.02231 0.01005,0.06939 l -5.6e-5,0.04858 -0.01295,0.02509 c -0.02354,0.04559 -0.07361,0.08616 -0.123326,0.09991 -0.02339,0.0065 -0.08046,0.0092 -0.103204,0.005 z"
       id="path203"
       inkscape:connector-curvature="0" />
    <path
       style="fill:#892ca0;fill-opacity:1;stroke-width:0.00341789"
       d="m 35.65232,20.70678 c -0.03093,-0.0058 -0.06484,-0.03242 -0.07756,-0.06088 -0.01976,-0.04422 0.0051,-0.10149 0.05385,-0.124279 0.0231,-0.01079 0.07594,-0.01037 0.100459,7.9e-4 0.01856,0.0085 0.04582,0.03531 0.05152,0.05075 0.0018,0.005 0.0033,0.02256 0.0033,0.03913 -9e-6,0.02318 -0.0014,0.03253 -0.0062,0.04054 -0.02401,0.04029 -0.07686,0.06303 -0.125354,0.05394 z"
       id="path205"
       inkscape:connector-curvature="0" />
    <path
       style="fill:#892ca0;fill-opacity:1;stroke-width:0.00341789"
       d="m 35.278768,20.473363 c -0.04456,-0.01599 -0.07962,-0.04767 -0.09892,-0.08941 -0.0094,-0.02034 -0.01043,-0.02581 -0.01043,-0.0557 0,-0.03124 7.17e-4,-0.03464 0.0125,-0.05919 0.06189,-0.129042 0.261479,-0.127854 0.321285,0.0019 0.01204,0.02612 0.01221,0.02706 0.01052,0.06021 -0.0024,0.04671 -0.01084,0.06838 -0.03751,0.09586 -0.0148,0.01525 -0.02924,0.02566 -0.05092,0.03675 l -0.03028,0.01547 -0.04714,9.48e-4 c -0.04183,8.69e-4 -0.04962,9.8e-5 -0.0691,-0.0069 z"
       id="path207"
       inkscape:connector-curvature="0" />
    <path
       style="fill:#892ca0;fill-opacity:1;stroke-width:0.00341789"
       d="m 34.908108,20.459051 c -0.03185,-0.0135 -0.0526,-0.03257 -0.06765,-0.06219 -0.01057,-0.0208 -0.01048,-0.06299 1.96e-4,-0.08785 0.03175,-0.07395 0.138555,-0.0924 0.198793,-0.03434 0.02303,0.0222 0.03196,0.04446 0.03199,0.07978 2.6e-5,0.02985 -0.0052,0.045 -0.02347,0.0673 -0.03208,0.03928 -0.09536,0.05615 -0.139868,0.03729 z"
       id="path209"
       inkscape:connector-curvature="0" />
    <path
       style="fill:#892ca0;fill-opacity:1;stroke-width:0.00341789"
       d="m 34.658566,20.370311 c -0.01942,-0.004 -0.0432,-0.02098 -0.05091,-0.03636 -0.0085,-0.01686 -0.01105,-0.04572 -0.0056,-0.06267 0.0092,-0.02886 0.0436,-0.0538 0.07411,-0.0538 0.05169,0 0.09117,0.05644 0.07222,0.103261 -0.01425,0.03521 -0.05372,0.057 -0.0898,0.04957 z"
       id="path211"
       inkscape:connector-curvature="0" />
  </g>
</svg>
