<?xml version="1.0" encoding="UTF-8" standalone="no"?>
<!-- Created with Inkscape (http://www.inkscape.org/) -->

<svg
   xmlns:dc="http://purl.org/dc/elements/1.1/"
   xmlns:cc="http://creativecommons.org/ns#"
   xmlns:rdf="http://www.w3.org/1999/02/22-rdf-syntax-ns#"
   xmlns:svg="http://www.w3.org/2000/svg"
   xmlns="http://www.w3.org/2000/svg"
   xmlns:sodipodi="http://sodipodi.sourceforge.net/DTD/sodipodi-0.dtd"
   xmlns:inkscape="http://www.inkscape.org/namespaces/inkscape"
   width="22.359978mm"
   height="21.996363mm"
   viewBox="0 0 22.359978 21.996363"
   version="1.1"
   id="svg8"
   inkscape:version="0.92.3 (2405546, 2018-03-11)"
   sodipodi:docname="blobogram.svg">
  <defs
     id="defs2" />
  <sodipodi:namedview
     id="base"
     pagecolor="#ffffff"
     bordercolor="#666666"
     borderopacity="1.0"
     inkscape:pageopacity="0.0"
     inkscape:pageshadow="2"
     inkscape:zoom="22.4"
     inkscape:cx="33.417828"
     inkscape:cy="72.099293"
     inkscape:document-units="mm"
     inkscape:current-layer="layer1"
     showgrid="false"
     fit-margin-top="0"
     fit-margin-left="0"
     fit-margin-right="0"
     fit-margin-bottom="0"
     inkscape:window-width="1918"
     inkscape:window-height="1058"
     inkscape:window-x="0"
     inkscape:window-y="0"
     inkscape:window-maximized="0" />
  <metadata
     id="metadata5">
    <rdf:RDF>
      <cc:Work
         rdf:about="">
        <dc:format>image/svg+xml</dc:format>
        <dc:type
           rdf:resource="http://purl.org/dc/dcmitype/StillImage" />
        <dc:title />
      </cc:Work>
    </rdf:RDF>
  </metadata>
  <g
     inkscape:label="Layer 1"
     inkscape:groupmode="layer"
     id="layer1"
     transform="translate(-18.018832,-20.061916)">
    <ellipse
       style="fill:#ffd42a;fill-opacity:1;stroke-width:0.26458332"
       id="path10"
       cx="28.915178"
       cy="32.038689"
       rx="10.394345"
       ry="9.8273811" />
    <ellipse
       style="fill:#c83737;fill-opacity:1;stroke-width:0.26458332"
       id="path12"
       cx="36.215019"
       cy="23.783724"
       rx="3.3408689"
       ry="3.0067821" />
    <ellipse
       style="fill:#c83737;fill-opacity:1;stroke-width:0.26458332"
       id="path14"
       cx="31.67144"
       cy="21.177847"
       rx="1.2027128"
       ry="1.0690781" />
    <ellipse
       style="fill:#c83737;fill-opacity:1;stroke-width:0.26458332"
       id="path16"
       cx="33.675961"
       cy="20.735182"
       rx="0.33408689"
       ry="0.30903038" />
    <ellipse
       style="fill:#ffd42a;fill-opacity:1;stroke-width:0.26458332"
       id="path18"
       cx="37.701706"
       cy="40.888973"
       rx="1.2194172"
       ry="1.1358955" />
    <ellipse
       style="fill:#ffd42a;fill-opacity:1;stroke-width:0.26458332"
       id="path20"
       cx="35.262875"
       cy="41.289875"
       rx="0.65146947"
       ry="0.60135639" />
    <ellipse
       style="fill:#c83737;fill-opacity:1;stroke-width:0.26458332"
       id="path32"
       cx="38.419994"
       cy="28.627985"
       rx="1.2027128"
       ry="1.1024867" />
    <ellipse
       style="fill:#c83737;fill-opacity:1;stroke-width:0.26458332"
       id="path34"
       cx="35.947754"
       cy="27.926401"
       rx="0.8018086"
       ry="0.73499119" />
    <ellipse
       style="fill:#c83737;fill-opacity:1;stroke-width:0.26458332"
       id="path36"
       cx="39.238506"
       cy="27.124592"
       rx="0.75169551"
       ry="0.71828681" />
    <ellipse
       style="fill:#c83737;fill-opacity:1;stroke-width:0.26458332"
       id="path38"
       cx="36.817242"
       cy="30.308266"
       rx="1.0276227"
       ry="0.92722285" />
    <ellipse
       style="fill:#c83737;fill-opacity:1;stroke-width:0.26458332"
       id="path40"
       cx="31.324778"
       cy="24.17206"
       rx="1.3701636"
       ry="1.2520461" />
    <ellipse
       style="fill:#c83737;fill-opacity:1;stroke-width:0.26458332"
       id="path42"
       cx="39.263561"
       cy="30.548985"
       rx="0.58465207"
       ry="0.52618688" />
    <ellipse
       style="fill:#c83737;fill-opacity:1;stroke-width:0.26458332"
       id="path44"
       cx="38.399113"
       cy="31.446842"
       rx="0.58882815"
       ry="0.5220108" />
    <ellipse
       style="fill:#ffcc00;fill-opacity:1;stroke-width:0.26458332"
       id="path50"
       cx="37.012653"
       cy="39.214363"
       rx="0.44684121"
       ry="0.41343257" />
    <ellipse
       style="fill:#ffcc00;fill-opacity:1;stroke-width:0.26458332"
       id="path52"
       cx="36.118973"
       cy="40.692699"
       rx="0.24638909"
       ry="0.22133258" />
    <ellipse
       style="fill:#aa00d4;fill-opacity:1;stroke-width:0.26458332"
       id="path58"
       cx="21.882692"
       cy="24.184629"
       rx="2.5390604"
       ry="2.4388344" />
    <ellipse
       style="fill:#aa00d4;fill-opacity:1;stroke-width:0.26458332"
       id="path60"
       cx="25.724691"
       cy="22.915098"
       rx="1.0356694"
       ry="1.0022607" />
    <circle
       style="fill:#aa00d4;fill-opacity:1;stroke-width:0.26458332"
       id="path64"
       cx="19.894875"
       cy="27.141298"
       r="0.75169551" />
    <ellipse
       style="fill:#aa00d4;fill-opacity:1;stroke-width:0.26458332"
       id="path66"
       cx="23.887215"
       cy="21.929543"
       rx="0.4009043"
       ry="0.35079125" />
    <ellipse
       style="fill:#aa00d4;fill-opacity:1;stroke-width:0.26458332"
       id="path68"
       cx="24.839361"
       cy="21.044212"
       rx="0.71828681"
       ry="0.63476509" />
    <ellipse
       style="fill:#aa00d4;fill-opacity:1;stroke-width:0.26458332"
       id="path70"
       cx="27.628988"
       cy="21.445116"
       rx="1.0356694"
       ry="0.96885204" />
    <ellipse
       style="fill:#aa00d4;fill-opacity:1;stroke-width:0.26458332"
       id="path72"
       cx="22.709557"
       cy="20.968695"
       rx="0.62641299"
       ry="0.5428912" />
    <ellipse
       style="fill:#aa00d4;fill-opacity:1;stroke-width:0.26458332"
       id="path74"
       cx="19.260111"
       cy="25.830006"
       rx="0.38419995"
       ry="0.35914341" />
    <ellipse
       style="fill:#aa00d4;fill-opacity:1;stroke-width:0.26458332"
       id="path76"
       cx="21.431675"
       cy="27.224819"
       rx="0.35079125"
       ry="0.30067819" />
    <ellipse
       style="fill:#447821;fill-opacity:1;stroke-width:0.29607573"
       id="path80"
       cx="22.115223"
       cy="38.327618"
       rx="3.740442"
       ry="3.39657" />
    <ellipse
       style="fill:#447821;fill-opacity:1;stroke-width:0.26458332"
       id="path82"
       cx="25.181801"
       cy="41.406811"
       rx="0.59300429"
       ry="0.56794775" />
    <ellipse
       style="fill:#447821;fill-opacity:1;stroke-width:0.26458332"
       id="path84"
       cx="25.958553"
       cy="39.986938"
       rx="0.68487817"
       ry="0.60135639" />
    <ellipse
       style="fill:#447821;fill-opacity:1;stroke-width:0.26458332"
       id="path86"
       cx="27.094448"
       cy="41.423512"
       rx="0.60135639"
       ry="0.56794775" />
    <ellipse
       style="fill:#447821;fill-opacity:1;stroke-width:1.09689343"
       id="path88"
       cx="28.132694"
       cy="39.472607"
       rx="1.2052908"
       ry="1.0822806" />
    <ellipse
       style="fill:#447821;fill-opacity:1;stroke-width:0.26458332"
       id="path90"
       cx="23.824574"
       cy="41.711662"
       rx="0.31320649"
       ry="0.27979779" />
    <ellipse
       style="fill:#447821;fill-opacity:1;stroke-width:0.26458332"
       id="path92"
       cx="24.977171"
       cy="40.521477"
       rx="0.22133258"
       ry="0.19209997" />
    <ellipse
       style="fill:#447821;fill-opacity:1;stroke-width:0.26458332"
       id="path94"
       cx="19.320663"
       cy="35.69392"
       rx="0.60344446"
       ry="0.53036296" />
    <ellipse
       style="fill:#447821;fill-opacity:1;stroke-width:0.26458332"
       id="path96"
       cx="18.890528"
       cy="36.493641"
       rx="0.27353367"
       ry="0.25265321" />
    <ellipse
       style="fill:#447821;fill-opacity:1;stroke-width:0.26458332"
       id="path98"
       cx="20.228962"
       cy="35.758652"
       rx="0.14616302"
       ry="0.12737063" />
    <ellipse
       style="fill:#447821;fill-opacity:1;stroke-width:0.26458332"
       id="path100"
       cx="19.103508"
       cy="40.951614"
       rx="0.52827489"
       ry="0.47607383" />
    <ellipse
       style="fill:#447821;fill-opacity:1;stroke-width:0.26458332"
       id="path102"
       cx="19.69651"
       cy="41.58638"
       rx="0.16495541"
       ry="0.15451519" />
    <ellipse
       style="fill:#447821;fill-opacity:1;stroke-width:0.26458332"
       id="path104"
       cx="20.089064"
       cy="41.519562"
       rx="0.098138027"
       ry="0.083521724" />
    <ellipse
       style="fill:#447821;fill-opacity:1;stroke-width:0.26458332"
       id="path106"
       cx="18.408188"
       cy="40.095516"
       rx="0.22133258"
       ry="0.19209997" />
    <ellipse
       style="fill:#447821;fill-opacity:1;stroke-width:0.26458332"
       id="path108"
       cx="18.479181"
       cy="40.521477"
       rx="0.091873899"
       ry="0.087697811" />
    <ellipse
       style="fill:#447821;fill-opacity:1;stroke-width:0.26458332"
       id="path110"
       cx="28.038242"
       cy="41.803535"
       rx="0.23386084"
       ry="0.22968476" />
    <ellipse
       style="fill:#aa00d4;fill-opacity:1;stroke-width:0.26458332"
       id="path112"
       cx="18.739349"
       cy="28.258928"
       rx="0.65555245"
       ry="0.56696427" />
    <ellipse
       style="fill:#aa00d4;fill-opacity:1;stroke-width:0.26458332"
       id="path114"
       cx="20.850702"
       cy="27.653574"
       rx="0.10335286"
       ry="0.097446986" />
    <ellipse
       style="fill:#aa00d4;fill-opacity:1;stroke-width:0.26458332"
       id="path116"
       cx="24.922804"
       cy="24.299036"
       rx="0.33663505"
       ry="0.30710566" />
    <ellipse
       style="fill:#aa00d4;fill-opacity:1;stroke-width:0.26458332"
       id="path118"
       cx="19.241318"
       cy="25.153481"
       rx="0.20671628"
       ry="0.19209997" />
    <ellipse
       style="fill:#aa00d4;fill-opacity:1;stroke-width:0.37522987"
       id="path120"
       cx="21.342495"
       cy="21.052464"
       rx="0.43895969"
       ry="0.40209144" />
    <ellipse
       style="fill:#aa00d4;fill-opacity:1;stroke-width:0.33792812"
       id="path122"
       cx="18.926023"
       cy="21.353241"
       rx="0.87697816"
       ry="0.81851292" />
    <ellipse
       style="fill:#aa00d4;fill-opacity:1;stroke-width:0.26458332"
       id="path124"
       cx="19.418802"
       cy="22.622774"
       rx="0.20880431"
       ry="0.19209997" />
    <ellipse
       style="fill:#aa00d4;fill-opacity:1;stroke-width:0.26458332"
       id="path126"
       cx="19.372864"
       cy="23.612503"
       rx="0.13781084"
       ry="0.12528259" />
    <ellipse
       style="fill:#aa00d4;fill-opacity:1;stroke-width:0.26458332"
       id="path128"
       cx="18.511976"
       cy="24.310848"
       rx="0.37502325"
       ry="0.33368212" />
    <ellipse
       style="fill:#aa00d4;fill-opacity:1;stroke-width:0.26458332"
       id="path130"
       cx="20.246248"
       cy="21.860878"
       rx="0.24361746"
       ry="0.21999395" />
    <ellipse
       style="fill:#aa00d4;fill-opacity:1;stroke-width:0.26458332"
       id="path132"
       cx="20.37085"
       cy="20.855909"
       rx="0.28791156"
       ry="0.27757627" />
    <circle
       style="fill:#aa00d4;fill-opacity:1;stroke-width:0.26458332"
       id="path134"
       cx="20.86842"
       cy="21.540991"
       r="0.082682289" />
    <ellipse
       style="fill:#aa00d4;fill-opacity:1;stroke-width:0.26458332"
       id="path136"
       cx="18.677338"
       cy="27.077751"
       rx="0.65850544"
       ry="0.59649372" />
    <ellipse
       style="fill:#aa00d4;fill-opacity:1;stroke-width:0.26458332"
       id="path138"
       cx="18.838652"
       cy="23.283171"
       rx="0.35079125"
       ry="0.31738254" />
    <ellipse
       style="fill:#447821;fill-opacity:1;stroke-width:0.26458332"
       id="path142"
       cx="25.837446"
       cy="38.66312"
       rx="0.39672822"
       ry="0.33826301" />
    <ellipse
       style="fill:#447821;fill-opacity:1;stroke-width:0.26458332"
       id="path144"
       cx="20.389742"
       cy="35.242905"
       rx="0.35705537"
       ry="0.30067819" />
    <ellipse
       style="fill:#ffd42a;fill-opacity:1;stroke-width:0.26458332"
       id="path146"
       cx="33.316818"
       cy="41.607262"
       rx="0.39255211"
       ry="0.37584776" />
    <circle
       style="fill:#ffd42a;fill-opacity:1;stroke-width:0.26458332"
       id="path150"
       cx="36.315247"
       cy="41.841122"
       r="0.21715648" />
    <ellipse
       style="fill:#ffd42a;fill-opacity:1;stroke-width:0.26458332"
       id="path152"
       cx="38.952446"
       cy="36.232639"
       rx="0.31947061"
       ry="0.28814995" />
    <ellipse
       style="fill:#ffd42a;fill-opacity:1;stroke-width:0.26458332"
       id="path156"
       cx="39.011276"
       cy="41.359638"
       rx="0.073823474"
       ry="0.072347008" />
    <ellipse
       style="fill:#ffd42a;fill-opacity:1;stroke-width:0.26458332"
       id="path158"
       cx="38.776516"
       cy="41.861641"
       rx="0.13435872"
       ry="0.11664108" />
    <ellipse
       style="fill:#c83737;fill-opacity:1;stroke-width:0.26458332"
       id="path166"
       cx="39.622707"
       cy="31.726643"
       rx="0.31738254"
       ry="0.30903038" />
    <ellipse
       style="fill:#c83737;fill-opacity:1;stroke-width:0.26458332"
       id="path168"
       cx="38.244598"
       cy="26.959639"
       rx="0.42596081"
       ry="0.40716842" />
    <ellipse
       style="fill:#c83737;fill-opacity:1;stroke-width:0.26458332"
       id="path170"
       cx="34.898846"
       cy="20.550568"
       rx="0.4488467"
       ry="0.43112907" />
    <ellipse
       style="fill:#c83737;fill-opacity:1;stroke-width:0.35144725"
       id="path172"
       cx="39.496315"
       cy="21.02618"
       rx="0.88249415"
       ry="0.76109082" />
    <ellipse
       style="fill:#c83737;fill-opacity:1;stroke-width:0.26458332"
       id="path174"
       cx="39.817429"
       cy="22.512508"
       rx="0.30710566"
       ry="0.30119976" />
    <ellipse
       style="fill:#c83737;fill-opacity:1;stroke-width:0.26458332"
       id="path176"
       cx="38.079739"
       cy="20.315868"
       rx="0.27757627"
       ry="0.25395274" />
    <ellipse
       style="fill:#c83737;fill-opacity:1;stroke-width:0.26458332"
       id="path178"
       cx="39.102818"
       cy="25.654436"
       rx="0.46656433"
       ry="0.43112907" />
    <ellipse
       style="fill:#c83737;fill-opacity:1;stroke-width:0.25044927"
       id="path180"
       cx="39.898434"
       cy="24.839003"
       rx="0.37797621"
       ry="0.35983884" />
    <ellipse
       style="fill:#c83737;fill-opacity:1;stroke-width:0.25752649"
       id="path182"
       cx="39.852863"
       cy="25.932011"
       rx="0.2657645"
       ry="0.23623511" />
    <ellipse
       style="fill:#c83737;fill-opacity:1;stroke-width:0.26458332"
       id="path184"
       cx="39.738136"
       cy="29.637024"
       rx="0.39569384"
       ry="0.37207031" />
    <ellipse
       style="fill:#c83737;fill-opacity:1;stroke-width:0.26458332"
       id="path186"
       cx="39.108723"
       cy="33.1549"
       rx="0.81501114"
       ry="0.75004649" />
    <ellipse
       style="fill:#c83737;fill-opacity:1;stroke-width:0.26458332"
       id="path188"
       cx="39.845482"
       cy="23.621336"
       rx="0.2022763"
       ry="0.19046457" />
    <ellipse
       style="fill:#c83737;fill-opacity:1;stroke-width:0.26458332"
       id="path190"
       cx="36.899925"
       cy="20.833761"
       rx="0.59649372"
       ry="0.53005254" />
    <ellipse
       style="fill:#447821;fill-opacity:1;stroke-width:0.68959177"
       id="path192"
       cx="19.89719"
       cy="33.323154"
       rx="1.6053556"
       ry="1.4983333" />
    <path
       style="fill:#0000ff;fill-opacity:1;stroke-width:0.03156727"
       d="m 68.89433,83.081494 c -0.101825,-0.03244 -0.2047,-0.100155 -0.305922,-0.201377 -0.411675,-0.411676 -0.276667,-1.085088 0.262726,-1.31046 0.168826,-0.07054 0.47885,-0.0625 0.642362,0.01665 0.1551,0.07508 0.345618,0.273578 0.409632,0.426786 0.05854,0.140107 0.0564,0.459846 -0.004,0.604512 -0.162377,0.388622 -0.602762,0.591945 -1.004754,0.463888 z"
       id="path91"
       inkscape:connector-curvature="0"
       transform="matrix(0.26458333,0,0,0.26458333,18.018832,20.061916)" />
    <path
       style="fill:#0000ff;fill-opacity:1;stroke-width:0.03156727"
       d="m 64.786163,82.466783 c -0.864271,-0.135377 -1.642723,-0.739493 -1.924647,-1.493619 -0.147068,-0.393397 -0.173758,-0.832393 -0.07585,-1.247526 0.06831,-0.289643 0.295405,-0.704462 0.516228,-0.942971 0.494932,-0.534573 1.112865,-0.796186 1.8817,-0.796651 0.436554,-2.64e-4 0.742466,0.06764 1.117796,0.248127 0.646076,0.310678 1.096085,0.850697 1.265484,1.518605 0.07284,0.287201 0.04917,0.854301 -0.04746,1.137236 -0.252508,0.739284 -0.889137,1.31003 -1.689592,1.514738 -0.294538,0.07532 -0.776143,0.103963 -1.043656,0.06206 z"
       id="path93"
       inkscape:connector-curvature="0"
       transform="matrix(0.26458333,0,0,0.26458333,18.018832,20.061916)" />
    <path
       style="fill:#0000ff;fill-opacity:1;stroke-width:0.03156727"
       d=""
       id="path95"
       inkscape:connector-curvature="0"
       transform="matrix(0.26458333,0,0,0.26458333,18.018832,20.061916)" />
    <path
       style="fill:#892ca0;fill-opacity:1;stroke-width:0.09326182"
       d="m 31.957793,41.179409 c -0.493563,-0.165363 -0.794492,-0.445767 -0.98747,-0.92043 -0.419136,-1.030927 0.378352,-2.020977 1.628098,-2.020977 0.598749,0 1.034821,0.225103 1.386984,0.715999 0.417177,0.581479 0.220859,1.57983 -0.392292,1.995642 -0.519483,0.352263 -1.047725,0.426504 -1.635274,0.229647 z"
       id="path97"
       inkscape:connector-curvature="0" />
    <path
       style="fill:#0000ff;fill-opacity:1;stroke-width:0.03156727"
       d="m 57.486632,82.801364 c -0.741287,-0.168605 -1.245654,-0.886132 -1.116313,-1.588096 0.09866,-0.535415 0.450715,-0.933374 0.985334,-1.113792 0.291469,-0.09836 0.783566,-0.07829 1.049291,0.0428 0.41036,0.187003 0.682771,0.477079 0.81161,0.864241 0.05594,0.168096 0.06605,0.258583 0.0556,0.49751 -0.01092,0.249578 -0.02744,0.321835 -0.113636,0.496926 -0.183838,0.373428 -0.460903,0.619783 -0.846195,0.752402 -0.24698,0.08501 -0.578303,0.104275 -0.825693,0.04801 z"
       id="path99"
       inkscape:connector-curvature="0"
       transform="matrix(0.26458333,0,0,0.26458333,18.018832,20.061916)" />
    <path
       style="fill:#0000ff;fill-opacity:1;stroke-width:0.03156727"
       d="m 68.210017,78.779099 c -0.470488,-0.09931 -0.787066,-0.52455 -0.700218,-0.940552 0.0855,-0.409525 0.43031,-0.669024 0.893085,-0.672115 0.266462,-0.0018 0.463638,0.06666 0.640465,0.222311 0.349961,0.308048 0.370895,0.804244 0.04771,1.130748 -0.20343,0.205517 -0.593198,0.320366 -0.881038,0.259608 z"
       id="path101"
       inkscape:connector-curvature="0"
       transform="matrix(0.26458333,0,0,0.26458333,18.018832,20.061916)" />
    <path
       style="fill:#0000ff;fill-opacity:1;stroke-width:0.0195703"
       d="m 35.371995,40.524687 c -0.382319,-0.0745 -0.652492,-0.326173 -0.715551,-0.666517 -0.06212,-0.335339 0.146299,-0.687932 0.499618,-0.845225 0.114459,-0.05095 0.164947,-0.06162 0.323166,-0.06822 0.40301,-0.01691 0.705064,0.144484 0.877783,0.468738 0.05426,0.101898 0.05868,0.125887 0.05868,0.320054 0,0.19765 -0.0038,0.21723 -0.06457,0.335344 -0.169441,0.329186 -0.600122,0.529687 -0.979121,0.45582 z"
       id="path103"
       inkscape:connector-curvature="0" />
    <path
       style="fill:#0000ff;fill-opacity:1;stroke-width:0.03156727"
       d="m 71.428683,73.89983 c -0.843279,-0.176043 -1.429394,-0.958479 -1.296875,-1.731269 0.05493,-0.320332 0.197256,-0.595045 0.426897,-0.823987 0.341071,-0.340033 0.725379,-0.492981 1.238699,-0.492981 0.504167,0 0.907922,0.170867 1.249192,0.528653 0.309093,0.324052 0.421758,0.637086 0.397337,1.10398 -0.01361,0.260227 -0.0293,0.322874 -0.133813,0.534342 -0.328729,0.665136 -1.126575,1.038846 -1.881437,0.881262 z"
       id="path105"
       inkscape:connector-curvature="0"
       transform="matrix(0.26458333,0,0,0.26458333,18.018832,20.061916)" />
    <path
       style="fill:#0000ff;fill-opacity:1;stroke-width:0.03156727"
       d="m 74.003805,82.983767 c -0.333624,-0.02803 -0.792439,-0.122641 -1.127509,-0.232493 -2.137102,-0.700645 -3.400534,-2.716837 -3.005951,-4.796911 0.30236,-1.593908 1.598301,-2.919262 3.281144,-3.355611 0.437393,-0.113413 0.735475,-0.148491 1.261838,-0.148491 1.293201,0 2.440931,0.467073 3.333209,1.356463 0.645366,0.643276 1.034168,1.382188 1.185857,2.253706 0.07677,0.441094 0.04584,1.193414 -0.06689,1.626876 -0.207213,0.796758 -0.572299,1.413842 -1.18851,2.00887 -0.948072,0.915481 -2.331281,1.400348 -3.673188,1.287591 z"
       id="path107"
       inkscape:connector-curvature="0"
       transform="matrix(0.26458333,0,0,0.26458333,18.018832,20.061916)" />
    <path
       style="fill:#0000ff;fill-opacity:1;stroke-width:0.03156727"
       d="m 78.232254,82.771185 c -0.156953,-0.06837 -0.266757,-0.223541 -0.266757,-0.376986 0,-0.45292 0.718617,-0.589547 0.931865,-0.177171 0.187636,0.362847 -0.255903,0.732395 -0.665108,0.554157 z"
       id="path109"
       inkscape:connector-curvature="0"
       transform="matrix(0.26458333,0,0,0.26458333,18.018832,20.061916)" />
    <path
       style="fill:#0000ff;fill-opacity:1;stroke-width:0.01745998"
       d="m 39.522533,42.056151 c -0.158605,-0.05872 -0.273974,-0.217403 -0.273974,-0.376875 0,-0.2547 0.269124,-0.457544 0.533617,-0.402201 0.279575,0.05849 0.42763,0.332999 0.30901,0.57292 -0.0745,0.15071 -0.220204,0.233851 -0.405682,0.231509 -0.05381,-6.66e-4 -0.127142,-0.01217 -0.162977,-0.02535 z"
       id="path111"
       inkscape:connector-curvature="0" />
    <path
       style="fill:#0000ff;fill-opacity:1;stroke-width:0.03156727"
       d=""
       id="path113"
       inkscape:connector-curvature="0"
       transform="matrix(0.26458333,0,0,0.26458333,18.018832,20.061916)" />
    <path
       style="fill:#0000ff;fill-opacity:1;stroke-width:0.03156727"
       d="m 79.162625,80.671441 c -0.05563,-0.05563 -0.09227,-0.125545 -0.09227,-0.176048 0,-0.110738 0.157583,-0.268322 0.268321,-0.268322 0.110738,0 0.268322,0.157584 0.268322,0.268322 0,0.110738 -0.157584,0.268322 -0.268322,0.268322 -0.0505,0 -0.120421,-0.03665 -0.176048,-0.09227 z"
       id="path115"
       inkscape:connector-curvature="0"
       transform="matrix(0.26458333,0,0,0.26458333,18.018832,20.061916)" />
    <path
       style="fill:#0000ff;fill-opacity:1;stroke-width:0.02104487"
       d="m 39.397651,41.13078 c -0.14321,-0.06033 -0.247521,-0.151406 -0.328412,-0.286665 -0.04125,-0.06899 -0.05017,-0.115546 -0.0503,-0.26261 -1.44e-4,-0.160894 0.0064,-0.189311 0.06555,-0.284392 0.116832,-0.187837 0.307374,-0.300083 0.537324,-0.316522 0.442489,-0.03163 0.794345,0.31027 0.723386,0.702931 -0.0259,0.142941 -0.09061,0.245311 -0.221624,0.350234 -0.205658,0.164699 -0.478702,0.201177 -0.7259,0.09702 z"
       id="path117"
       inkscape:connector-curvature="0" />
    <path
       style="fill:#0000ff;fill-opacity:1;stroke-width:0.01333304"
       d="m 38.919443,39.773091 c -0.296331,-0.0423 -0.558177,-0.178606 -0.753918,-0.392439 -0.112365,-0.122755 -0.180183,-0.234179 -0.230928,-0.379421 -0.223366,-0.639331 0.184487,-1.312603 0.886904,-1.464071 0.167429,-0.03611 0.464067,-0.02846 0.619979,0.01598 0.342601,0.09767 0.628665,0.337611 0.772174,0.647684 0.06958,0.15035 0.09519,0.27122 0.09549,0.450729 8.68e-4,0.52729 -0.387413,0.9809 -0.944289,1.103161 -0.118459,0.02601 -0.330596,0.03475 -0.445406,0.01836 z"
       id="path119"
       inkscape:connector-curvature="0" />
    <path
       style="fill:#0000ff;fill-opacity:1;stroke-width:0.10068061"
       d="m 34.22687,38.673341 c -1.272516,-0.443539 -2.04909,-1.542907 -2.030263,-2.874101 0.02288,-1.58701 1.379206,-2.806834 3.121956,-2.806834 0.877209,0 1.496804,0.21648 2.071009,0.723389 0.659347,0.582138 0.972171,1.168864 1.033799,1.938864 0.07342,0.921255 -0.168162,1.578605 -0.822081,2.234594 -0.873479,0.876107 -2.215802,1.187942 -3.374408,0.784114 z"
       id="path121"
       inkscape:connector-curvature="0" />
    <path
       style="fill:#0000ff;fill-opacity:1;stroke-width:0.00835217"
       d="m 39.620231,37.382762 c -0.27929,-0.04457 -0.467825,-0.273324 -0.431829,-0.523957 0.02488,-0.173231 0.150989,-0.320259 0.327427,-0.381738 0.07342,-0.02558 0.216614,-0.03172 0.292961,-0.01255 0.181105,0.04546 0.32787,0.187323 0.366894,0.354634 0.01623,0.06959 0.0071,0.194058 -0.0189,0.25728 -0.05604,0.136311 -0.166912,0.237828 -0.308664,0.282607 -0.06478,0.02046 -0.175861,0.03203 -0.227886,0.02373 z"
       id="path123"
       inkscape:connector-curvature="0" />
    <path
       style="fill:#0000ff;fill-opacity:1;stroke-width:0.03156727"
       d="m 78.850811,62.169582 c -0.343234,-0.07193 -0.681378,-0.326192 -0.826951,-0.621813 -0.06117,-0.124223 -0.07415,-0.20029 -0.07415,-0.434678 0,-0.255129 0.0094,-0.301132 0.09249,-0.451046 0.117599,-0.212268 0.320562,-0.399551 0.549114,-0.506692 0.159954,-0.07498 0.216354,-0.08398 0.526388,-0.08398 0.310665,0 0.366253,0.0089 0.527744,0.0846 0.227424,0.106594 0.462642,0.324848 0.561875,0.521352 0.0905,0.179211 0.121604,0.537569 0.06294,0.725129 -0.0951,0.304045 -0.399439,0.607156 -0.723049,0.720124 -0.17764,0.06201 -0.515854,0.08484 -0.696401,0.047 z"
       id="path125"
       inkscape:connector-curvature="0"
       transform="matrix(0.26458333,0,0,0.26458333,18.018832,20.061916)" />
    <path
       style="fill:#ff00ff;fill-opacity:1;stroke-width:0.06313454"
       d="M 1.9881041,32.999014 C 1.3253728,32.813126 0.73613319,32.344239 0.45950816,31.782635 0.25217208,31.361702 0.2521422,30.600659 0.4594452,30.179796 c 0.8394299,-1.704197 3.6077132,-1.739702 4.4786677,-0.05744 0.1767504,0.341396 0.2051872,0.460416 0.2051872,0.858798 0,0.398382 -0.028437,0.517403 -0.2051872,0.858799 -0.2467978,0.476692 -0.6932184,0.865338 -1.2252095,1.066645 -0.482329,0.182514 -1.2558272,0.223961 -1.7247993,0.09242 z"
       id="path127"
       inkscape:connector-curvature="0"
       transform="matrix(0.26458333,0,0,0.26458333,18.018832,20.061916)" />
    <path
       style="fill:#ff00ff;fill-opacity:1;stroke-width:0.06313454"
       d="M 6.3428563,29.463449 C 5.6607397,29.273013 4.8840538,28.652616 4.6132079,28.08185 L 4.5051762,27.854191 4.2086765,28.1008 C 3.6262382,28.585235 3.01809,28.778815 2.2589967,28.721405 1.4041291,28.656752 0.66894735,28.190649 0.27916593,27.466199 0.08356903,27.102662 0.06413051,27.018636 0.0626246,26.530166 0.0612058,26.069957 0.0858086,25.942944 0.23535825,25.63842 c 0.2151722,-0.438151 0.69150067,-0.893277 1.16923695,-1.117192 0.3260829,-0.152835 0.431375,-0.169204 1.0883821,-0.169204 0.6926405,0 0.7472244,0.0098 1.1430508,0.204637 0.2468355,0.121517 0.5332272,0.330308 0.7050804,0.514033 l 0.2894043,0.309397 0.174174,-0.251333 c 0.5913529,-0.853323 1.7031103,-1.314442 2.7402984,-1.136584 0.7594478,0.130231 1.3569858,0.496423 1.8075177,1.10771 0.6877871,0.933198 0.7083201,2.25253 0.050496,3.244529 -0.2716584,0.40966 -0.8335009,0.859443 -1.2923753,1.034611 -0.4606302,0.175838 -1.2972271,0.215793 -1.7677669,0.08442 z"
       id="path129"
       inkscape:connector-curvature="0"
       transform="matrix(0.26458333,0,0,0.26458333,18.018832,20.061916)" />
    <path
       style="fill:#ff00ff;fill-opacity:1;stroke-width:0.06313454"
       d="m 10.468569,28.903689 c -0.172619,-0.15019 -0.175941,-0.163527 -0.08313,-0.333748 0.130693,-0.239706 0.447327,-0.278288 0.591744,-0.07211 0.121411,0.17334 0.125759,0.249246 0.02185,0.381433 -0.144744,0.184132 -0.336736,0.19297 -0.530459,0.02442 z"
       id="path131"
       inkscape:connector-curvature="0"
       transform="matrix(0.26458333,0,0,0.26458333,18.018832,20.061916)" />
    <path
       style="fill:#ff00ff;fill-opacity:1;stroke-width:0.06313454"
       d="m 12.306458,28.052992 c -0.312411,-0.141909 -0.569254,-0.436429 -0.66799,-0.765979 -0.194635,-0.649634 0.474469,-1.325058 1.312659,-1.325058 0.345188,0 0.87401,0.277151 1.064936,0.558123 0.182648,0.268791 0.210228,0.731227 0.06084,1.020112 -0.277487,0.5366 -1.15714,0.791388 -1.770445,0.512802 z"
       id="path133"
       inkscape:connector-curvature="0"
       transform="matrix(0.26458333,0,0,0.26458333,18.018832,20.061916)" />
    <path
       style="fill:#ff00ff;fill-opacity:1;stroke-width:0.06313454"
       d="M 13.35079,24.698676 C 11.975762,24.509856 10.494155,23.981141 9.3691727,23.27783 8.8576692,22.95805 8.085082,22.320736 7.5995264,21.818031 6.0523918,20.216257 5.2031442,18.288269 5.0448243,16.018266 c -0.035982,-0.515911 0.039733,-1.638004 0.1365581,-2.023786 0.033674,-0.134168 0.017203,-0.154355 -0.1259398,-0.154355 -0.3626084,0 -0.5551042,-0.486991 -0.2880327,-0.728687 0.078016,-0.0706 0.2323527,-0.119501 0.3896457,-0.123447 0.2551985,-0.0064 0.2626704,-0.01304 0.3699122,-0.328539 0.7308865,-2.150232 2.5193058,-4.1487982 4.6865742,-5.2372655 1.59453,-0.8008212 3.658524,-1.1725814 5.410091,-0.9744489 2.339238,0.2646082 4.349763,1.2279743 5.936479,2.8445323 1.33354,1.3586191 2.192577,3.0508781 2.500528,4.9259111 0.147908,0.900574 0.08716,2.532401 -0.125932,3.382938 -0.888551,3.546524 -3.678374,6.192629 -7.354046,6.9752 -0.695109,0.147992 -2.535484,0.217711 -3.229872,0.122357 z"
       id="path135"
       inkscape:connector-curvature="0"
       transform="matrix(0.26458333,0,0,0.26458333,18.018832,20.061916)" />
    <path
       style="fill:#ff00ff;fill-opacity:1;stroke-width:0.06313454"
       d="M 4.0120056,22.953795 C 3.6339562,22.765405 3.3490731,22.388399 3.2812013,21.986669 3.1125615,20.988498 4.2996687,20.161114 5.2695692,20.600825 c 0.5437279,0.246503 0.820749,0.650847 0.820749,1.197978 0,1.019604 -1.1109977,1.637025 -2.0783126,1.154992 z"
       id="path137"
       inkscape:connector-curvature="0"
       transform="matrix(0.26458333,0,0,0.26458333,18.018832,20.061916)" />
    <path
       style="fill:#ff00ff;fill-opacity:1;stroke-width:0.06313454"
       d="M 4.4488203,19.92368 C 4.0624129,19.793629 3.8806095,19.563164 3.8806095,19.203382 c 0,-0.141967 0.061407,-0.26026 0.2146574,-0.41351 0.1864763,-0.186476 0.2558112,-0.214657 0.5281293,-0.214657 0.9198229,0 1.0163276,1.186718 0.1095295,1.346884 -0.104172,0.0184 -0.2320194,0.01911 -0.2841054,0.0016 z"
       id="path139"
       inkscape:connector-curvature="0"
       transform="matrix(0.26458333,0,0,0.26458333,18.018832,20.061916)" />
    <path
       style="fill:#ff00ff;fill-opacity:1;stroke-width:0.06313454"
       d="M 1.3676055,17.195881 C 0.28480986,16.811742 0.16644792,15.558136 1.1618236,15.016384 c 0.2947679,-0.160432 0.378757,-0.176925 0.794181,-0.155947 0.3916429,0.01978 0.5072899,0.05316 0.7368536,0.212681 0.4845899,0.336743 0.6869675,0.977114 0.4543191,1.437576 -0.3296589,0.652466 -1.0691884,0.937207 -1.7795718,0.685187 z"
       id="path141"
       inkscape:connector-curvature="0"
       transform="matrix(0.26458333,0,0,0.26458333,18.018832,20.061916)" />
    <path
       style="fill:#ff00ff;fill-opacity:1;stroke-width:0.06313454"
       d="M 2.555235,13.234476 C 2.1267425,13.048658 1.7958559,12.589891 1.7985564,12.185358 c 0.00414,-0.619683 0.619711,-1.187135 1.2865089,-1.185935 1.097499,0.002 1.7011495,1.163245 0.9967149,1.917428 -0.3615465,0.38708 -1.040583,0.528365 -1.5265452,0.317625 z"
       id="path143"
       inkscape:connector-curvature="0"
       transform="matrix(0.26458333,0,0,0.26458333,18.018832,20.061916)" />
    <path
       style="fill:#ff00ff;fill-opacity:1;stroke-width:0.06313454"
       d="M 4.8753359,10.260678 C 4.6490255,10.115473 4.4919589,9.781742 4.5422232,9.5528899 4.5994831,9.2921872 4.8964769,9.0375862 5.1891151,8.9983352 5.8672941,8.9073723 6.2911269,9.6283876 5.849814,10.122302 5.6259865,10.372809 5.1544542,10.439766 4.8753359,10.260678 Z"
       id="path145"
       inkscape:connector-curvature="0"
       transform="matrix(0.26458333,0,0,0.26458333,18.018832,20.061916)" />
    <path
       style="fill:#ff00ff;fill-opacity:1;stroke-width:0.06313454"
       d="M 2.7671915,7.8787533 C 1.867435,7.7088484 0.92276882,7.0359253 0.51131249,6.2718014 -0.40844335,4.5637042 0.52070266,2.5298018 2.4873251,1.9463059 2.9259256,1.8161734 3.8617898,1.8136822 4.3519112,1.9413426 5.5118534,2.2434692 6.4725315,3.2723116 6.6700106,4.4239219 7.0252011,6.4952318 4.9884405,8.298201 2.7671915,7.8787533 Z"
       id="path147"
       inkscape:connector-curvature="0"
       transform="matrix(0.26458333,0,0,0.26458333,18.018832,20.061916)" />
    <path
       style="fill:#ff00ff;fill-opacity:1;stroke-width:0.06313454"
       d="M 7.9156923,7.445858 C 7.2141762,6.9731063 7.5564961,6.0114423 8.4262959,6.0114423 c 0.4831368,0 0.8834115,0.357579 0.8834115,0.7891817 0,0.6261087 -0.8432315,1.0164069 -1.3940151,0.645234 z"
       id="path149"
       inkscape:connector-curvature="0"
       transform="matrix(0.26458333,0,0,0.26458333,18.018832,20.061916)" />
    <path
       style="fill:#ff00ff;fill-opacity:1;stroke-width:0.06313454"
       d="M 8.6620026,3.980318 C 8.1505708,3.8711129 7.8580851,3.513958 7.8580851,2.9986528 c 0,-0.4020235 0.1866557,-0.6939703 0.5663143,-0.8857679 C 8.7645226,1.9410599 9.0050699,1.9353941 9.3479926,2.0911309 9.8804523,2.332945 10.111217,3.0342337 9.8050956,3.4802559 9.5158768,3.9016506 9.1149601,4.0770372 8.6620026,3.980318 Z"
       id="path151"
       inkscape:connector-curvature="0"
       transform="matrix(0.26458333,0,0,0.26458333,18.018832,20.061916)" />
    <path
       style="fill:#ff00ff;fill-opacity:1;stroke-width:0.06313454"
       d="m 10.585497,5.8094118 c -0.09739,-0.097385 -0.09739,-0.3193028 0,-0.4166879 0.119095,-0.119095 0.354528,-0.089233 0.431581,0.054741 0.140219,0.2620031 -0.225126,0.5684015 -0.431581,0.3619469 z"
       id="path153"
       inkscape:connector-curvature="0"
       transform="matrix(0.26458333,0,0,0.26458333,18.018832,20.061916)" />
    <path
       style="fill:#ff00ff;fill-opacity:1;stroke-width:0.06313454"
       d="M 12.182801,5.1980081 C 11.655819,5.0596297 11.220587,4.700086 11.030317,4.2459437 10.880355,3.8880082 10.948848,3.2933404 11.17751,2.9679936 c 0.652861,-0.9289082 2.115334,-0.9289082 2.768196,0 0.228662,0.3253468 0.297155,0.9200146 0.147192,1.2779501 -0.287691,0.6866692 -1.196226,1.1395174 -1.910097,0.9520644 z"
       id="path155"
       inkscape:connector-curvature="0"
       transform="matrix(0.26458333,0,0,0.26458333,18.018832,20.061916)" />
    <path
       style="fill:#ff00ff;fill-opacity:1;stroke-width:0.06313454"
       d="M 16.905296,5.3157381 C 16.205688,5.0875415 15.649363,4.5372257 15.460087,3.8861399 15.213806,3.0389632 15.705683,2.0832101 16.605684,1.6601595 17.823609,1.0876674 19.31697,1.5340303 19.857568,2.6321418 20.0383,2.9992595 20.05477,3.0812129 20.031696,3.4985905 19.988234,4.2847499 19.636552,4.7889294 18.866001,5.1697563 18.445817,5.3774225 18.326393,5.4071334 17.843475,5.4241442 17.425852,5.438855 17.204245,5.4132485 16.905296,5.3157381 Z"
       id="path157"
       inkscape:connector-curvature="0"
       transform="matrix(0.26458333,0,0,0.26458333,18.018832,20.061916)" />
    <path
       style="fill:#ff00ff;fill-opacity:1;stroke-width:0.06313454"
       d="M 21.591056,8.2465291 C 21.317194,8.1462871 20.96369,7.8394509 20.834449,7.5898057 20.60859,7.1535288 20.671407,6.668129 21.002531,6.2909993 c 0.318626,-0.3628951 0.638491,-0.4973691 1.187093,-0.4990645 0.556025,-0.00172 0.903302,0.1560748 1.22548,0.556824 0.178083,0.2215129 0.195047,0.2827796 0.195047,0.7044033 0,0.4196678 -0.01756,0.4839181 -0.192569,0.7044033 -0.277461,0.3495674 -0.782032,0.59099 -1.223495,0.5854061 -0.193437,-0.00245 -0.4648,-0.045846 -0.603031,-0.096442 z"
       id="path159"
       inkscape:connector-curvature="0"
       transform="matrix(0.26458333,0,0,0.26458333,18.018832,20.061916)" />
    <path
       style="fill:#ff00ff;fill-opacity:1;stroke-width:0.06313454"
       d="M 25.074776,6.0054112 C 24.398535,5.8462686 23.674712,5.3201711 23.375412,4.7702585 22.736425,3.5962287 23.251699,2.2131352 24.549411,1.6190231 c 1.070837,-0.4902454 2.335687,-0.3001803 3.154246,0.4739785 0.185167,0.1751233 0.419479,0.4678687 0.520693,0.6505454 0.168881,0.3048051 0.184022,0.3840979 0.183977,0.9634849 -4.4e-5,0.5699535 -0.0173,0.6641132 -0.177483,0.9683261 -0.334319,0.6349336 -0.954485,1.1094127 -1.716504,1.3132705 -0.352844,0.094394 -1.074045,0.1028016 -1.439564,0.016783 z"
       id="path161"
       inkscape:connector-curvature="0"
       transform="matrix(0.26458333,0,0,0.26458333,18.018832,20.061916)" />
    <path
       style="fill:#ff00ff;fill-opacity:1;stroke-width:0.06313454"
       d="m 28.439943,14.494739 c -2.099025,-0.401252 -3.543431,-2.420837 -3.132252,-4.379552 0.617384,-2.9410071 4.234361,-4.0957129 6.456215,-2.0611214 0.538978,0.4935528 0.866899,1.0016113 1.072872,1.6622407 0.143953,0.4617077 0.159696,0.6016407 0.135291,1.2025257 -0.03061,0.753693 -0.154576,1.186939 -0.506563,1.770417 -0.436998,0.724397 -1.30117,1.399919 -2.130562,1.665458 -0.40344,0.129166 -1.520162,0.211686 -1.895001,0.140032 z"
       id="path163"
       inkscape:connector-curvature="0"
       transform="matrix(0.26458333,0,0,0.26458333,18.018832,20.061916)" />
    <path
       style="fill:#ff00ff;fill-opacity:1;stroke-width:0.06313454"
       d="m 25.483244,16.991102 c -0.825382,-0.41897 -0.829475,-1.533675 -0.0072,-1.953183 0.288514,-0.147189 0.84834,-0.166227 1.15078,-0.03913 0.477692,0.200737 0.781435,0.744364 0.676317,1.210445 -0.06618,0.293446 -0.199592,0.488542 -0.480675,0.702935 -0.321876,0.245507 -0.9394,0.281905 -1.339251,0.07894 z"
       id="path165"
       inkscape:connector-curvature="0"
       transform="matrix(0.26458333,0,0,0.26458333,18.018832,20.061916)" />
    <path
       style="fill:#ff00ff;fill-opacity:1;stroke-width:0.06313454"
       d="M 35.395332,8.7594796 C 34.348922,8.522405 33.23179,7.6578225 32.802278,6.7526349 32.115293,5.3048274 32.423358,3.7489556 33.61556,2.6451866 c 1.54942,-1.434489 4.037544,-1.3857811 5.522347,0.1081061 0.72437,0.7288021 1.045059,1.4864352 1.045059,2.468968 0,1.5633735 -0.989839,2.8795421 -2.570937,3.4185228 -0.60727,0.2070125 -1.593735,0.259834 -2.216697,0.1186961 z"
       id="path167"
       inkscape:connector-curvature="0"
       transform="matrix(0.26458333,0,0,0.26458333,18.018832,20.061916)" />
    <path
       style="fill:#892ca0;fill-opacity:1;stroke-width:0.08928572"
       d="M 12.666233,24.557386 C 11.314637,24.250538 10.233962,23.802013 9.2122582,23.123841 6.2779524,21.176152 4.6702676,17.706614 5.1477418,14.352228 5.2115307,13.904094 5.2035014,13.875424 4.9849736,13.771035 4.7438829,13.655868 4.6301627,13.305703 4.7839178,13.151948 4.8326329,13.103233 4.9983603,13.037554 5.1522009,13.005995 5.403962,12.95435 5.4621633,12.874702 5.7346704,12.208893 6.3210389,10.776236 7.6119747,9.1667365 8.9202056,8.2372639 11.8465,6.1581885 15.807528,5.8618552 19.040821,7.4801184 c 1.934641,0.9682879 3.681926,2.8573046 4.452827,4.8140196 0.487257,1.236763 0.614798,2.034693 0.568434,3.556264 -0.03527,1.157601 -0.08071,1.512253 -0.277852,2.1686 -0.922911,3.072712 -3.320466,5.406657 -6.538017,6.364554 -0.702198,0.209052 -0.981706,0.240475 -2.401821,0.270024 -1.186234,0.02468 -1.756691,-5.35e-4 -2.178159,-0.09619 z"
       id="path171"
       inkscape:connector-curvature="0"
       transform="matrix(0.26458333,0,0,0.26458333,18.018832,20.061916)" />
    <path
       style="fill:#892ca0;fill-opacity:1;stroke-width:0.04464286"
       d="m 12.448145,28.08405 c -0.304892,-0.109377 -0.47868,-0.241332 -0.641418,-0.487021 -0.2323,-0.350709 -0.240051,-0.661266 -0.02564,-1.027136 0.189373,-0.32314 0.712556,-0.595827 1.143167,-0.595827 0.22528,0 0.623238,0.153205 0.850457,0.327408 0.461023,0.353452 0.51629,1.006594 0.121422,1.434974 -0.332383,0.360594 -0.979047,0.51583 -1.447991,0.347602 z"
       id="path173"
       inkscape:connector-curvature="0"
       transform="matrix(0.26458333,0,0,0.26458333,18.018832,20.061916)" />
    <path
       style="fill:#892ca0;fill-opacity:1;stroke-width:0.04464286"
       d="m 10.502864,28.907763 c -0.198607,-0.133841 -0.209825,-0.22649 -0.04713,-0.389189 0.173887,-0.173887 0.365573,-0.180153 0.494565,-0.01617 0.120746,0.153504 0.117151,0.290102 -0.0108,0.410304 -0.131988,0.123997 -0.247237,0.12269 -0.436641,-0.0049 z"
       id="path175"
       inkscape:connector-curvature="0"
       transform="matrix(0.26458333,0,0,0.26458333,18.018832,20.061916)" />
    <path
       style="fill:#892ca0;fill-opacity:1;stroke-width:0.04464286"
       d="M 6.5830762,29.493631 C 6.1997986,29.438828 5.7349561,29.215667 5.3285428,28.891355 4.9736294,28.60814 4.8044954,28.412729 4.6161111,28.068242 L 4.5000874,27.856076 4.1888686,28.098928 c -0.3573197,0.278826 -0.6666235,0.442362 -1.0090295,0.533497 -0.3104232,0.08262 -1.063877,0.08207 -1.3760578,-0.001 C 1.1198127,28.449397 0.56245161,27.997964 0.25604725,27.377834 0.08517778,27.032013 0.08301195,27.021151 0.08339645,26.512003 0.08376519,26.02372 0.0914577,25.980145 0.22851044,25.689983 0.43289153,25.257276 0.90149447,24.797151 1.3753346,24.563906 l 0.3548275,-0.174662 h 0.7635592 0.7635592 l 0.3499685,0.172964 c 0.2416058,0.119408 0.455706,0.273985 0.6914589,0.499222 l 0.3414907,0.326258 0.1544397,-0.226471 c 0.4782464,-0.701301 1.4268147,-1.19453 2.2972973,-1.19453 0.7178219,0 1.4580071,0.31 1.9639094,0.822512 0.5486602,0.555829 0.7970111,1.167774 0.797925,1.966117 8.794e-4,0.768904 -0.2619076,1.427639 -0.7752273,1.943271 -0.494291,0.496518 -0.935425,0.715394 -1.6131067,0.800368 -0.4178629,0.0524 -0.4813629,0.05201 -0.8823598,-0.0053 z"
       id="path177"
       inkscape:connector-curvature="0"
       transform="matrix(0.26458333,0,0,0.26458333,18.018832,20.061916)" />
    <path
       style="fill:#892ca0;fill-opacity:1;stroke-width:0.04464286"
       d="M 2.1588999,33.022533 C 1.7696978,32.960225 1.224405,32.666905 0.89575532,32.343074 0.49082701,31.944082 0.3649885,31.666333 0.33833095,31.112736 c -0.025692,-0.533545 0.046146,-0.81527 0.30780337,-1.207105 0.42541128,-0.637058 1.20356018,-1.003584 2.11544418,-0.996422 0.9979436,0.0078 1.790296,0.471116 2.1904201,1.280713 0.1588558,0.321422 0.1669169,0.359105 0.1669169,0.780284 0,0.416859 -0.00947,0.462485 -0.1630544,0.785898 -0.4527003,0.953258 -1.5760385,1.461891 -2.7969612,1.266429 z"
       id="path179"
       inkscape:connector-curvature="0"
       transform="matrix(0.26458333,0,0,0.26458333,18.018832,20.061916)" />
    <path
       style="fill:#892ca0;fill-opacity:1;stroke-width:0.04464286"
       d="M 4.3791886,23.070961 C 4.1347789,23.009581 3.8545816,22.859742 3.6839315,22.699164 3.2820837,22.321034 3.1747083,21.710348 3.4291302,21.25001 c 0.2630443,-0.47594 0.7205881,-0.741944 1.2744126,-0.740912 0.7280403,0.0014 1.2866877,0.476413 1.3680443,1.163342 0.034593,0.292082 -0.073187,0.664325 -0.2654983,0.916963 -0.2839642,0.373042 -0.9559569,0.59983 -1.4269002,0.481558 z"
       id="path181"
       inkscape:connector-curvature="0"
       transform="matrix(0.26458333,0,0,0.26458333,18.018832,20.061916)" />
    <path
       style="fill:#892ca0;fill-opacity:1;stroke-width:0.04464286"
       d="M 4.2578544,19.819983 C 3.9269803,19.642534 3.8032775,19.243737 3.9869324,18.946577 4.1418313,18.695945 4.299026,18.607994 4.5920803,18.607994 c 0.5053314,0 0.7536458,0.232981 0.724959,0.680192 -0.012487,0.194663 -0.042523,0.284381 -0.1252295,0.374057 -0.2238188,0.242682 -0.6434289,0.313551 -0.9339554,0.15774 z"
       id="path183"
       inkscape:connector-curvature="0"
       transform="matrix(0.26458333,0,0,0.26458333,18.018832,20.061916)" />
    <path
       style="fill:#892ca0;fill-opacity:1;stroke-width:0.04464286"
       d="M 1.4180331,17.194345 C 0.89098465,17.038736 0.5061712,16.563002 0.50809465,16.069414 c 0.001712,-0.439374 0.22371126,-0.789973 0.65983805,-1.042069 0.2430762,-0.140507 0.2741645,-0.146874 0.7007886,-0.14352 0.4886363,0.0038 0.6366174,0.05029 0.9296085,0.291799 0.2656552,0.218975 0.4065682,0.53506 0.4082617,0.915779 0.00132,0.297144 -0.00994,0.33472 -0.1699936,0.567108 -0.3615235,0.524916 -0.9715409,0.726866 -1.6185648,0.535834 z"
       id="path185"
       inkscape:connector-curvature="0"
       transform="matrix(0.26458333,0,0,0.26458333,18.018832,20.061916)" />
    <path
       style="fill:#892ca0;fill-opacity:1;stroke-width:0.04464286"
       d="M 2.8242105,13.29441 C 2.7113367,13.275598 2.5559631,13.227616 2.4789359,13.187784 2.1795695,13.032976 1.8985966,12.660901 1.8255466,12.322541 1.7440216,11.944927 2.038851,11.423073 2.4713999,11.179369 c 0.2211188,-0.124582 0.2832709,-0.138339 0.625,-0.138339 0.3108186,0 0.4158061,0.0189 0.5803571,0.104447 0.5107321,0.265535 0.7597923,0.728659 0.6649308,1.236427 -0.080547,0.431148 -0.5187409,0.831992 -0.9772236,0.893929 -0.110605,0.01494 -0.2312339,0.03293 -0.2680643,0.03997 -0.03683,0.007 -0.1593156,-0.0026 -0.2721894,-0.0214 z"
       id="path187"
       inkscape:connector-curvature="0"
       transform="matrix(0.26458333,0,0,0.26458333,18.018832,20.061916)" />
    <path
       style="fill:#892ca0;fill-opacity:1;stroke-width:0.04464286"
       d="M 2.906947,7.889905 C 2.2341826,7.7913621 1.5625465,7.4366836 1.0172839,6.8920099 0.44798637,6.3233269 0.18097178,5.6810406 0.18097178,4.8803157 c 0,-0.8156407 0.26604957,-1.4360168 0.88287692,-2.058698 C 1.4064164,2.475799 1.5306108,2.3834899 1.8910428,2.2067953 2.410585,1.9520999 2.7912874,1.8684732 3.4312213,1.8684732 c 0.6349995,0 1.0216117,0.08376 1.5178572,0.3288458 C 5.6018838,2.5197265 6.1388271,3.0786581 6.4395088,3.748783 6.8341597,4.6283365 6.7563218,5.6193337 6.2292021,6.4263211 5.5292887,7.4978456 4.2070602,8.0803389 2.906947,7.889905 Z"
       id="path189"
       inkscape:connector-curvature="0"
       transform="matrix(0.26458333,0,0,0.26458333,18.018832,20.061916)" />
    <path
       style="fill:#892ca0;fill-opacity:1;stroke-width:0.04464286"
       d="M 4.9364974,10.274821 C 4.7635669,10.189587 4.6406703,10.029607 4.5819964,9.8133514 4.4390735,9.2865775 5.1142378,8.8237455 5.6401529,9.0879744 6.1254757,9.331809 6.1151286,10.040563 5.6229831,10.264071 5.3979815,10.366256 5.1305064,10.370444 4.9364974,10.274821 Z"
       id="path191"
       inkscape:connector-curvature="0"
       transform="matrix(0.26458333,0,0,0.26458333,18.018832,20.061916)" />
    <path
       style="fill:#892ca0;fill-opacity:1;stroke-width:0.04464286"
       d="M 8.1317284,7.5370832 C 7.775741,7.429773 7.5369861,7.0846309 7.5713495,6.727004 7.6195497,6.2253749 8.1330678,5.9169511 8.6764517,6.0632692 8.9410497,6.1345181 9.2376074,6.427366 9.2813653,6.6606158 9.3880395,7.229238 8.7426805,7.7212509 8.1317284,7.5370832 Z"
       id="path193"
       inkscape:connector-curvature="0"
       transform="matrix(0.26458333,0,0,0.26458333,18.018832,20.061916)" />
    <path
       style="fill:#892ca0;fill-opacity:1;stroke-width:0.04464286"
       d="m 10.656271,5.8370338 c -0.232736,-0.086095 -0.136757,-0.4879681 0.116541,-0.4879681 0.234948,0 0.338252,0.1952134 0.204418,0.3862885 -0.07845,0.1120067 -0.194047,0.1486271 -0.320959,0.1016796 z"
       id="path195"
       inkscape:connector-curvature="0"
       transform="matrix(0.26458333,0,0,0.26458333,18.018832,20.061916)" />
    <path
       style="fill:#892ca0;fill-opacity:1;stroke-width:0.04464286"
       d="m 25.596741,17.031376 c -0.225688,-0.07187 -0.605771,-0.459038 -0.665436,-0.677846 -0.125671,-0.460871 0.01864,-0.927116 0.366044,-1.182596 0.247684,-0.182149 0.468498,-0.235118 0.903356,-0.216696 0.310536,0.01315 0.394055,0.03478 0.581121,0.150472 0.431454,0.266833 0.624626,0.826812 0.446298,1.293758 -0.09281,0.243017 -0.437287,0.564771 -0.683697,0.638598 -0.216552,0.06488 -0.735859,0.06176 -0.947686,-0.0057 z"
       id="path197"
       inkscape:connector-curvature="0"
       transform="matrix(0.26458333,0,0,0.26458333,18.018832,20.061916)" />
    <path
       style="fill:#892ca0;fill-opacity:1;stroke-width:0.04464286"
       d="m 28.118721,14.40936 c -1.506979,-0.44196 -2.63086,-1.706145 -2.83816,-3.192475 -0.12302,-0.882038 0.174167,-1.9048878 0.783561,-2.6968404 0.494672,-0.6428639 1.254199,-1.1267596 2.147656,-1.3682744 0.23935,-0.0647 0.454199,-0.082575 0.95605,-0.079542 0.566547,0.00342 0.696385,0.01878 1.040512,0.1230656 1.218127,0.3691459 2.147504,1.2391941 2.581991,2.4171652 0.145211,0.393694 0.148171,0.41617 0.14697,1.116071 -0.0014,0.838905 -0.05404,1.092096 -0.353696,1.702376 -0.441071,0.898295 -1.514073,1.753101 -2.461685,1.9611 -0.168724,0.03703 -0.618154,0.07671 -0.998735,0.08817 -0.605944,0.01824 -0.730812,0.0094 -1.004464,-0.07081 z"
       id="path199"
       inkscape:connector-curvature="0"
       transform="matrix(0.26458333,0,0,0.26458333,18.018832,20.061916)" />
    <path
       style="fill:#892ca0;fill-opacity:1;stroke-width:0.04464286"
       d="M 35.529435,8.7675202 C 34.647478,8.5926559 33.770199,8.0504639 33.185749,7.3190327 32.727791,6.7459032 32.51708,6.1604563 32.484765,5.3713872 c -0.02645,-0.6457725 0.04619,-1.0473083 0.277629,-1.5346458 0.569855,-1.1999512 1.725025,-2.0228764 3.079541,-2.1938169 1.772567,-0.2236984 3.57084,0.838834 4.147979,2.4508845 0.132776,0.3708688 0.137736,0.4112432 0.137736,1.1213282 0,0.7114007 -0.0048,0.7498884 -0.138908,1.1247281 -0.427622,1.1948138 -1.488203,2.1140634 -2.748425,2.3821732 -0.464737,0.098872 -1.326107,0.1217705 -1.710882,0.045482 z"
       id="path201"
       inkscape:connector-curvature="0"
       transform="matrix(0.26458333,0,0,0.26458333,18.018832,20.061916)" />
    <path
       style="fill:#892ca0;fill-opacity:1;stroke-width:0.04464286"
       d="M 25.209845,6.017509 C 24.468132,5.8837349 23.614522,5.2650513 23.337846,4.6607127 23.156949,4.2655806 23.083563,3.8249817 23.139065,3.4672611 c 0.127782,-0.8235775 0.583597,-1.4275093 1.358829,-1.8003808 0.421894,-0.2029231 0.810153,-0.2895661 1.30118,-0.290369 0.481345,-7.87e-4 0.818902,0.078048 1.27054,0.296731 0.421687,0.2041805 0.981097,0.7496252 1.183036,1.153502 0.129826,0.259653 0.133906,0.2870001 0.133194,0.8928571 l -7.37e-4,0.625 -0.171762,0.3228169 c -0.312151,0.5866692 -0.976054,1.1086315 -1.635141,1.2855523 -0.310119,0.083246 -1.066768,0.1189331 -1.36836,0.064538 z"
       id="path203"
       inkscape:connector-curvature="0"
       transform="matrix(0.26458333,0,0,0.26458333,18.018832,20.061916)" />
    <path
       style="fill:#892ca0;fill-opacity:1;stroke-width:0.04464286"
       d="m 21.842848,8.2976126 c -0.410105,-0.074587 -0.859686,-0.417068 -1.02834,-0.7833683 -0.261988,-0.5690136 0.06699,-1.3059005 0.713927,-1.599129 0.306293,-0.1388301 1.006926,-0.1334169 1.331972,0.010291 0.246089,0.1087999 0.60752,0.454332 0.683058,0.6530123 0.0242,0.06366 0.04393,0.2902188 0.04384,0.5034642 -1.29e-4,0.2982385 -0.01915,0.4186276 -0.08242,0.5216473 -0.318399,0.5184192 -1.019058,0.8110219 -1.662034,0.6940826 z"
       id="path205"
       inkscape:connector-curvature="0"
       transform="matrix(0.26458333,0,0,0.26458333,18.018832,20.061916)" />
    <path
       style="fill:#892ca0;fill-opacity:1;stroke-width:0.04464286"
       d="M 16.890012,5.2941888 C 16.299164,5.0885085 15.834359,4.6807967 15.578426,4.1437086 15.453723,3.882015 15.44015,3.8116709 15.44015,3.4271076 c 0,-0.4019775 0.0095,-0.4456387 0.16567,-0.7616338 0.820624,-1.6604187 3.466879,-1.6451243 4.259837,0.02462 0.159612,0.3360986 0.161784,0.3481591 0.139501,0.7747461 -0.0314,0.6010727 -0.143817,0.8798663 -0.497349,1.233398 -0.196158,0.1961587 -0.387585,0.3302241 -0.675184,0.4728643 l -0.401404,0.1990841 -0.625,0.012688 c -0.554565,0.011258 -0.657818,0.00126 -0.916209,-0.088686 z"
       id="path207"
       inkscape:connector-curvature="0"
       transform="matrix(0.26458333,0,0,0.26458333,18.018832,20.061916)" />
    <path
       style="fill:#892ca0;fill-opacity:1;stroke-width:0.04464286"
       d="m 11.975527,5.1100388 c -0.422342,-0.1737357 -0.697386,-0.419107 -0.896925,-0.8001607 -0.140168,-0.267675 -0.138898,-0.8104474 0.0026,-1.1304026 0.420934,-0.9515126 1.837067,-1.1888901 2.635751,-0.4418145 0.305401,0.2856675 0.423735,0.5720752 0.424149,1.0265833 3.48e-4,0.3841116 -0.06967,0.5789893 -0.311145,0.8659655 -0.425303,0.5054442 -1.264416,0.7225571 -1.854475,0.479829 z"
       id="path209"
       inkscape:connector-curvature="0"
       transform="matrix(0.26458333,0,0,0.26458333,18.018832,20.061916)" />
    <path
       style="fill:#892ca0;fill-opacity:1;stroke-width:0.04464286"
       d="M 8.6669186,3.9681908 C 8.4094257,3.9167019 8.0942082,3.6982556 7.9919161,3.5004127 7.8797547,3.2834817 7.845457,2.9121033 7.917441,2.6939896 8.0399927,2.3226546 8.4954886,2.0017237 8.8999713,2.0017237 c 0.68543,0 1.2088267,0.7262528 0.9575589,1.3286866 -0.1889845,0.4531052 -0.71229,0.7334267 -1.1906116,0.6377805 z"
       id="path211"
       inkscape:connector-curvature="0"
       transform="matrix(0.26458333,0,0,0.26458333,18.018832,20.061916)" />
  </g>
</svg>
