<?xml version="1.0" encoding="UTF-8" standalone="no"?>
<!-- Created with Inkscape (http://www.inkscape.org/) -->

<svg
   xmlns:dc="http://purl.org/dc/elements/1.1/"
   xmlns:cc="http://creativecommons.org/ns#"
   xmlns:rdf="http://www.w3.org/1999/02/22-rdf-syntax-ns#"
   xmlns:svg="http://www.w3.org/2000/svg"
   xmlns="http://www.w3.org/2000/svg"
   xmlns:sodipodi="http://sodipodi.sourceforge.net/DTD/sodipodi-0.dtd"
   xmlns:inkscape="http://www.inkscape.org/namespaces/inkscape"
   width="24"
   height="24"
   viewBox="0 0 6.3499998 6.3500001"
   version="1.1"
   id="svg8"
   inkscape:version="0.92.5 (2060ec1f9f, 2020-04-08)"
   sodipodi:docname="blobogram.svg">
  <defs
     id="defs2" />
  <sodipodi:namedview
     id="base"
     pagecolor="#ffffff"
     bordercolor="#666666"
     borderopacity="1.0"
     inkscape:pageopacity="0.0"
     inkscape:pageshadow="2"
     inkscape:zoom="32"
     inkscape:cx="10.124173"
     inkscape:cy="13.35323"
     inkscape:document-units="mm"
     inkscape:current-layer="layer1"
     showgrid="false"
     fit-margin-top="0"
     fit-margin-left="0"
     fit-margin-right="0"
     fit-margin-bottom="0"
     inkscape:window-width="1918"
     inkscape:window-height="1058"
     inkscape:window-x="0"
     inkscape:window-y="0"
     inkscape:window-maximized="0"
     units="px" />
  <metadata
     id="metadata5">
    <rdf:RDF>
      <cc:Work
         rdf:about="">
        <dc:format>image/svg+xml</dc:format>
        <dc:type
           rdf:resource="http://purl.org/dc/dcmitype/StillImage" />
        <dc:title></dc:title>
      </cc:Work>
    </rdf:RDF>
  </metadata>
  <g
     inkscape:label="Layer 1"
     inkscape:groupmode="layer"
     id="layer1"
     transform="translate(-31.85003,-21.900354)">
    <ellipse
       style="fill:#ffd42a;fill-opacity:1;stroke-width:0.07725267"
       id="path10"
       cx="34.991173"
       cy="25.282068"
       rx="2.9978504"
       ry="2.9048724" />
    <ellipse
       style="fill:#c83737;fill-opacity:1;stroke-width:0.07725267"
       id="path12"
       cx="37.096535"
       cy="22.841984"
       rx="0.9635455"
       ry="0.88877374" />
    <ellipse
       style="fill:#c83737;fill-opacity:1;stroke-width:0.07725267"
       id="path14"
       cx="35.716194"
       cy="22.222927"
       rx="0.34687638"
       ry="0.31600845" />
    <ellipse
       style="fill:#c83737;fill-opacity:1;stroke-width:0.07725267"
       id="path16"
       cx="36.008289"
       cy="22.564892"
       rx="0.096354559"
       ry="0.091346182" />
    <ellipse
       style="fill:#c83737;fill-opacity:1;stroke-width:0.07725267"
       id="path32"
       cx="37.732475"
       cy="24.273899"
       rx="0.34687638"
       ry="0.32588369" />
    <ellipse
       style="fill:#c83737;fill-opacity:1;stroke-width:0.07725267"
       id="path34"
       cx="37.019451"
       cy="24.066517"
       rx="0.23125096"
       ry="0.21725582" />
    <ellipse
       style="fill:#c83737;fill-opacity:1;stroke-width:0.07725267"
       id="path36"
       cx="37.968544"
       cy="23.82951"
       rx="0.21679775"
       ry="0.21231815" />
    <ellipse
       style="fill:#c83737;fill-opacity:1;stroke-width:0.07725267"
       id="path38"
       cx="37.270222"
       cy="24.770573"
       rx="0.29637837"
       ry="0.2740775" />
    <ellipse
       style="fill:#c83737;fill-opacity:1;stroke-width:0.07725267"
       id="path40"
       cx="35.686131"
       cy="22.956772"
       rx="0.39517117"
       ry="0.37009192" />
    <ellipse
       style="fill:#c83737;fill-opacity:1;stroke-width:0.07725267"
       id="path42"
       cx="37.975773"
       cy="24.841726"
       rx="0.16862048"
       ry="0.15553541" />
    <ellipse
       style="fill:#c83737;fill-opacity:1;stroke-width:0.07725267"
       id="path44"
       cx="37.726452"
       cy="25.107124"
       rx="0.16982491"
       ry="0.154301" />
    <ellipse
       style="fill:#447821;fill-opacity:1;stroke-width:0.07647455"
       id="path80"
       cx="34.076515"
       cy="26.217258"
       rx="0.96185666"
       ry="0.88121408" />
    <ellipse
       style="fill:#447821;fill-opacity:1;stroke-width:0.07725267"
       id="path82"
       cx="33.967049"
       cy="25.127928"
       rx="0.17102934"
       ry="0.16787949" />
    <ellipse
       style="fill:#447821;fill-opacity:1;stroke-width:0.07725267"
       id="path84"
       cx="33.507027"
       cy="25.018091"
       rx="0.19752686"
       ry="0.17775474" />
    <ellipse
       style="fill:#447821;fill-opacity:1;stroke-width:0.07725267"
       id="path86"
       cx="35.027321"
       cy="27.041754"
       rx="0.17343819"
       ry="0.16787949" />
    <ellipse
       style="fill:#447821;fill-opacity:1;stroke-width:0.32026944"
       id="path88"
       cx="34.765499"
       cy="27.479456"
       rx="0.34761992"
       ry="0.31991097" />
    <ellipse
       style="fill:#447821;fill-opacity:1;stroke-width:0.07725267"
       id="path90"
       cx="35.364643"
       cy="27.509874"
       rx="0.090332411"
       ry="0.082705341" />
    <ellipse
       style="fill:#447821;fill-opacity:1;stroke-width:0.07725267"
       id="path92"
       cx="35.153336"
       cy="26.199238"
       rx="0.063834898"
       ry="0.056782767" />
    <ellipse
       style="fill:#447821;fill-opacity:1;stroke-width:0.07725267"
       id="path94"
       cx="33.083443"
       cy="24.836575"
       rx="0.17404042"
       ry="0.15676981" />
    <ellipse
       style="fill:#447821;fill-opacity:1;stroke-width:0.07725267"
       id="path96"
       cx="32.737221"
       cy="26.084412"
       rx="0.078890301"
       ry="0.074681684" />
    <ellipse
       style="fill:#447821;fill-opacity:1;stroke-width:0.07725267"
       id="path98"
       cx="33.392185"
       cy="25.329275"
       rx="0.042155121"
       ry="0.037649442" />
    <ellipse
       style="fill:#447821;fill-opacity:1;stroke-width:0.07725267"
       id="path110"
       cx="35.208904"
       cy="27.291479"
       rx="0.067448191"
       ry="0.06789244" />
    <ellipse
       style="fill:#447821;fill-opacity:1;stroke-width:0.07725267"
       id="path142"
       cx="34.103519"
       cy="27.240181"
       rx="0.11442104"
       ry="0.099987052" />
    <ellipse
       style="fill:#447821;fill-opacity:1;stroke-width:0.07725267"
       id="path144"
       cx="32.532341"
       cy="26.2292"
       rx="0.10297892"
       ry="0.088877372" />
    <ellipse
       style="fill:#c83737;fill-opacity:1;stroke-width:0.07725267"
       id="path166"
       cx="38.07935"
       cy="25.189829"
       rx="0.091536835"
       ry="0.091346182" />
    <ellipse
       style="fill:#c83737;fill-opacity:1;stroke-width:0.07725267"
       id="path168"
       cx="37.681889"
       cy="23.78075"
       rx="0.12285207"
       ry="0.12035478" />
    <ellipse
       style="fill:#c83737;fill-opacity:1;stroke-width:0.07725267"
       id="path170"
       cx="36.089783"
       cy="23.334543"
       rx="0.12945262"
       ry="0.12743729" />
    <ellipse
       style="fill:#c83737;fill-opacity:1;stroke-width:0.07725267"
       id="path178"
       cx="37.929405"
       cy="23.394949"
       rx="0.1345626"
       ry="0.12743729" />
    <ellipse
       style="fill:#c83737;fill-opacity:1;stroke-width:0.07312583"
       id="path180"
       cx="36.281662"
       cy="23.588387"
       rx="0.10901275"
       ry="0.10636465" />
    <ellipse
       style="fill:#c83737;fill-opacity:1;stroke-width:0.07519223"
       id="path182"
       cx="35.844765"
       cy="23.404585"
       rx="0.076649584"
       ry="0.069828659" />
    <ellipse
       style="fill:#c83737;fill-opacity:1;stroke-width:0.07725267"
       id="path184"
       cx="38.112644"
       cy="24.572161"
       rx="0.11412272"
       ry="0.10998015" />
    <ellipse
       style="fill:#c83737;fill-opacity:1;stroke-width:0.07725267"
       id="path186"
       cx="37.931114"
       cy="25.612007"
       rx="0.23505871"
       ry="0.221706" />
    <ellipse
       style="fill:#c83737;fill-opacity:1;stroke-width:0.07725267"
       id="path188"
       cx="35.058701"
       cy="23.232719"
       rx="0.058338843"
       ry="0.056299362" />
    <ellipse
       style="fill:#c83737;fill-opacity:1;stroke-width:0.07725267"
       id="path190"
       cx="35.192268"
       cy="22.553564"
       rx="0.17203574"
       ry="0.15667805" />
    <ellipse
       style="fill:#447821;fill-opacity:1;stroke-width:0.20134604"
       id="path192"
       cx="32.797787"
       cy="25.493073"
       rx="0.46300331"
       ry="0.44289184" />
    <path
       style="fill:#0000ff;fill-opacity:1;stroke-width:0.00243865"
       d="m 36.082373,25.751353 c -0.06595,-0.01059 -0.125355,-0.05783 -0.146867,-0.116813 -0.01122,-0.03077 -0.01326,-0.06511 -0.0058,-0.09757 0.0052,-0.02265 0.02254,-0.05509 0.03939,-0.07375 0.03777,-0.04181 0.08492,-0.06227 0.143591,-0.0623 0.03331,-2.1e-5 0.05666,0.0053 0.0853,0.0194 0.04929,0.0243 0.08364,0.06653 0.09657,0.118768 0.0056,0.02246 0.0038,0.06681 -0.0037,0.08894 -0.01927,0.05782 -0.06784,0.102456 -0.128931,0.118466 -0.02248,0.0059 -0.05923,0.0082 -0.07964,0.0049 z"
       id="path93"
       inkscape:connector-curvature="0" />
    <path
       style="fill:#0000ff;fill-opacity:1;stroke-width:0.00243865"
       d=""
       id="path95"
       inkscape:connector-curvature="0" />
    <path
       style="fill:#892ca0;fill-opacity:1;stroke-width:0.02723046"
       d="m 35.868702,27.98397 c -0.14235,-0.04888 -0.229141,-0.131764 -0.284799,-0.27207 -0.120883,-0.304731 0.109122,-0.59738 0.469562,-0.59738 0.172687,0 0.298456,0.06654 0.400023,0.211642 0.120319,0.171879 0.06369,0.466982 -0.113142,0.589891 -0.149824,0.104125 -0.302175,0.12607 -0.471631,0.06788 z"
       id="path97"
       inkscape:connector-curvature="0" />
    <path
       style="fill:#0000ff;fill-opacity:1;stroke-width:0.00243865"
       d="m 35.733611,26.210917 c -0.05657,-0.01319 -0.09506,-0.06931 -0.08518,-0.1242 0.0076,-0.04187 0.0344,-0.073 0.07519,-0.08711 0.02224,-0.0078 0.0598,-0.0061 0.08007,0.0034 0.03131,0.01463 0.0521,0.03731 0.06194,0.06758 0.0043,0.01315 0.0051,0.02023 0.0043,0.03891 -8.32e-4,0.01952 -0.0021,0.02517 -0.0086,0.03886 -0.01402,0.0292 -0.03517,0.04847 -0.06458,0.05884 -0.01885,0.0066 -0.04413,0.0082 -0.06301,0.0038 z"
       id="path99"
       inkscape:connector-curvature="0" />
    <path
       style="fill:#0000ff;fill-opacity:1;stroke-width:0.00571411"
       d="m 36.805983,27.589372 c -0.110265,-0.02202 -0.188186,-0.09641 -0.206373,-0.197015 -0.01791,-0.09912 0.04219,-0.203346 0.144095,-0.24984 0.03301,-0.01506 0.04758,-0.01821 0.0932,-0.02017 0.116233,-0.005 0.203349,0.04271 0.253163,0.138554 0.01566,0.03012 0.01693,0.03721 0.01693,0.0946 0,0.05842 -10e-4,0.06421 -0.01862,0.09912 -0.04887,0.09731 -0.173083,0.15657 -0.28239,0.134736 z"
       id="path103"
       inkscape:connector-curvature="0" />
    <path
       style="fill:#0000ff;fill-opacity:1;stroke-width:0.00243865"
       d="m 37.309782,25.526887 c -0.06434,-0.01377 -0.109076,-0.07497 -0.09896,-0.135399 0.0042,-0.02505 0.01506,-0.04654 0.03257,-0.06444 0.02603,-0.0266 0.05535,-0.03855 0.09452,-0.03855 0.03848,0 0.06928,0.01336 0.09532,0.04134 0.02358,0.02534 0.03218,0.04983 0.03032,0.08634 -10e-4,0.02035 -0.0022,0.02526 -0.01022,0.04179 -0.02508,0.05202 -0.08597,0.08124 -0.14357,0.06892 z"
       id="path105"
       inkscape:connector-curvature="0" />
    <path
       style="fill:#0000ff;fill-opacity:1;stroke-width:0.00243865"
       d="m 35.398237,26.906598 c -0.02546,-0.0022 -0.06047,-0.0096 -0.08604,-0.01819 -0.16308,-0.0548 -0.259491,-0.212479 -0.229382,-0.375158 0.02307,-0.124656 0.121966,-0.22831 0.250382,-0.262436 0.03337,-0.0089 0.05612,-0.01161 0.09629,-0.01161 0.09868,0 0.186265,0.03654 0.254353,0.106086 0.04924,0.05031 0.07891,0.108099 0.09049,0.176258 0.0058,0.0345 0.0035,0.09334 -0.0052,0.127235 -0.01581,0.06231 -0.04367,0.110574 -0.09069,0.15711 -0.07235,0.07159 -0.177898,0.109519 -0.280297,0.100703 z"
       id="path107"
       inkscape:connector-curvature="0" />
    <path
       style="fill:#0000ff;fill-opacity:1;stroke-width:0.00243865"
       d=""
       id="path113"
       inkscape:connector-curvature="0" />
    <path
       style="fill:#0000ff;fill-opacity:1;stroke-width:0.00389296"
       d="m 36.558121,25.49605 c -0.08547,-0.01251 -0.160984,-0.05279 -0.217438,-0.116001 -0.03241,-0.03628 -0.05196,-0.06922 -0.0666,-0.112153 -0.06442,-0.188979 0.05321,-0.387993 0.255794,-0.432764 0.04829,-0.01068 0.133843,-0.0084 0.178808,0.0047 0.09881,0.02887 0.181315,0.0998 0.222705,0.191448 0.02007,0.04444 0.02746,0.08017 0.02754,0.133231 2.51e-4,0.155862 -0.111734,0.289944 -0.272344,0.326084 -0.03417,0.0078 -0.09535,0.01027 -0.12846,0.0054 z"
       id="path119"
       inkscape:connector-curvature="0" />
    <path
       style="fill:#0000ff;fill-opacity:1;stroke-width:0.02939659"
       d="m 36.523129,27.243202 c -0.367008,-0.131106 -0.590981,-0.456067 -0.585551,-0.849554 0.0066,-0.469104 0.397779,-0.829672 0.900409,-0.829672 0.252997,0 0.431695,0.06398 0.597303,0.213826 0.190163,0.172074 0.280384,0.345505 0.298159,0.573108 0.02118,0.272313 -0.0485,0.46662 -0.237098,0.660524 -0.251921,0.258968 -0.639062,0.351143 -0.973218,0.231776 z"
       id="path121"
       inkscape:connector-curvature="0" />
    <path
       style="fill:#0000ff;fill-opacity:1;stroke-width:0.00243865"
       d="m 35.861328,27.060509 c -0.08055,-0.01317 -0.134927,-0.08079 -0.124545,-0.154876 0.0072,-0.0512 0.04355,-0.09467 0.09443,-0.112838 0.02118,-0.0075 0.06248,-0.0094 0.08449,-0.0038 0.05224,0.01344 0.09456,0.05537 0.105816,0.104827 0.0047,0.02057 0.002,0.05735 -0.0055,0.07605 -0.01615,0.04029 -0.04815,0.0703 -0.08902,0.08354 -0.01868,0.006 -0.05072,0.0095 -0.06572,0.007 z"
       id="path123"
       inkscape:connector-curvature="0" />
    <path
       style="fill:#0000ff;fill-opacity:1;stroke-width:0.00243865"
       d="m 37.781664,26.052834 c -0.02619,-0.0056 -0.05199,-0.02552 -0.06311,-0.04863 -0.0047,-0.0097 -0.0057,-0.01567 -0.0057,-0.034 0,-0.01995 7.17e-4,-0.02355 0.007,-0.03528 0.0089,-0.0166 0.02446,-0.03124 0.04191,-0.03963 0.01221,-0.0059 0.01651,-0.0066 0.04016,-0.0066 0.0237,0 0.02794,6.95e-4 0.04027,0.0066 0.01735,0.0084 0.0353,0.02541 0.04288,0.04078 0.0069,0.01401 0.0092,0.04204 0.0049,0.05671 -0.0073,0.02379 -0.03048,0.04749 -0.05518,0.05631 -0.01356,0.0049 -0.03936,0.0066 -0.05314,0.0037 z"
       id="path125"
       inkscape:connector-curvature="0" />
    <path
       style="fill:#892ca0;fill-opacity:1;stroke-width:0.00689755"
       d="m 32.937976,23.60707 c -0.10314,-0.024 -0.185605,-0.05908 -0.263569,-0.112116 -0.223914,-0.152325 -0.346595,-0.423671 -0.310159,-0.686012 0.0049,-0.03505 0.0043,-0.03729 -0.01242,-0.04545 -0.0184,-0.009 -0.02707,-0.03639 -0.01534,-0.04842 0.0038,-0.0038 0.01637,-0.009 0.02811,-0.01141 0.01921,-0.0041 0.02365,-0.01027 0.04444,-0.06234 0.04475,-0.112046 0.143255,-0.237922 0.243085,-0.310615 0.223303,-0.162601 0.525564,-0.185776 0.772293,-0.05922 0.147631,0.07572 0.280965,0.223464 0.339791,0.376495 0.03718,0.09673 0.04692,0.159128 0.04338,0.278129 -0.0027,0.09053 -0.0061,0.11827 -0.02121,0.169602 -0.07042,0.24031 -0.253381,0.422844 -0.498909,0.497759 -0.05359,0.01635 -0.07491,0.01881 -0.18328,0.02112 -0.09052,0.0019 -0.134052,-4.2e-5 -0.166213,-0.0075 z"
       id="path171"
       inkscape:connector-curvature="0" />
    <path
       style="fill:#892ca0;fill-opacity:1;stroke-width:0.00344878"
       d="m 32.81313,23.95934 c -0.02327,-0.0086 -0.03653,-0.01887 -0.04895,-0.03809 -0.01773,-0.02743 -0.01833,-0.05171 -0.0019,-0.08033 0.01445,-0.02527 0.05438,-0.04659 0.08724,-0.04659 0.01719,0 0.04756,0.01197 0.0649,0.0256 0.03518,0.02764 0.03939,0.07872 0.0092,0.112226 -0.02536,0.0282 -0.0747,0.04034 -0.110494,0.02718 z"
       id="path173"
       inkscape:connector-curvature="0" />
    <path
       style="fill:#892ca0;fill-opacity:1;stroke-width:0.00344878"
       d="m 32.627981,23.960511 c -0.01515,-0.01046 -0.01601,-0.01772 -0.0037,-0.03044 0.01327,-0.0136 0.0279,-0.0141 0.03774,-0.0012 0.0092,0.012 0.0089,0.02268 -8.32e-4,0.03209 -0.01005,0.0097 -0.01886,0.0096 -0.03332,-3.84e-4 z"
       id="path175"
       inkscape:connector-curvature="0" />
    <path
       style="fill:#892ca0;fill-opacity:1;stroke-width:0.00344878"
       d="m 32.835361,24.554502 c -0.0297,-0.0049 -0.07131,-0.02782 -0.09639,-0.05314 -0.03091,-0.03121 -0.0405,-0.05293 -0.04254,-0.09623 -0.0019,-0.04173 0.0036,-0.06376 0.02348,-0.09441 0.03246,-0.04983 0.09184,-0.07849 0.161427,-0.07793 0.07615,6.09e-4 0.136616,0.03684 0.167149,0.100162 0.01213,0.02513 0.01275,0.02808 0.01275,0.06103 0,0.0326 -7.24e-4,0.03617 -0.01245,0.06145 -0.03455,0.07455 -0.120266,0.114331 -0.213433,0.09904 z"
       id="path179"
       inkscape:connector-curvature="0" />
    <path
       style="fill:#892ca0;fill-opacity:1;stroke-width:0.00344878"
       d="m 32.432726,24.001964 c -0.01865,-0.0048 -0.04003,-0.01651 -0.05306,-0.02908 -0.03066,-0.02957 -0.03886,-0.07734 -0.01944,-0.113336 0.02007,-0.03722 0.05499,-0.05803 0.09725,-0.05795 0.05556,1.11e-4 0.09818,0.03726 0.104394,0.09098 0.0026,0.02285 -0.0056,0.05196 -0.02025,0.07171 -0.02167,0.02917 -0.07296,0.04691 -0.108886,0.03766 z"
       id="path181"
       inkscape:connector-curvature="0" />
    <path
       style="fill:#892ca0;fill-opacity:1;stroke-width:0.00344878"
       d="m 32.60568,24.220522 c -0.02525,-0.01388 -0.03469,-0.04507 -0.02067,-0.06831 0.01182,-0.0196 0.02381,-0.02648 0.04618,-0.02648 0.03856,0 0.05751,0.01822 0.05532,0.05319 -9.83e-4,0.01522 -0.0032,0.02224 -0.0095,0.02925 -0.01708,0.01898 -0.04909,0.02452 -0.07127,0.01233 z"
       id="path183"
       inkscape:connector-curvature="0" />
    <path
       style="fill:#892ca0;fill-opacity:1;stroke-width:0.00344878"
       d="m 32.783063,24.164261 c -0.04022,-0.01217 -0.06958,-0.04938 -0.06944,-0.08797 1.31e-4,-0.03436 0.01708,-0.06179 0.05035,-0.0815 0.01855,-0.011 0.02092,-0.01148 0.05347,-0.01122 0.03728,2.98e-4 0.04859,0.0039 0.07094,0.02282 0.02027,0.01713 0.03102,0.04185 0.03115,0.07162 10e-5,0.02325 -7.56e-4,0.02617 -0.01298,0.04435 -0.02758,0.04105 -0.07413,0.05685 -0.123511,0.0419 z"
       id="path185"
       inkscape:connector-curvature="0" />
    <path
       style="fill:#892ca0;fill-opacity:1;stroke-width:0.00344878"
       d="m 32.411529,24.263911 c -0.0086,-0.0015 -0.02047,-0.0052 -0.02634,-0.0084 -0.02284,-0.01211 -0.04428,-0.04121 -0.04986,-0.06767 -0.0062,-0.02953 0.01628,-0.07035 0.04928,-0.0894 0.01688,-0.0098 0.02161,-0.01082 0.0477,-0.01082 0.02372,0 0.03173,0.0015 0.04428,0.0082 0.03898,0.02077 0.05798,0.05699 0.05074,0.0967 -0.0061,0.03372 -0.03958,0.06507 -0.07457,0.06991 -0.0084,0.0012 -0.01765,0.0025 -0.02046,0.0031 -0.0028,5.48e-4 -0.01216,-2.03e-4 -0.02077,-0.0016 z"
       id="path187"
       inkscape:connector-curvature="0" />
    <path
       style="fill:#892ca0;fill-opacity:1;stroke-width:0.00344878"
       d="m 32.661703,23.763663 c -0.01319,-0.0066 -0.02257,-0.01918 -0.02705,-0.03609 -0.01091,-0.0412 0.04061,-0.0774 0.08075,-0.05673 0.03704,0.01907 0.03625,0.0745 -0.0013,0.09198 -0.01717,0.008 -0.03758,0.0084 -0.05239,8.75e-4 z"
       id="path191"
       inkscape:connector-curvature="0" />
    <path
       style="fill:#892ca0;fill-opacity:1;stroke-width:0.00344878"
       d="m 32.998754,23.830679 c -0.02716,-0.0084 -0.04539,-0.03538 -0.04276,-0.06336 0.0038,-0.03923 0.04286,-0.06335 0.08433,-0.05191 0.02019,0.0056 0.04282,0.02848 0.04616,0.04672 0.0081,0.04447 -0.04111,0.08295 -0.08773,0.06855 z"
       id="path193"
       inkscape:connector-curvature="0" />
    <path
       style="fill:#892ca0;fill-opacity:1;stroke-width:0.00344878"
       d="m 33.038508,23.934106 c -0.01776,-0.0067 -0.01043,-0.03816 0.0089,-0.03816 0.01793,0 0.02581,0.01527 0.0156,0.03021 -0.006,0.0088 -0.01481,0.01162 -0.0245,0.008 z"
       id="path195"
       inkscape:connector-curvature="0" />
    <path
       style="fill:#892ca0;fill-opacity:1;stroke-width:0.00344878"
       d="m 33.882315,23.112183 c -0.01723,-0.0056 -0.04623,-0.0359 -0.05079,-0.05301 -0.0095,-0.03605 0.0014,-0.07251 0.02793,-0.09249 0.0189,-0.01425 0.03575,-0.01839 0.06894,-0.01694 0.02369,10e-4 0.03008,0.0027 0.04434,0.01176 0.03293,0.02087 0.04767,0.06467 0.03405,0.101182 -0.0071,0.019 -0.03336,0.04418 -0.05218,0.04994 -0.01652,0.0051 -0.05615,0.0049 -0.07232,-4.46e-4 z"
       id="path197"
       inkscape:connector-curvature="0" />
    <path
       style="fill:#892ca0;fill-opacity:1;stroke-width:0.00344878"
       d="m 33.642539,24.304254 c -0.114995,-0.03457 -0.200758,-0.133435 -0.216577,-0.249678 -0.0094,-0.06898 0.01329,-0.148978 0.0598,-0.210915 0.03775,-0.05027 0.09571,-0.08812 0.163886,-0.107009 0.01826,-0.0051 0.03466,-0.0064 0.07295,-0.0062 0.04324,2.68e-4 0.05314,0.0014 0.0794,0.0096 0.09296,0.02886 0.163874,0.09692 0.197029,0.189042 0.01108,0.03079 0.0113,0.03255 0.01121,0.08729 -1.06e-4,0.06561 -0.0042,0.08541 -0.02699,0.13314 -0.03366,0.07026 -0.115537,0.137107 -0.187848,0.153373 -0.01288,0.0029 -0.04717,0.0059 -0.07621,0.0069 -0.04624,0.0014 -0.05577,7.36e-4 -0.07665,-0.0056 z"
       id="path199"
       inkscape:connector-curvature="0" />
    <path
       style="fill:#892ca0;fill-opacity:1;stroke-width:0.00344878"
       d="m 33.979218,23.692635 c -0.06731,-0.01368 -0.134246,-0.05608 -0.178844,-0.113285 -0.03495,-0.04482 -0.05102,-0.09061 -0.05348,-0.15232 -0.002,-0.05051 0.0036,-0.0819 0.02119,-0.120022 0.04348,-0.09385 0.131633,-0.158205 0.234995,-0.171574 0.135264,-0.01749 0.272487,0.06559 0.316529,0.191679 0.01015,0.02901 0.01051,0.03216 0.01051,0.0877 0,0.05563 -3.67e-4,0.05865 -0.0106,0.08796 -0.03263,0.09344 -0.113562,0.165337 -0.209729,0.186305 -0.03546,0.0078 -0.101197,0.0095 -0.130555,0.0036 z"
       id="path201"
       inkscape:connector-curvature="0" />
    <path
       style="fill:#892ca0;fill-opacity:1;stroke-width:0.00344878"
       d="m 34.196029,23.136798 c -0.0566,-0.01046 -0.121737,-0.05884 -0.14285,-0.106113 -0.01381,-0.0309 -0.0194,-0.06536 -0.01517,-0.09334 0.0097,-0.06441 0.04453,-0.111642 0.10369,-0.140805 0.0322,-0.01587 0.06182,-0.02264 0.09929,-0.0227 0.03673,-6.2e-5 0.06249,0.0061 0.09696,0.02321 0.03219,0.01597 0.07487,0.05863 0.09028,0.09022 0.0099,0.02031 0.01022,0.02245 0.01017,0.06983 l -5.5e-5,0.04889 -0.0131,0.02525 c -0.02382,0.04588 -0.07448,0.08671 -0.124776,0.10054 -0.02366,0.0065 -0.0814,0.0093 -0.104418,0.005 z"
       id="path203"
       inkscape:connector-curvature="0" />
    <path
       style="fill:#892ca0;fill-opacity:1;stroke-width:0.00344878"
       d="m 33.536534,23.736815 c -0.03129,-0.0058 -0.0656,-0.03262 -0.07847,-0.06127 -0.01999,-0.0445 0.0052,-0.102131 0.05448,-0.125064 0.02337,-0.01086 0.07683,-0.01044 0.101641,7.94e-4 0.01878,0.0085 0.04636,0.03553 0.05213,0.05107 0.0018,0.005 0.0033,0.02271 0.0033,0.03938 -1e-5,0.02332 -0.0014,0.03274 -0.0063,0.04079 -0.02429,0.04054 -0.07777,0.06343 -0.126828,0.05428 z"
       id="path205"
       inkscape:connector-curvature="0" />
    <path
       style="fill:#892ca0;fill-opacity:1;stroke-width:0.00344878"
       d="m 33.120451,24.272902 c -0.04508,-0.01608 -0.08056,-0.04797 -0.100081,-0.08997 -0.0095,-0.02047 -0.01055,-0.02597 -0.01055,-0.05605 0,-0.03144 7.26e-4,-0.03485 0.01264,-0.05957 0.06262,-0.129858 0.264553,-0.128661 0.325064,0.0019 0.01218,0.02629 0.01235,0.02723 0.01064,0.06059 -0.0024,0.04701 -0.01097,0.06881 -0.03795,0.09646 -0.01497,0.01534 -0.02958,0.02583 -0.05153,0.03698 l -0.03063,0.01558 -0.04769,9.55e-4 c -0.04232,8.74e-4 -0.0502,9.8e-5 -0.06991,-0.0069 z"
       id="path207"
       inkscape:connector-curvature="0" />
    <path
       style="fill:#892ca0;fill-opacity:1;stroke-width:0.00344878"
       d="m 33.241219,23.883659 c -0.03223,-0.01359 -0.05321,-0.03278 -0.06844,-0.06258 -0.0107,-0.02094 -0.0106,-0.06338 1.98e-4,-0.0884 0.03213,-0.07442 0.140185,-0.09298 0.201131,-0.03456 0.02331,0.02235 0.03233,0.04475 0.03237,0.08028 2.6e-5,0.03004 -0.0053,0.04529 -0.02374,0.06773 -0.03245,0.03952 -0.09649,0.05651 -0.141513,0.03753 z"
       id="path209"
       inkscape:connector-curvature="0" />
    <path
       style="fill:#892ca0;fill-opacity:1;stroke-width:0.00344878"
       d="m 34.526882,24.192399 c -0.06731,-0.01368 -0.134246,-0.05608 -0.178844,-0.113285 -0.03495,-0.04482 -0.05102,-0.09061 -0.05349,-0.152321 -0.002,-0.05051 0.0036,-0.0819 0.02119,-0.120021 0.04348,-0.09385 0.131634,-0.158205 0.234996,-0.171574 0.135263,-0.01749 0.272487,0.0656 0.316528,0.191679 0.01015,0.02901 0.01051,0.03216 0.01051,0.0877 0,0.05563 -3.67e-4,0.05865 -0.0106,0.08796 -0.03263,0.09344 -0.113563,0.165336 -0.20973,0.186304 -0.03546,0.0078 -0.101197,0.0095 -0.130555,0.0036 z"
       id="path201-3"
       inkscape:connector-curvature="0" />
    <path
       style="fill:#892ca0;fill-opacity:1;stroke-width:0.00344878"
       d="m 34.607395,23.574765 c -0.06731,-0.01368 -0.134246,-0.05608 -0.178844,-0.113285 -0.03495,-0.04482 -0.05102,-0.09061 -0.05349,-0.152321 -0.002,-0.05051 0.0036,-0.08191 0.02119,-0.120022 0.04348,-0.09385 0.131633,-0.158205 0.234995,-0.171574 0.135264,-0.01749 0.272487,0.0656 0.316529,0.191679 0.01015,0.02901 0.01051,0.03216 0.01051,0.0877 0,0.05563 -3.67e-4,0.05865 -0.0106,0.08796 -0.03263,0.09344 -0.113562,0.165337 -0.209729,0.186305 -0.03546,0.0078 -0.101197,0.0095 -0.130555,0.0036 z"
       id="path201-6"
       inkscape:connector-curvature="0" />
    <path
       style="fill:#892ca0;fill-opacity:1;stroke-width:0.00344878"
       d="m 34.12138,23.942378 c -0.03129,-0.0058 -0.0656,-0.03262 -0.07847,-0.06127 -0.01999,-0.0445 0.0052,-0.102131 0.05448,-0.125064 0.02337,-0.01086 0.07683,-0.01043 0.101641,7.94e-4 0.01878,0.0085 0.04636,0.03553 0.05213,0.05107 0.0018,0.005 0.0033,0.0227 0.0033,0.03938 -10e-6,0.02332 -0.0014,0.03274 -0.0063,0.04079 -0.02429,0.04054 -0.07777,0.06343 -0.126828,0.05428 z"
       id="path205-7"
       inkscape:connector-curvature="0" />
    <path
       style="fill:#892ca0;fill-opacity:1;stroke-width:0.00344878"
       d="m 32.686865,23.86399 c -0.01515,-0.01046 -0.01601,-0.01772 -0.0037,-0.03044 0.01327,-0.0136 0.02789,-0.0141 0.03774,-0.0012 0.0092,0.01201 0.0089,0.02268 -8.32e-4,0.03209 -0.01005,0.0097 -0.01886,0.0096 -0.03332,-3.83e-4 z"
       id="path175-5"
       inkscape:connector-curvature="0" />
    <ellipse
       style="fill:#447821;fill-opacity:1;stroke-width:0.07725267"
       id="path92-3"
       cx="35.56842"
       cy="27.092743"
       rx="0.063834898"
       ry="0.056782767" />
    <ellipse
       style="fill:#447821;fill-opacity:1;stroke-width:0.07725267"
       id="path84-5"
       cx="33.963551"
       cy="27.636469"
       rx="0.19752686"
       ry="0.17775474" />
    <ellipse
       style="fill:#447821;fill-opacity:1;stroke-width:0.07725267"
       id="path82-6"
       cx="32.902405"
       cy="26.356083"
       rx="0.17102934"
       ry="0.16787949" />
    <ellipse
       style="fill:#447821;fill-opacity:1;stroke-width:0.08447969"
       id="path86-2"
       cx="33.682915"
       cy="27.320757"
       rx="0.19390102"
       ry="0.17957254" />
    <ellipse
       style="fill:#447821;fill-opacity:1;stroke-width:0.07725267"
       id="path110-9"
       cx="33.364277"
       cy="27.028431"
       rx="0.067448191"
       ry="0.067892447" />
    <ellipse
       style="fill:#447821;fill-opacity:1;stroke-width:0.26097322"
       id="path86-1"
       cx="32.611687"
       cy="27.308084"
       rx="0.58036941"
       ry="0.57253593" />
    <ellipse
       style="fill:#447821;fill-opacity:1;stroke-width:0.07725267"
       id="path98-2"
       cx="33.073727"
       cy="26.625647"
       rx="0.042155121"
       ry="0.037649442" />
    <ellipse
       style="fill:#447821;fill-opacity:1;stroke-width:0.07725267"
       id="path98-7"
       cx="33.131603"
       cy="26.877829"
       rx="0.042155121"
       ry="0.037649442" />
    <ellipse
       style="fill:#447821;fill-opacity:1;stroke-width:0.32026947"
       id="path88-0"
       cx="33.323353"
       cy="27.706627"
       rx="0.34761992"
       ry="0.319911" />
    <ellipse
       style="fill:#447821;fill-opacity:1;stroke-width:0.07725267"
       id="path82-9"
       cx="32.259285"
       cy="26.695179"
       rx="0.17102934"
       ry="0.16787949" />
    <ellipse
       style="fill:#447821;fill-opacity:1;stroke-width:0.23783232"
       id="path142-3"
       cx="34.388962"
       cy="27.752945"
       rx="0.33658883"
       ry="0.32215485" />
    <ellipse
       style="fill:#447821;fill-opacity:1;stroke-width:0.07725267"
       id="path82-60"
       cx="32.130665"
       cy="26.133913"
       rx="0.17102934"
       ry="0.16787949" />
    <ellipse
       style="fill:#447821;fill-opacity:1;stroke-width:0.07725267"
       id="path110-9-6"
       cx="32.621773"
       cy="26.543169"
       rx="0.067448191"
       ry="0.067892447" />
    <ellipse
       style="fill:#447821;fill-opacity:1;stroke-width:0.07725267"
       id="path110-9-2"
       cx="32.434681"
       cy="26.005289"
       rx="0.067448191"
       ry="0.067892447" />
    <ellipse
       style="fill:#447821;fill-opacity:1;stroke-width:0.07725267"
       id="path92-3-6"
       cx="36.004814"
       cy="25.869104"
       rx="0.063834898"
       ry="0.056782767" />
  </g>
</svg>
