<?xml version="1.0" encoding="UTF-8" standalone="no"?>
<!-- Created with Inkscape (http://www.inkscape.org/) -->

<svg
   xmlns:dc="http://purl.org/dc/elements/1.1/"
   xmlns:cc="http://creativecommons.org/ns#"
   xmlns:rdf="http://www.w3.org/1999/02/22-rdf-syntax-ns#"
   xmlns:svg="http://www.w3.org/2000/svg"
   xmlns="http://www.w3.org/2000/svg"
   xmlns:sodipodi="http://sodipodi.sourceforge.net/DTD/sodipodi-0.dtd"
   xmlns:inkscape="http://www.inkscape.org/namespaces/inkscape"
   width="8.528779mm"
   height="8.1884375mm"
   viewBox="0 0 8.5287791 8.1884376"
   version="1.1"
   id="svg8"
   inkscape:version="0.92.3 (2405546, 2018-03-11)"
   sodipodi:docname="blobogram.svg">
  <defs
     id="defs2" />
  <sodipodi:namedview
     id="base"
     pagecolor="#ffffff"
     bordercolor="#666666"
     borderopacity="1.0"
     inkscape:pageopacity="0.0"
     inkscape:pageshadow="2"
     inkscape:zoom="7.919596"
     inkscape:cx="-45.0004"
     inkscape:cy="-5.1888557"
     inkscape:document-units="mm"
     inkscape:current-layer="layer1"
     showgrid="false"
     fit-margin-top="0"
     fit-margin-left="0"
     fit-margin-right="0"
     fit-margin-bottom="0"
     inkscape:window-width="1918"
     inkscape:window-height="1058"
     inkscape:window-x="0"
     inkscape:window-y="0"
     inkscape:window-maximized="0" />
  <metadata
     id="metadata5">
    <rdf:RDF>
      <cc:Work
         rdf:about="">
        <dc:format>image/svg+xml</dc:format>
        <dc:type
           rdf:resource="http://purl.org/dc/dcmitype/StillImage" />
        <dc:title></dc:title>
      </cc:Work>
    </rdf:RDF>
  </metadata>
  <g
     inkscape:label="Layer 1"
     inkscape:groupmode="layer"
     id="layer1"
     transform="translate(-31.85003,-20.061916)">
    <ellipse
       style="fill:#ffd42a;fill-opacity:1;stroke-width:0.09964734"
       id="path10"
       cx="36.006229"
       cy="24.515717"
       rx="3.9647212"
       ry="3.6545064" />
    <ellipse
       style="fill:#c83737;fill-opacity:1;stroke-width:0.09964734"
       id="path12"
       cx="38.790611"
       cy="21.445944"
       rx="1.2743095"
       ry="1.1181315" />
    <ellipse
       style="fill:#c83737;fill-opacity:1;stroke-width:0.09964734"
       id="path14"
       cx="37.057552"
       cy="20.476896"
       rx="0.45875144"
       ry="0.39755788" />
    <ellipse
       style="fill:#c83737;fill-opacity:1;stroke-width:0.09964734"
       id="path16"
       cx="37.822136"
       cy="20.312283"
       rx="0.12743096"
       ry="0.11491907" />
    <ellipse
       style="fill:#ffd42a;fill-opacity:1;stroke-width:0.09964734"
       id="path18"
       cx="39.357681"
       cy="27.80687"
       rx="0.465123"
       ry="0.42240527" />
    <ellipse
       style="fill:#ffd42a;fill-opacity:1;stroke-width:0.09964734"
       id="path20"
       cx="38.427437"
       cy="27.955954"
       rx="0.24849038"
       ry="0.2236263" />
    <ellipse
       style="fill:#c83737;fill-opacity:1;stroke-width:0.09964734"
       id="path32"
       cx="39.631657"
       cy="23.247379"
       rx="0.45875144"
       ry="0.40998155" />
    <ellipse
       style="fill:#c83737;fill-opacity:1;stroke-width:0.09964734"
       id="path34"
       cx="38.688667"
       cy="22.986481"
       rx="0.30583432"
       ry="0.27332106" />
    <ellipse
       style="fill:#c83737;fill-opacity:1;stroke-width:0.09964734"
       id="path36"
       cx="39.943863"
       cy="22.688313"
       rx="0.28671965"
       ry="0.26710919" />
    <ellipse
       style="fill:#c83737;fill-opacity:1;stroke-width:0.09964734"
       id="path38"
       cx="39.020317"
       cy="23.872225"
       rx="0.39196673"
       ry="0.34480619" />
    <ellipse
       style="fill:#c83737;fill-opacity:1;stroke-width:0.09964734"
       id="path40"
       cx="36.925323"
       cy="21.590355"
       rx="0.52262229"
       ry="0.46559817" />
    <ellipse
       style="fill:#c83737;fill-opacity:1;stroke-width:0.09964734"
       id="path42"
       cx="39.953419"
       cy="23.96174"
       rx="0.22300418"
       ry="0.19567303" />
    <ellipse
       style="fill:#c83737;fill-opacity:1;stroke-width:0.09964734"
       id="path44"
       cx="39.623692"
       cy="24.295626"
       rx="0.22459707"
       ry="0.19412006" />
    <ellipse
       style="fill:#ffcc00;fill-opacity:1;stroke-width:0.09964734"
       id="path50"
       cx="39.094856"
       cy="27.184134"
       rx="0.1704389"
       ry="0.1537431" />
    <ellipse
       style="fill:#ffcc00;fill-opacity:1;stroke-width:0.09964734"
       id="path52"
       cx="38.753979"
       cy="27.733881"
       rx="0.093980335"
       ry="0.082306907" />
    <ellipse
       style="fill:#aa00d4;fill-opacity:1;stroke-width:0.09964734"
       id="path58"
       cx="33.323826"
       cy="21.595028"
       rx="0.96847528"
       ry="0.90692896" />
    <ellipse
       style="fill:#aa00d4;fill-opacity:1;stroke-width:0.09964734"
       id="path60"
       cx="34.78928"
       cy="21.122929"
       rx="0.39503598"
       ry="0.3727105" />
    <ellipse
       style="fill:#aa00d4;fill-opacity:1;stroke-width:0.09964734"
       id="path64"
       cx="32.565609"
       cy="22.694525"
       rx="0.28671965"
       ry="0.27953288" />
    <ellipse
       style="fill:#aa00d4;fill-opacity:1;stroke-width:0.09964734"
       id="path66"
       cx="34.088409"
       cy="20.75643"
       rx="0.15291716"
       ry="0.13044868" />
    <ellipse
       style="fill:#aa00d4;fill-opacity:1;stroke-width:0.09964734"
       id="path68"
       cx="34.451588"
       cy="20.427202"
       rx="0.27397656"
       ry="0.23604998" />
    <ellipse
       style="fill:#aa00d4;fill-opacity:1;stroke-width:0.09964734"
       id="path70"
       cx="35.515636"
       cy="20.576286"
       rx="0.39503598"
       ry="0.36028683" />
    <ellipse
       style="fill:#aa00d4;fill-opacity:1;stroke-width:0.09964734"
       id="path72"
       cx="33.639217"
       cy="20.39912"
       rx="0.23893307"
       ry="0.20188487" />
    <ellipse
       style="fill:#aa00d4;fill-opacity:1;stroke-width:0.09964734"
       id="path74"
       cx="32.32349"
       cy="22.206894"
       rx="0.1465456"
       ry="0.13355459" />
    <ellipse
       style="fill:#aa00d4;fill-opacity:1;stroke-width:0.09964734"
       id="path76"
       cx="33.151794"
       cy="22.725584"
       rx="0.1338025"
       ry="0.11181315" />
    <ellipse
       style="fill:#447821;fill-opacity:1;stroke-width:0.111508"
       id="path80"
       cx="33.412518"
       cy="26.85438"
       rx="1.426719"
       ry="1.2630819" />
    <ellipse
       style="fill:#447821;fill-opacity:1;stroke-width:0.09964734"
       id="path82"
       cx="34.582207"
       cy="27.999437"
       rx="0.22618997"
       ry="0.21120264" />
    <ellipse
       style="fill:#447821;fill-opacity:1;stroke-width:0.09964734"
       id="path84"
       cx="34.878483"
       cy="27.47143"
       rx="0.26123348"
       ry="0.2236263" />
    <ellipse
       style="fill:#447821;fill-opacity:1;stroke-width:0.09964734"
       id="path86"
       cx="35.311749"
       cy="28.00565"
       rx="0.22937572"
       ry="0.21120264" />
    <ellipse
       style="fill:#447821;fill-opacity:1;stroke-width:0.41311187"
       id="path88"
       cx="35.707767"
       cy="27.280167"
       rx="0.45973477"
       ry="0.40246752" />
    <ellipse
       style="fill:#447821;fill-opacity:1;stroke-width:0.09964734"
       id="path90"
       cx="34.064518"
       cy="28.112803"
       rx="0.11946654"
       ry="0.10404836" />
    <ellipse
       style="fill:#447821;fill-opacity:1;stroke-width:0.09964734"
       id="path92"
       cx="34.504154"
       cy="27.67021"
       rx="0.084423013"
       ry="0.071436182" />
    <ellipse
       style="fill:#447821;fill-opacity:1;stroke-width:0.09964734"
       id="path94"
       cx="32.346588"
       cy="25.874987"
       rx="0.23017217"
       ry="0.19722599" />
    <ellipse
       style="fill:#447821;fill-opacity:1;stroke-width:0.09964734"
       id="path96"
       cx="32.182522"
       cy="26.172379"
       rx="0.10433411"
       ry="0.093954109" />
    <ellipse
       style="fill:#447821;fill-opacity:1;stroke-width:0.09964734"
       id="path98"
       cx="32.693043"
       cy="25.899057"
       rx="0.055751044"
       ry="0.047365293" />
    <ellipse
       style="fill:#447821;fill-opacity:1;stroke-width:0.09964734"
       id="path100"
       cx="32.26376"
       cy="27.830164"
       rx="0.20150019"
       ry="0.17703749" />
    <ellipse
       style="fill:#447821;fill-opacity:1;stroke-width:0.09964734"
       id="path102"
       cx="32.489948"
       cy="28.066214"
       rx="0.062919036"
       ry="0.057459537" />
    <ellipse
       style="fill:#447821;fill-opacity:1;stroke-width:0.09964734"
       id="path104"
       cx="32.639679"
       cy="28.041367"
       rx="0.037432846"
       ry="0.031059209" />
    <ellipse
       style="fill:#447821;fill-opacity:1;stroke-width:0.09964734"
       id="path106"
       cx="31.998543"
       cy="27.511806"
       rx="0.084423013"
       ry="0.071436182" />
    <ellipse
       style="fill:#447821;fill-opacity:1;stroke-width:0.09964734"
       id="path108"
       cx="32.025623"
       cy="27.67021"
       rx="0.035043515"
       ry="0.032612171" />
    <ellipse
       style="fill:#447821;fill-opacity:1;stroke-width:0.09964734"
       id="path110"
       cx="35.671741"
       cy="28.146969"
       rx="0.089201674"
       ry="0.08541283" />
    <ellipse
       style="fill:#aa00d4;fill-opacity:1;stroke-width:0.09964734"
       id="path112"
       cx="32.124859"
       cy="23.110138"
       rx="0.25004774"
       ry="0.2108369" />
    <ellipse
       style="fill:#aa00d4;fill-opacity:1;stroke-width:0.09964734"
       id="path114"
       cx="32.930191"
       cy="22.885025"
       rx="0.039421942"
       ry="0.036237594" />
    <ellipse
       style="fill:#aa00d4;fill-opacity:1;stroke-width:0.09964734"
       id="path116"
       cx="34.483418"
       cy="21.637573"
       rx="0.1284029"
       ry="0.11420333" />
    <ellipse
       style="fill:#aa00d4;fill-opacity:1;stroke-width:0.09964734"
       id="path118"
       cx="32.316322"
       cy="21.955315"
       rx="0.078847915"
       ry="0.071436182" />
    <ellipse
       style="fill:#aa00d4;fill-opacity:1;stroke-width:0.14131902"
       id="path120"
       cx="33.117775"
       cy="20.430271"
       rx="0.16743265"
       ry="0.14952567" />
    <ellipse
       style="fill:#aa00d4;fill-opacity:1;stroke-width:0.12727045"
       id="path122"
       cx="32.19606"
       cy="20.54212"
       rx="0.33450627"
       ry="0.30438027" />
    <ellipse
       style="fill:#aa00d4;fill-opacity:1;stroke-width:0.09964734"
       id="path124"
       cx="32.384022"
       cy="21.014221"
       rx="0.079644345"
       ry="0.071436182" />
    <ellipse
       style="fill:#aa00d4;fill-opacity:1;stroke-width:0.09964734"
       id="path126"
       cx="32.366501"
       cy="21.382273"
       rx="0.052565269"
       ry="0.046588812" />
    <ellipse
       style="fill:#aa00d4;fill-opacity:1;stroke-width:0.09964734"
       id="path128"
       cx="32.038132"
       cy="21.641966"
       rx="0.14304534"
       ry="0.12408631" />
    <ellipse
       style="fill:#aa00d4;fill-opacity:1;stroke-width:0.09964734"
       id="path130"
       cx="32.699635"
       cy="20.730896"
       rx="0.092923149"
       ry="0.081809111" />
    <ellipse
       style="fill:#aa00d4;fill-opacity:1;stroke-width:0.09964734"
       id="path132"
       cx="32.747162"
       cy="20.357178"
       rx="0.10981827"
       ry="0.10322224" />
    <ellipse
       style="fill:#aa00d4;fill-opacity:1;stroke-width:0.09964734"
       id="path134"
       cx="32.936951"
       cy="20.611938"
       rx="0.031537551"
       ry="0.030747049" />
    <ellipse
       style="fill:#aa00d4;fill-opacity:1;stroke-width:0.09964734"
       id="path136"
       cx="32.101204"
       cy="22.670893"
       rx="0.25117412"
       ry="0.22181801" />
    <ellipse
       style="fill:#aa00d4;fill-opacity:1;stroke-width:0.09964734"
       id="path138"
       cx="32.162735"
       cy="21.259804"
       rx="0.1338025"
       ry="0.11802499" />
    <ellipse
       style="fill:#447821;fill-opacity:1;stroke-width:0.09964734"
       id="path142"
       cx="34.832287"
       cy="26.979143"
       rx="0.15132427"
       ry="0.12578981" />
    <ellipse
       style="fill:#447821;fill-opacity:1;stroke-width:0.09964734"
       id="path144"
       cx="32.754368"
       cy="25.707268"
       rx="0.13619183"
       ry="0.11181315" />
    <ellipse
       style="fill:#ffd42a;fill-opacity:1;stroke-width:0.09964734"
       id="path146"
       cx="37.68515"
       cy="28.07398"
       rx="0.14973138"
       ry="0.13976644" />
    <ellipse
       style="fill:#ffd42a;fill-opacity:1;stroke-width:0.09964734"
       id="path150"
       cx="38.828842"
       cy="28.160946"
       rx="0.082830124"
       ry="0.080753945" />
    <ellipse
       style="fill:#ffd42a;fill-opacity:1;stroke-width:0.09964734"
       id="path152"
       cx="39.834751"
       cy="26.075319"
       rx="0.12185586"
       ry="0.10715427" />
    <ellipse
       style="fill:#ffd42a;fill-opacity:1;stroke-width:0.09964734"
       id="path156"
       cx="39.857189"
       cy="27.981895"
       rx="0.028158531"
       ry="0.02690367" />
    <ellipse
       style="fill:#ffd42a;fill-opacity:1;stroke-width:0.09964734"
       id="path158"
       cx="39.767647"
       cy="28.168575"
       rx="0.051248524"
       ry="0.043375298" />
    <ellipse
       style="fill:#c83737;fill-opacity:1;stroke-width:0.09964734"
       id="path166"
       cx="40.090408"
       cy="24.399675"
       rx="0.12105941"
       ry="0.11491907" />
    <ellipse
       style="fill:#c83737;fill-opacity:1;stroke-width:0.09964734"
       id="path168"
       cx="39.564754"
       cy="22.62697"
       rx="0.16247448"
       ry="0.15141365" />
    <ellipse
       style="fill:#c83737;fill-opacity:1;stroke-width:0.09964734"
       id="path170"
       cx="38.288582"
       cy="20.243631"
       rx="0.17120385"
       ry="0.16032389" />
    <ellipse
       style="fill:#c83737;fill-opacity:1;stroke-width:0.13236202"
       id="path172"
       cx="40.042198"
       cy="20.420496"
       rx="0.33661026"
       ry="0.28302673" />
    <ellipse
       style="fill:#c83737;fill-opacity:1;stroke-width:0.09964734"
       id="path174"
       cx="40.16468"
       cy="20.973217"
       rx="0.11713949"
       ry="0.1120071" />
    <ellipse
       style="fill:#c83737;fill-opacity:1;stroke-width:0.09964734"
       id="path176"
       cx="39.501873"
       cy="20.156353"
       rx="0.10587607"
       ry="0.094437361" />
    <ellipse
       style="fill:#c83737;fill-opacity:1;stroke-width:0.09964734"
       id="path178"
       cx="39.892105"
       cy="22.141605"
       rx="0.1779619"
       ry="0.16032389" />
    <ellipse
       style="fill:#c83737;fill-opacity:1;stroke-width:0.09432417"
       id="path180"
       cx="40.19558"
       cy="21.838369"
       rx="0.14417168"
       ry="0.1338132" />
    <ellipse
       style="fill:#c83737;fill-opacity:1;stroke-width:0.09698959"
       id="path182"
       cx="40.178196"
       cy="22.244827"
       rx="0.10137071"
       ry="0.087848708" />
    <ellipse
       style="fill:#c83737;fill-opacity:1;stroke-width:0.09964734"
       id="path184"
       cx="40.134438"
       cy="23.62261"
       rx="0.15092973"
       ry="0.13836172" />
    <ellipse
       style="fill:#c83737;fill-opacity:1;stroke-width:0.09964734"
       id="path186"
       cx="39.89436"
       cy="24.930801"
       rx="0.31087017"
       ry="0.27891967" />
    <ellipse
       style="fill:#c83737;fill-opacity:1;stroke-width:0.09964734"
       id="path188"
       cx="40.175381"
       cy="21.385557"
       rx="0.077154368"
       ry="0.070828028" />
    <ellipse
       style="fill:#c83737;fill-opacity:1;stroke-width:0.09964734"
       id="path190"
       cx="39.051857"
       cy="20.348942"
       rx="0.22752094"
       ry="0.19711055" />
    <ellipse
       style="fill:#447821;fill-opacity:1;stroke-width:0.25971395"
       id="path192"
       cx="32.566494"
       cy="24.99337"
       rx="0.61233175"
       ry="0.55718493" />
    <path
       style="fill:#0000ff;fill-opacity:1;stroke-width:0.00314559"
       d="m 38.802858,28.23635 c -0.01028,-0.0032 -0.02066,-0.0099 -0.03087,-0.01981 -0.04155,-0.0405 -0.02792,-0.106763 0.02651,-0.128937 0.01704,-0.0069 0.04833,-0.0061 0.06483,0.0016 0.01565,0.0074 0.03488,0.02692 0.04134,0.04199 0.0059,0.01379 0.0057,0.04524 -4.04e-4,0.05948 -0.01639,0.03824 -0.06083,0.05824 -0.1014,0.04564 z"
       id="path91"
       inkscape:connector-curvature="0" />
    <path
       style="fill:#0000ff;fill-opacity:1;stroke-width:0.00314559"
       d="m 38.388261,28.175869 c -0.08722,-0.01332 -0.165784,-0.07276 -0.194236,-0.146958 -0.01484,-0.03871 -0.01754,-0.0819 -0.0077,-0.122745 0.0069,-0.0285 0.02981,-0.06931 0.0521,-0.09278 0.04995,-0.0526 0.112311,-0.07834 0.189902,-0.07838 0.04406,-2.6e-5 0.07493,0.0067 0.112808,0.02441 0.0652,0.03057 0.110617,0.0837 0.127713,0.149416 0.0074,0.02826 0.005,0.08405 -0.0048,0.111893 -0.02548,0.07274 -0.08973,0.128895 -0.170514,0.149036 -0.02972,0.0074 -0.07833,0.01023 -0.105326,0.0061 z"
       id="path93"
       inkscape:connector-curvature="0" />
    <path
       style="fill:#0000ff;fill-opacity:1;stroke-width:0.00314559"
       d=""
       id="path95"
       inkscape:connector-curvature="0" />
    <path
       style="fill:#892ca0;fill-opacity:1;stroke-width:0.03512426"
       d="m 37.166776,27.914874 c -0.18826,-0.06149 -0.303043,-0.165767 -0.376651,-0.34228 -0.159871,-0.38337 0.144315,-0.75154 0.621006,-0.75154 0.228381,0 0.394713,0.08371 0.529038,0.266258 0.159124,0.216235 0.08424,0.587491 -0.149632,0.742119 -0.198147,0.130996 -0.399634,0.158604 -0.623743,0.0854 z"
       id="path97"
       inkscape:connector-curvature="0" />
    <path
       style="fill:#0000ff;fill-opacity:1;stroke-width:0.00314559"
       d="m 37.651591,28.208788 c -0.07481,-0.01659 -0.125712,-0.08719 -0.112659,-0.156253 0.01,-0.05268 0.04549,-0.09184 0.09944,-0.109587 0.02942,-0.0097 0.07908,-0.0077 0.105894,0.0042 0.04141,0.0184 0.06891,0.04694 0.08191,0.08503 0.0056,0.01654 0.0067,0.02544 0.0056,0.04895 -0.0011,0.02456 -0.0028,0.03167 -0.01147,0.04889 -0.01855,0.03674 -0.04651,0.06098 -0.0854,0.07403 -0.02493,0.0084 -0.05836,0.01026 -0.08333,0.0047 z"
       id="path99"
       inkscape:connector-curvature="0" />
    <path
       style="fill:#0000ff;fill-opacity:1;stroke-width:0.00314559"
       d="m 38.733797,27.813035 c -0.04748,-0.0098 -0.07943,-0.05161 -0.07067,-0.09254 0.0086,-0.04029 0.04343,-0.06583 0.09013,-0.06613 0.02689,-1.77e-4 0.04679,0.0066 0.06464,0.02187 0.03532,0.03031 0.03743,0.07913 0.0048,0.111255 -0.02053,0.02022 -0.05987,0.03152 -0.08892,0.02554 z"
       id="path101"
       inkscape:connector-curvature="0" />
    <path
       style="fill:#0000ff;fill-opacity:1;stroke-width:0.00737056"
       d="m 38.469057,27.671403 c -0.145828,-0.0277 -0.24888,-0.121294 -0.272933,-0.247858 -0.02369,-0.124702 0.0558,-0.255821 0.19057,-0.314313 0.04366,-0.01895 0.06292,-0.02291 0.123265,-0.02537 0.15372,-0.0063 0.268933,0.05373 0.334813,0.174309 0.0207,0.03789 0.02238,0.04681 0.02238,0.119019 0,0.0735 -0.0014,0.08078 -0.02463,0.124704 -0.06463,0.122414 -0.228905,0.196975 -0.373467,0.169506 z"
       id="path103"
       inkscape:connector-curvature="0" />
    <path
       style="fill:#0000ff;fill-opacity:1;stroke-width:0.00314559"
       d="m 39.058625,27.332961 c -0.0851,-0.01732 -0.144255,-0.09431 -0.130881,-0.17034 0.0055,-0.03152 0.01991,-0.05855 0.04308,-0.08107 0.03442,-0.03346 0.07321,-0.0485 0.12501,-0.0485 0.05088,0 0.09163,0.01681 0.126068,0.05201 0.03119,0.03188 0.04256,0.06268 0.0401,0.108621 -0.0014,0.0256 -0.003,0.03177 -0.01351,0.05257 -0.03317,0.06544 -0.113694,0.102213 -0.189875,0.08671 z"
       id="path105"
       inkscape:connector-curvature="0" />
    <path
       style="fill:#0000ff;fill-opacity:1;stroke-width:0.00314559"
       d="m 39.318507,28.226735 c -0.03367,-0.0028 -0.07997,-0.01207 -0.113788,-0.02288 -0.215677,-0.06894 -0.343183,-0.267311 -0.303362,-0.471971 0.03052,-0.156825 0.161301,-0.287228 0.331134,-0.33016 0.04414,-0.01116 0.07422,-0.01461 0.127345,-0.01461 0.13051,0 0.246339,0.04596 0.336388,0.133464 0.06513,0.06329 0.104368,0.135994 0.119677,0.221743 0.0077,0.0434 0.0046,0.117421 -0.0068,0.160069 -0.02091,0.07839 -0.05776,0.139109 -0.119944,0.197654 -0.09568,0.09007 -0.235274,0.137781 -0.370699,0.126687 z"
       id="path107"
       inkscape:connector-curvature="0" />
    <path
       style="fill:#0000ff;fill-opacity:1;stroke-width:0.00314559"
       d="m 39.745243,28.205819 c -0.01584,-0.0067 -0.02692,-0.02199 -0.02692,-0.03709 0,-0.04456 0.07252,-0.05801 0.09404,-0.01743 0.01894,0.0357 -0.02583,0.07206 -0.06712,0.05452 z"
       id="path109"
       inkscape:connector-curvature="0" />
    <path
       style="fill:#0000ff;fill-opacity:1;stroke-width:0.00657577"
       d="m 40.052199,28.240908 c -0.0605,-0.02184 -0.104502,-0.08085 -0.104502,-0.140148 0,-0.09472 0.102652,-0.170147 0.203538,-0.149567 0.106638,0.02175 0.163111,0.123833 0.117866,0.213052 -0.02842,0.05604 -0.08399,0.08696 -0.15474,0.08609 -0.02052,-2.47e-4 -0.0485,-0.0045 -0.06216,-0.0094 z"
       id="path111"
       inkscape:connector-curvature="0" />
    <path
       style="fill:#0000ff;fill-opacity:1;stroke-width:0.00314559"
       d=""
       id="path113"
       inkscape:connector-curvature="0" />
    <path
       style="fill:#0000ff;fill-opacity:1;stroke-width:0.00314559"
       d="m 39.839136,27.999224 c -0.0056,-0.0055 -0.0093,-0.01235 -0.0093,-0.01732 0,-0.0109 0.0159,-0.0264 0.02708,-0.0264 0.01118,0 0.02708,0.01551 0.02708,0.0264 0,0.0109 -0.0159,0.0264 -0.02708,0.0264 -0.0051,0 -0.01215,-0.0036 -0.01777,-0.0091 z"
       id="path115"
       inkscape:connector-curvature="0" />
    <path
       style="fill:#0000ff;fill-opacity:1;stroke-width:0.00792592"
       d="m 40.004565,27.896791 c -0.05462,-0.02244 -0.09441,-0.0563 -0.125266,-0.106602 -0.01573,-0.02566 -0.01914,-0.04297 -0.01919,-0.09766 -5.5e-5,-0.05983 0.0024,-0.0704 0.025,-0.105757 0.04456,-0.06985 0.117242,-0.111592 0.204952,-0.117705 0.168779,-0.01176 0.302987,0.11538 0.275921,0.261399 -0.0099,0.05316 -0.03456,0.09122 -0.08453,0.130241 -0.07844,0.06125 -0.182592,0.07481 -0.27688,0.03608 z"
       id="path117"
       inkscape:connector-curvature="0" />
    <path
       style="fill:#0000ff;fill-opacity:1;stroke-width:0.00502149"
       d="m 39.822162,27.391907 c -0.113029,-0.01573 -0.212905,-0.06642 -0.287567,-0.145936 -0.04286,-0.04565 -0.06873,-0.08708 -0.08808,-0.141095 -0.0852,-0.237748 0.07037,-0.488118 0.338292,-0.544444 0.06386,-0.01343 0.17701,-0.01058 0.236479,0.0059 0.130679,0.03632 0.239792,0.125548 0.294531,0.240854 0.02654,0.05591 0.03631,0.100859 0.03642,0.167613 3.31e-4,0.196083 -0.147771,0.364767 -0.360181,0.410232 -0.04518,0.0097 -0.126099,0.01292 -0.169891,0.0068 z"
       id="path119"
       inkscape:connector-curvature="0" />
    <path
       style="fill:#0000ff;fill-opacity:1;stroke-width:0.03791832"
       d="m 38.032271,26.982943 c -0.485376,-0.164939 -0.781585,-0.57376 -0.774404,-1.068791 0.0087,-0.590161 0.526071,-1.043777 1.19081,-1.043777 0.334594,0 0.570926,0.0805 0.789946,0.269006 0.251495,0.21648 0.370815,0.434666 0.394322,0.721005 0.02801,0.342587 -0.06414,0.587036 -0.313567,0.830979 -0.333171,0.325797 -0.845174,0.441759 -1.287102,0.291588 z"
       id="path121"
       inkscape:connector-curvature="0" />
    <path
       style="fill:#0000ff;fill-opacity:1;stroke-width:0.00314559"
       d="m 40.089464,26.503016 c -0.106529,-0.01657 -0.178443,-0.101641 -0.164713,-0.194844 0.0095,-0.06442 0.05759,-0.119095 0.124891,-0.141957 0.02801,-0.0095 0.08262,-0.0118 0.111744,-0.0047 0.06908,0.01691 0.12506,0.06966 0.139945,0.131878 0.0062,0.02588 0.0027,0.07216 -0.0072,0.09567 -0.02137,0.05069 -0.06367,0.08844 -0.117734,0.105093 -0.02471,0.0076 -0.06708,0.01191 -0.08692,0.0088 z"
       id="path123"
       inkscape:connector-curvature="0" />
    <path
       style="fill:#0000ff;fill-opacity:1;stroke-width:0.00314559"
       d="m 39.807668,26.178816 c -0.03464,-0.0071 -0.06876,-0.0321 -0.08346,-0.06118 -0.0062,-0.01222 -0.0075,-0.01971 -0.0075,-0.04277 0,-0.0251 9.49e-4,-0.02963 0.0093,-0.04438 0.01187,-0.02088 0.03235,-0.03931 0.05542,-0.04985 0.01614,-0.0074 0.02184,-0.0083 0.05312,-0.0083 0.03135,0 0.03696,8.75e-4 0.05326,0.0083 0.02295,0.01049 0.04669,0.03196 0.05671,0.0513 0.0091,0.01763 0.01227,0.05289 0.0064,0.07135 -0.0096,0.02992 -0.04031,0.05974 -0.07297,0.07085 -0.01793,0.0061 -0.05206,0.0083 -0.07028,0.0046 z"
       id="path125"
       inkscape:connector-curvature="0" />
    <path
       style="fill:#ff00ff;fill-opacity:1;stroke-width:0.00629119"
       d="m 32.05067,23.308707 c -0.06688,-0.01829 -0.126349,-0.06442 -0.154266,-0.11968 -0.02093,-0.04142 -0.02093,-0.116295 -7e-6,-0.157704 0.08472,-0.167677 0.364091,-0.171171 0.451988,-0.0057 0.01784,0.03359 0.02071,0.0453 0.02071,0.0845 0,0.0392 -0.0029,0.05091 -0.02071,0.0845 -0.02491,0.0469 -0.06996,0.08514 -0.123648,0.104947 -0.04868,0.01796 -0.126738,0.02204 -0.174067,0.0091 z"
       id="path127"
       inkscape:connector-curvature="0" />
    <path
       style="fill:#ff00ff;fill-opacity:1;stroke-width:0.00629119"
       d="m 32.490152,22.960841 c -0.06884,-0.01874 -0.147222,-0.07978 -0.174556,-0.135936 l -0.0109,-0.0224 -0.02992,0.02426 c -0.05878,0.04766 -0.120155,0.06671 -0.196763,0.06106 -0.08627,-0.0064 -0.160468,-0.05222 -0.199804,-0.123501 -0.01974,-0.03577 -0.0217,-0.04404 -0.02185,-0.0921 -1.43e-4,-0.04528 0.0023,-0.05778 0.01743,-0.08774 0.02172,-0.04311 0.06979,-0.08789 0.117999,-0.109921 0.03291,-0.01504 0.04353,-0.01665 0.10984,-0.01665 0.0699,0 0.07541,9.64e-4 0.115357,0.02013 0.02491,0.01196 0.05381,0.0325 0.07116,0.05058 l 0.02921,0.03044 0.01758,-0.02473 c 0.05968,-0.08396 0.171878,-0.129328 0.276551,-0.111829 0.07664,0.01281 0.136948,0.04884 0.182415,0.108988 0.06941,0.09182 0.07148,0.221628 0.0051,0.319231 -0.02742,0.04031 -0.08412,0.08456 -0.130426,0.101796 -0.04649,0.0173 -0.130917,0.02123 -0.178404,0.0083 z"
       id="path129"
       inkscape:connector-curvature="0" />
    <path
       style="fill:#ff00ff;fill-opacity:1;stroke-width:0.00629119"
       d="m 32.90652,22.905766 c -0.01742,-0.01478 -0.01776,-0.01609 -0.0084,-0.03284 0.01319,-0.02359 0.04514,-0.02738 0.05972,-0.0071 0.01225,0.01706 0.01269,0.02452 0.0022,0.03753 -0.01461,0.01812 -0.03398,0.01899 -0.05353,0.0024 z"
       id="path131"
       inkscape:connector-curvature="0" />
    <path
       style="fill:#ff00ff;fill-opacity:1;stroke-width:0.00629119"
       d="m 33.092,22.822065 c -0.03153,-0.01396 -0.05745,-0.04294 -0.06741,-0.07536 -0.01964,-0.06392 0.04788,-0.130373 0.132474,-0.130373 0.03484,0 0.08821,0.02727 0.107474,0.05491 0.01843,0.02645 0.02122,0.07195 0.0061,0.100369 -0.028,0.0528 -0.116779,0.07787 -0.178674,0.05045 z"
       id="path133"
       inkscape:connector-curvature="0" />
    <path
       style="fill:#ff00ff;fill-opacity:1;stroke-width:0.00629119"
       d="m 33.197394,22.492032 c -0.138768,-0.01858 -0.288292,-0.0706 -0.401825,-0.139798 -0.05162,-0.03146 -0.129591,-0.09417 -0.178593,-0.14363 -0.156137,-0.157599 -0.241844,-0.347295 -0.257821,-0.570642 -0.0036,-0.05076 0.004,-0.161164 0.01378,-0.199122 0.0034,-0.0132 0.0017,-0.01519 -0.01271,-0.01519 -0.03659,0 -0.05602,-0.04792 -0.02907,-0.0717 0.0079,-0.0069 0.02345,-0.01176 0.03932,-0.01215 0.02576,-6.29e-4 0.02651,-0.0013 0.03733,-0.03233 0.07376,-0.211562 0.254248,-0.408202 0.47297,-0.515297 0.16092,-0.07879 0.369218,-0.115371 0.545987,-0.09588 0.236076,0.02604 0.438979,0.120821 0.59911,0.279875 0.134581,0.133676 0.221276,0.300178 0.252354,0.484664 0.01493,0.08861 0.0088,0.249164 -0.01271,0.332849 -0.08967,0.348944 -0.371222,0.609296 -0.742172,0.686294 -0.07015,0.01456 -0.255881,0.02142 -0.325959,0.01204 z"
       id="path135"
       inkscape:connector-curvature="0" />
    <path
       style="fill:#ff00ff;fill-opacity:1;stroke-width:0.00629119"
       d="m 32.254922,22.320352 c -0.03815,-0.01853 -0.0669,-0.05563 -0.07375,-0.09516 -0.01702,-0.09821 0.102783,-0.179617 0.200666,-0.136354 0.05487,0.02425 0.08283,0.06404 0.08283,0.11787 0,0.10032 -0.112122,0.161068 -0.209744,0.11364 z"
       id="path137"
       inkscape:connector-curvature="0" />
    <path
       style="fill:#ff00ff;fill-opacity:1;stroke-width:0.00629119"
       d="m 32.299006,22.022218 c -0.039,-0.0128 -0.05734,-0.03547 -0.05734,-0.07087 0,-0.01397 0.0062,-0.02561 0.02166,-0.04068 0.01882,-0.01835 0.02582,-0.02112 0.0533,-0.02112 0.09283,0 0.102568,0.116761 0.01105,0.13252 -0.01051,0.0018 -0.02342,0.0019 -0.02867,1.58e-4 z"
       id="path139"
       inkscape:connector-curvature="0" />
    <path
       style="fill:#ff00ff;fill-opacity:1;stroke-width:0.00629119"
       d="m 31.988049,21.753828 c -0.109276,-0.0378 -0.121221,-0.161139 -0.02077,-0.214442 0.02975,-0.01579 0.03822,-0.01741 0.08015,-0.01534 0.03953,0.0019 0.0512,0.0052 0.07436,0.02093 0.0489,0.03313 0.06933,0.09614 0.04585,0.141444 -0.03327,0.0642 -0.107903,0.09221 -0.179595,0.06742 z"
       id="path141"
       inkscape:connector-curvature="0" />
    <path
       style="fill:#ff00ff;fill-opacity:1;stroke-width:0.00629119"
       d="m 32.107905,21.364063 c -0.04324,-0.01828 -0.07664,-0.06342 -0.07636,-0.103223 4.18e-4,-0.06097 0.06254,-0.116803 0.129834,-0.116685 0.11076,1.97e-4 0.171681,0.114452 0.100589,0.188657 -0.03649,0.03808 -0.105016,0.05199 -0.154059,0.03125 z"
       id="path143"
       inkscape:connector-curvature="0" />
    <path
       style="fill:#ff00ff;fill-opacity:1;stroke-width:0.00629119"
       d="m 32.34205,21.07147 c -0.02284,-0.01429 -0.03869,-0.04712 -0.03362,-0.06964 0.0058,-0.02565 0.03575,-0.0507 0.06528,-0.05456 0.06844,-0.0089 0.111215,0.06199 0.06668,0.110588 -0.02259,0.02465 -0.07017,0.03123 -0.09834,0.01362 z"
       id="path145"
       inkscape:connector-curvature="0" />
    <path
       style="fill:#ff00ff;fill-opacity:1;stroke-width:0.00629119"
       d="m 32.129296,20.837111 c -0.0908,-0.01672 -0.18614,-0.08293 -0.227664,-0.158109 -0.09282,-0.168061 9.48e-4,-0.368178 0.199419,-0.425588 0.04426,-0.0128 0.138712,-0.01305 0.188175,-4.88e-4 0.117061,0.02973 0.214013,0.130954 0.233943,0.244262 0.03585,0.203797 -0.169705,0.381192 -0.393873,0.339923 z"
       id="path147"
       inkscape:connector-curvature="0" />
    <path
       style="fill:#ff00ff;fill-opacity:1;stroke-width:0.00629119"
       d="m 32.648883,20.794518 c -0.0708,-0.04651 -0.03625,-0.141133 0.05153,-0.141133 0.04876,0 0.08915,0.03518 0.08915,0.07765 0,0.0616 -0.0851,0.100005 -0.140684,0.06349 z"
       id="path149"
       inkscape:connector-curvature="0" />
    <path
       style="fill:#ff00ff;fill-opacity:1;stroke-width:0.00629119"
       d="m 32.724201,20.453541 c -0.05161,-0.01074 -0.08113,-0.04589 -0.08113,-0.09659 0,-0.03956 0.01884,-0.06828 0.05715,-0.08715 0.03433,-0.01691 0.0586,-0.01746 0.09321,-0.0021 0.05374,0.02379 0.07702,0.09279 0.04613,0.136677 -0.02919,0.04146 -0.06965,0.05872 -0.115361,0.0492 z"
       id="path151"
       inkscape:connector-curvature="0" />
    <path
       style="fill:#ff00ff;fill-opacity:1;stroke-width:0.00629119"
       d="m 32.91832,20.633507 c -0.0098,-0.0096 -0.0098,-0.03142 0,-0.041 0.01202,-0.01172 0.03578,-0.0088 0.04356,0.0054 0.01415,0.02578 -0.02272,0.05592 -0.04356,0.03561 z"
       id="path153"
       inkscape:connector-curvature="0" />
    <path
       style="fill:#ff00ff;fill-opacity:1;stroke-width:0.00629119"
       d="m 33.079521,20.573351 c -0.05318,-0.01361 -0.09711,-0.04899 -0.116309,-0.09367 -0.01514,-0.03522 -0.0082,-0.09373 0.01485,-0.125739 0.06589,-0.09139 0.21348,-0.09139 0.279367,0 0.02308,0.03201 0.02999,0.09052 0.01486,0.125739 -0.02903,0.06756 -0.120723,0.112117 -0.192768,0.09367 z"
       id="path155"
       inkscape:connector-curvature="0" />
    <path
       style="fill:#ff00ff;fill-opacity:1;stroke-width:0.00629119"
       d="m 33.556116,20.584934 c -0.07061,-0.02245 -0.126749,-0.0766 -0.145851,-0.140659 -0.02486,-0.08335 0.02478,-0.177391 0.115614,-0.219015 0.122913,-0.05633 0.273623,-0.01241 0.32818,0.09563 0.01824,0.03612 0.0199,0.04418 0.01757,0.08525 -0.0044,0.07735 -0.03988,0.126957 -0.117642,0.164427 -0.04241,0.02043 -0.05446,0.02336 -0.103193,0.02503 -0.04215,0.0014 -0.06451,-0.0011 -0.09468,-0.01067 z"
       id="path157"
       inkscape:connector-curvature="0" />
    <path
       style="fill:#ff00ff;fill-opacity:1;stroke-width:0.00629119"
       d="m 34.029003,20.873296 c -0.02764,-0.0099 -0.06331,-0.04005 -0.07636,-0.06461 -0.02279,-0.04293 -0.01645,-0.09068 0.01696,-0.12779 0.03216,-0.03571 0.06444,-0.04894 0.119802,-0.0491 0.05611,-1.69e-4 0.09116,0.01536 0.123675,0.05479 0.01797,0.02179 0.01969,0.02782 0.01969,0.06931 0,0.04129 -0.0018,0.04761 -0.01943,0.06931 -0.028,0.03439 -0.07892,0.05815 -0.123476,0.0576 -0.01952,-2.41e-4 -0.04691,-0.0045 -0.06086,-0.0095 z"
       id="path159"
       inkscape:connector-curvature="0" />
    <path
       style="fill:#ff00ff;fill-opacity:1;stroke-width:0.00629119"
       d="m 34.380581,20.652792 c -0.06825,-0.01566 -0.141295,-0.06742 -0.1715,-0.121528 -0.06449,-0.115513 -0.01248,-0.251597 0.11848,-0.310052 0.108069,-0.04824 0.235718,-0.02954 0.318327,0.04663 0.01869,0.01723 0.04233,0.04603 0.05255,0.06401 0.01704,0.02999 0.01857,0.03779 0.01857,0.0948 -4e-6,0.05608 -0.0017,0.06534 -0.01791,0.09527 -0.03374,0.06247 -0.09633,0.109156 -0.17323,0.129213 -0.03561,0.0093 -0.108393,0.01011 -0.145281,0.0017 z"
       id="path161"
       inkscape:connector-curvature="0" />
    <path
       style="fill:#ff00ff;fill-opacity:1;stroke-width:0.00629119"
       d="m 34.720194,21.488061 c -0.211834,-0.03948 -0.357604,-0.238187 -0.316107,-0.430906 0.06231,-0.289368 0.427332,-0.40298 0.651562,-0.202795 0.05439,0.04856 0.08749,0.09855 0.108274,0.163549 0.01453,0.04543 0.01612,0.05919 0.01365,0.118317 -0.0031,0.07416 -0.0156,0.116783 -0.05112,0.174192 -0.0441,0.07127 -0.131315,0.137739 -0.215017,0.163865 -0.04071,0.01271 -0.153415,0.02083 -0.191244,0.01378 z"
       id="path163"
       inkscape:connector-curvature="0" />
    <path
       style="fill:#ff00ff;fill-opacity:1;stroke-width:0.00629119"
       d="m 34.421804,21.73368 c -0.0833,-0.04122 -0.08371,-0.150899 -7.27e-4,-0.192175 0.02912,-0.01448 0.08562,-0.01636 0.116137,-0.0038 0.04821,0.01975 0.07886,0.07324 0.06825,0.119096 -0.0067,0.02887 -0.02014,0.04807 -0.04851,0.06916 -0.03248,0.02416 -0.0948,0.02774 -0.135157,0.0078 z"
       id="path165"
       inkscape:connector-curvature="0" />
    <path
       style="fill:#ff00ff;fill-opacity:1;stroke-width:0.00629119"
       d="m 35.422133,20.923766 c -0.105604,-0.02333 -0.218345,-0.108393 -0.261691,-0.197455 -0.06933,-0.14245 -0.03824,-0.295533 0.08208,-0.404134 0.156368,-0.14114 0.40747,-0.136348 0.557316,0.01064 0.0731,0.07171 0.105468,0.146251 0.105468,0.242923 0,0.153821 -0.09989,0.28332 -0.259459,0.33635 -0.06129,0.02037 -0.16084,0.02557 -0.22371,0.01168 z"
       id="path167"
       inkscape:connector-curvature="0" />
    <path
       style="fill:#892ca0;fill-opacity:1;stroke-width:0.00889708"
       d="m 33.128309,22.478131 c -0.136404,-0.03019 -0.245466,-0.07432 -0.348576,-0.141048 -0.296131,-0.191634 -0.458379,-0.533004 -0.410192,-0.863044 0.0064,-0.04409 0.0056,-0.04691 -0.01643,-0.05718 -0.02433,-0.01133 -0.03581,-0.04578 -0.02029,-0.06091 0.0049,-0.0048 0.02164,-0.01125 0.03717,-0.01436 0.02541,-0.0051 0.03128,-0.01292 0.05878,-0.07843 0.05918,-0.14096 0.189458,-0.29932 0.321485,-0.390771 0.295322,-0.204562 0.69507,-0.233718 1.021374,-0.0745 0.195244,0.09527 0.371581,0.281132 0.44938,0.473654 0.04917,0.121686 0.06205,0.200194 0.05737,0.349903 -0.0036,0.113897 -0.0081,0.148791 -0.02804,0.213369 -0.09314,0.302326 -0.335102,0.531964 -0.659818,0.626212 -0.07087,0.02057 -0.09907,0.02366 -0.242392,0.02657 -0.119715,0.0024 -0.177286,-5.2e-5 -0.21982,-0.0095 z"
       id="path171"
       inkscape:connector-curvature="0" />
    <path
       style="fill:#892ca0;fill-opacity:1;stroke-width:0.00444854"
       d="m 33.106299,22.825121 c -0.03077,-0.01076 -0.04831,-0.02374 -0.06473,-0.04792 -0.02344,-0.03451 -0.02423,-0.06506 -0.0026,-0.101061 0.01911,-0.03179 0.07191,-0.05862 0.115369,-0.05862 0.02274,0 0.0629,0.01507 0.08583,0.03221 0.04653,0.03478 0.0521,0.09904 0.01225,0.141188 -0.03354,0.03548 -0.0988,0.05075 -0.146131,0.0342 z"
       id="path173"
       inkscape:connector-curvature="0" />
    <path
       style="fill:#892ca0;fill-opacity:1;stroke-width:0.00444854"
       d="m 32.909981,22.906167 c -0.02004,-0.01317 -0.02118,-0.02229 -0.0048,-0.03829 0.01755,-0.01711 0.03689,-0.01773 0.04991,-0.0016 0.01219,0.0151 0.01182,0.02854 -0.0011,0.04037 -0.01332,0.0122 -0.02495,0.01207 -0.04407,-4.82e-4 z"
       id="path175"
       inkscape:connector-curvature="0" />
    <path
       style="fill:#892ca0;fill-opacity:1;stroke-width:0.00444854"
       d="m 32.514395,22.963811 c -0.03868,-0.0054 -0.08559,-0.02735 -0.126607,-0.05926 -0.03582,-0.02786 -0.05289,-0.04709 -0.0719,-0.08099 l -0.01171,-0.02088 -0.03141,0.02389 c -0.03606,0.02743 -0.06728,0.04352 -0.101832,0.05249 -0.03133,0.0081 -0.107367,0.0081 -0.138872,-9.8e-5 -0.06903,-0.01791 -0.125275,-0.06233 -0.156198,-0.123342 -0.01724,-0.03402 -0.01746,-0.03509 -0.01742,-0.08519 3.7e-5,-0.04804 8.13e-4,-0.05233 0.01464,-0.08088 0.02063,-0.04257 0.06792,-0.08785 0.115738,-0.110796 l 0.03581,-0.01718 h 0.07706 0.07706 l 0.03532,0.01702 c 0.02438,0.01175 0.04599,0.02696 0.06978,0.04912 l 0.03446,0.0321 0.01559,-0.02228 c 0.04827,-0.069 0.143994,-0.117531 0.231844,-0.117531 0.07244,0 0.147142,0.0305 0.198198,0.08093 0.05537,0.05469 0.08043,0.114898 0.08053,0.193447 8.9e-5,0.07565 -0.02643,0.140466 -0.07824,0.1912 -0.04988,0.04885 -0.0944,0.07039 -0.162795,0.07875 -0.04217,0.0052 -0.04858,0.0051 -0.08905,-5.21e-4 z"
       id="path177"
       inkscape:connector-curvature="0" />
    <path
       style="fill:#892ca0;fill-opacity:1;stroke-width:0.00444854"
       d="m 32.067907,23.311021 c -0.03928,-0.0061 -0.09431,-0.03499 -0.127477,-0.06685 -0.04087,-0.03926 -0.05356,-0.06658 -0.05626,-0.121054 -0.0026,-0.0525 0.0047,-0.08021 0.03106,-0.118768 0.04293,-0.06268 0.121464,-0.09874 0.213491,-0.09804 0.100713,7.67e-4 0.180677,0.04635 0.221058,0.12601 0.01603,0.03162 0.01685,0.03533 0.01685,0.07677 0,0.04101 -9.56e-4,0.0455 -0.01646,0.07732 -0.04569,0.09379 -0.159055,0.143836 -0.28227,0.124604 z"
       id="path179"
       inkscape:connector-curvature="0" />
    <path
       style="fill:#892ca0;fill-opacity:1;stroke-width:0.00444854"
       d="m 32.291979,22.33188 c -0.02467,-0.006 -0.05294,-0.02078 -0.07017,-0.03658 -0.04055,-0.0372 -0.05139,-0.09729 -0.02571,-0.142583 0.02655,-0.04683 0.07272,-0.073 0.128614,-0.0729 0.07347,1.38e-4 0.129852,0.04687 0.138063,0.114462 0.0035,0.02874 -0.0074,0.06536 -0.02679,0.09022 -0.02866,0.0367 -0.09648,0.05902 -0.144003,0.04738 z"
       id="path181"
       inkscape:connector-curvature="0" />
    <path
       style="fill:#892ca0;fill-opacity:1;stroke-width:0.00444854"
       d="m 32.279734,22.012015 c -0.03339,-0.01746 -0.04588,-0.0567 -0.02734,-0.08594 0.01563,-0.02466 0.0315,-0.03331 0.06107,-0.03331 0.051,0 0.07606,0.02292 0.07316,0.06692 -0.0013,0.01915 -0.0043,0.02798 -0.01264,0.0368 -0.02259,0.02388 -0.06493,0.03085 -0.09426,0.01552 z"
       id="path183"
       inkscape:connector-curvature="0" />
    <path
       style="fill:#892ca0;fill-opacity:1;stroke-width:0.00444854"
       d="m 31.993138,21.753677 c -0.05319,-0.01531 -0.09202,-0.06212 -0.09183,-0.110683 1.73e-4,-0.04323 0.02258,-0.07773 0.06659,-0.102529 0.02453,-0.01383 0.02767,-0.01445 0.07072,-0.01412 0.04931,3.74e-4 0.06425,0.0049 0.09382,0.02871 0.02681,0.02155 0.04103,0.05265 0.0412,0.0901 1.33e-4,0.02924 -10e-4,0.03293 -0.01716,0.0558 -0.03648,0.05165 -0.09805,0.07152 -0.163346,0.05272 z"
       id="path185"
       inkscape:connector-curvature="0" />
    <path
       style="fill:#892ca0;fill-opacity:1;stroke-width:0.00444854"
       d="m 32.13505,21.36996 c -0.01139,-0.0019 -0.02707,-0.0066 -0.03484,-0.01049 -0.03021,-0.01523 -0.05857,-0.05184 -0.06594,-0.08513 -0.0082,-0.03715 0.02153,-0.0885 0.06518,-0.112477 0.02232,-0.01226 0.02859,-0.01361 0.06308,-0.01361 0.03137,0 0.04196,0.0019 0.05857,0.01028 0.05154,0.02613 0.07668,0.07169 0.0671,0.121653 -0.0081,0.04242 -0.05235,0.08186 -0.09862,0.08795 -0.01116,0.0015 -0.02334,0.0032 -0.02705,0.0039 -0.0037,6.89e-4 -0.01608,-2.56e-4 -0.02747,-0.0021 z"
       id="path187"
       inkscape:connector-curvature="0" />
    <path
       style="fill:#892ca0;fill-opacity:1;stroke-width:0.00444854"
       d="m 32.1434,20.838208 c -0.0679,-0.0097 -0.135677,-0.04459 -0.190705,-0.09818 -0.05745,-0.05595 -0.0844,-0.119147 -0.0844,-0.197931 0,-0.08025 0.02685,-0.141291 0.0891,-0.202557 0.03457,-0.03402 0.04711,-0.04311 0.08348,-0.06049 0.05243,-0.02506 0.09085,-0.03329 0.155435,-0.03329 0.06408,0 0.103101,0.0082 0.153182,0.03235 0.06588,0.03172 0.12007,0.08672 0.150414,0.15265 0.03983,0.08654 0.03197,0.184044 -0.02122,0.263444 -0.07063,0.105428 -0.204075,0.16274 -0.335282,0.144003 z"
       id="path189"
       inkscape:connector-curvature="0" />
    <path
       style="fill:#892ca0;fill-opacity:1;stroke-width:0.00444854"
       d="m 32.348222,21.072861 c -0.01745,-0.0084 -0.02985,-0.02413 -0.03578,-0.0454 -0.01442,-0.05183 0.05371,-0.09737 0.106789,-0.07137 0.04898,0.02399 0.04794,0.09372 -0.0017,0.115716 -0.02271,0.01005 -0.0497,0.01047 -0.06928,0.0011 z"
       id="path191"
       inkscape:connector-curvature="0" />
    <path
       style="fill:#892ca0;fill-opacity:1;stroke-width:0.00444854"
       d="m 32.670686,20.803494 c -0.03593,-0.01056 -0.06002,-0.04452 -0.05655,-0.07971 0.0049,-0.04935 0.05669,-0.0797 0.111527,-0.0653 0.0267,0.007 0.05663,0.03582 0.06105,0.05877 0.01077,0.05595 -0.05436,0.104357 -0.116021,0.08624 z"
       id="path193"
       inkscape:connector-curvature="0" />
    <path
       style="fill:#892ca0;fill-opacity:1;stroke-width:0.00444854"
       d="m 32.925463,20.636225 c -0.02349,-0.0085 -0.0138,-0.04801 0.01176,-0.04801 0.02371,0 0.03414,0.01921 0.02063,0.03801 -0.0079,0.01102 -0.01958,0.01462 -0.03239,0.01 z"
       id="path195"
       inkscape:connector-curvature="0" />
    <path
       style="fill:#892ca0;fill-opacity:1;stroke-width:0.00444854"
       d="m 34.433258,21.737642 c -0.02278,-0.0071 -0.06114,-0.04517 -0.06716,-0.06669 -0.01268,-0.04535 0.0019,-0.09122 0.03694,-0.116357 0.025,-0.01792 0.04728,-0.02313 0.09117,-0.02132 0.03134,0.0013 0.03977,0.0034 0.05865,0.0148 0.04354,0.02625 0.06304,0.08135 0.04504,0.127293 -0.0094,0.02391 -0.04413,0.05557 -0.069,0.06283 -0.02185,0.0064 -0.07426,0.0061 -0.09564,-5.61e-4 z"
       id="path197"
       inkscape:connector-curvature="0" />
    <path
       style="fill:#892ca0;fill-opacity:1;stroke-width:0.00444854"
       d="m 34.687776,21.479661 c -0.152084,-0.04349 -0.265507,-0.167869 -0.286427,-0.31411 -0.01242,-0.08678 0.01758,-0.187423 0.07908,-0.265343 0.04992,-0.06325 0.126574,-0.110863 0.216742,-0.134626 0.02416,-0.0064 0.04584,-0.0081 0.09648,-0.0078 0.05718,3.37e-4 0.07028,0.0018 0.105009,0.01211 0.122934,0.03632 0.216727,0.121925 0.260575,0.237826 0.01465,0.03874 0.01495,0.04095 0.01483,0.109811 -1.41e-4,0.08254 -0.0055,0.107452 -0.03569,0.167498 -0.04451,0.08838 -0.1528,0.172488 -0.248433,0.192953 -0.01703,0.0036 -0.06239,0.0075 -0.100793,0.0087 -0.06115,0.0018 -0.07375,9.25e-4 -0.101371,-0.007 z"
       id="path199"
       inkscape:connector-curvature="0" />
    <path
       style="fill:#892ca0;fill-opacity:1;stroke-width:0.00444854"
       d="m 35.435667,20.924557 c -0.08901,-0.01721 -0.177543,-0.07055 -0.236525,-0.142518 -0.04622,-0.05639 -0.06748,-0.113992 -0.07074,-0.191629 -0.0027,-0.06354 0.0047,-0.103046 0.02802,-0.150995 0.05751,-0.118064 0.174089,-0.199032 0.310787,-0.215851 0.178888,-0.02201 0.36037,0.08253 0.418615,0.241144 0.0134,0.03649 0.0139,0.04046 0.0139,0.110328 0,0.06999 -4.85e-4,0.07378 -0.01402,0.110663 -0.04316,0.117558 -0.15019,0.208004 -0.277372,0.234383 -0.0469,0.0097 -0.133831,0.01198 -0.172662,0.0045 z"
       id="path201"
       inkscape:connector-curvature="0" />
    <path
       style="fill:#892ca0;fill-opacity:1;stroke-width:0.00444854"
       d="m 34.394212,20.653982 c -0.07485,-0.01316 -0.161,-0.07403 -0.188922,-0.133496 -0.01826,-0.03888 -0.02566,-0.08223 -0.02006,-0.117424 0.0129,-0.08103 0.0589,-0.140454 0.137133,-0.177141 0.04258,-0.01997 0.08176,-0.02849 0.131315,-0.02857 0.04858,-7.7e-5 0.08264,0.0077 0.128223,0.0292 0.04256,0.02009 0.09901,0.07376 0.119392,0.113494 0.0131,0.02555 0.01351,0.02824 0.01344,0.08785 l -7.4e-5,0.0615 -0.01733,0.03176 c -0.0315,0.05772 -0.0985,0.109079 -0.165019,0.126486 -0.0313,0.0082 -0.107658,0.0117 -0.138095,0.0063 z"
       id="path203"
       inkscape:connector-curvature="0" />
    <path
       style="fill:#892ca0;fill-opacity:1;stroke-width:0.00444854"
       d="m 34.054414,20.878323 c -0.04139,-0.0073 -0.08676,-0.04104 -0.10378,-0.07708 -0.02644,-0.05598 0.0068,-0.128488 0.07205,-0.157339 0.03091,-0.01366 0.101619,-0.01313 0.134422,0.001 0.02484,0.01071 0.06131,0.0447 0.06894,0.06425 0.0024,0.0063 0.0044,0.02856 0.0044,0.04954 -1.3e-5,0.02934 -0.0019,0.04119 -0.0083,0.05132 -0.03213,0.05101 -0.102843,0.0798 -0.167733,0.06829 z"
       id="path205"
       inkscape:connector-curvature="0" />
    <path
       style="fill:#892ca0;fill-opacity:1;stroke-width:0.00444854"
       d="m 33.554573,20.582814 c -0.05963,-0.02024 -0.106537,-0.06035 -0.132365,-0.113196 -0.01258,-0.02575 -0.01395,-0.03267 -0.01395,-0.07051 0,-0.03955 9.59e-4,-0.04385 0.01672,-0.07494 0.08282,-0.163369 0.349878,-0.161864 0.429904,0.0024 0.01611,0.03307 0.01633,0.03426 0.01408,0.07623 -0.0032,0.05914 -0.01451,0.08657 -0.05019,0.121355 -0.0198,0.0193 -0.03912,0.03249 -0.06814,0.04653 l -0.04051,0.01959 -0.06308,0.0012 c -0.05597,0.0011 -0.06639,1.24e-4 -0.09246,-0.0087 z"
       id="path207"
       inkscape:connector-curvature="0" />
    <path
       style="fill:#892ca0;fill-opacity:1;stroke-width:0.00444854"
       d="m 33.058602,20.564695 c -0.04262,-0.01709 -0.07038,-0.04124 -0.09052,-0.07873 -0.01415,-0.02634 -0.01402,-0.07974 2.62e-4,-0.111221 0.04248,-0.09362 0.185397,-0.116975 0.266,-0.04347 0.03082,0.02811 0.04276,0.05629 0.04281,0.101006 3.5e-5,0.03779 -0.007,0.05697 -0.0314,0.0852 -0.04292,0.04973 -0.127605,0.07109 -0.187154,0.04721 z"
       id="path209"
       inkscape:connector-curvature="0" />
    <path
       style="fill:#892ca0;fill-opacity:1;stroke-width:0.00444854"
       d="m 32.724697,20.452348 c -0.02599,-0.0051 -0.0578,-0.02656 -0.06812,-0.04603 -0.01132,-0.02134 -0.01478,-0.05788 -0.0075,-0.07934 0.01237,-0.03654 0.05834,-0.06811 0.09916,-0.06811 0.06917,0 0.121995,0.07146 0.09664,0.130731 -0.01907,0.04458 -0.07188,0.07216 -0.120157,0.06275 z"
       id="path211"
       inkscape:connector-curvature="0" />
  </g>
</svg>
