<?xml version="1.0" encoding="UTF-8" standalone="no"?>
<svg
   xmlns:dc="http://purl.org/dc/elements/1.1/"
   xmlns:cc="http://creativecommons.org/ns#"
   xmlns:rdf="http://www.w3.org/1999/02/22-rdf-syntax-ns#"
   xmlns:svg="http://www.w3.org/2000/svg"
   xmlns="http://www.w3.org/2000/svg"
   xmlns:sodipodi="http://sodipodi.sourceforge.net/DTD/sodipodi-0.dtd"
   xmlns:inkscape="http://www.inkscape.org/namespaces/inkscape"
   width="24"
   height="24"
   viewBox="0 0 24 24"
   version="1.1"
   id="svg23"
   sodipodi:docname="bintable.svg"
   inkscape:version="0.92.5 (2060ec1f9f, 2020-04-08)">
  <metadata
     id="metadata27">
    <rdf:RDF>
      <cc:Work
         rdf:about="">
        <dc:format>image/svg+xml</dc:format>
        <dc:type
           rdf:resource="http://purl.org/dc/dcmitype/StillImage" />
        <dc:title></dc:title>
      </cc:Work>
    </rdf:RDF>
  </metadata>
  <sodipodi:namedview
     pagecolor="#ffffff"
     bordercolor="#666666"
     borderopacity="1"
     objecttolerance="10"
     gridtolerance="10"
     guidetolerance="10"
     inkscape:pageopacity="0"
     inkscape:pageshadow="2"
     inkscape:window-width="1619"
     inkscape:window-height="1128"
     id="namedview25"
     showgrid="false"
     inkscape:zoom="29.271318"
     inkscape:cx="13.232372"
     inkscape:cy="13.701541"
     inkscape:window-x="0"
     inkscape:window-y="0"
     inkscape:window-maximized="0"
     inkscape:current-layer="svg23" />
  <defs
     id="defs4">
    <clipPath
       id="clip-path">
      <rect
         id="Rechteck_1"
         data-name="Rechteck 1"
         width="109"
         height="129"
         x="0"
         y="0"
         style="fill:#ffffff;stroke:#707070;stroke-width:1" />
    </clipPath>
  </defs>
  <g
     id="Gruppe_1"
     data-name="Gruppe 1"
     transform="matrix(0.23667209,0,0,0.21029051,-41.340587,-44.716003)">
    <g
       id="Layer_2"
       data-name="Layer 2"
       transform="translate(184.988,250.973)">
      <g
         id="invisible_box"
         data-name="invisible box">
        <path
           id="Rechteck_2"
           data-name="Rechteck 2"
           d="M 0,0 H 44.161 V 37.663 H 0 Z"
           inkscape:connector-curvature="0"
           style="fill:none" />
      </g>
      <g
         id="icons_Q2"
         data-name="icons Q2"
         transform="translate(6.127,5.81)">
        <path
           id="Pfad_1"
           data-name="Pfad 1"
           d="M 44.067,2.96 A 3.49,3.49 0 0 1 43.875,4.112 3.061,3.061 0 0 1 43.35,5.053 2.485,2.485 0 0 1 42.572,5.687 2.083,2.083 0 0 1 41.619,5.92 H 2.448 A 2.083,2.083 0 0 1 1.5,5.687 2.485,2.485 0 0 1 0.722,5.053 3.061,3.061 0 0 1 0.197,4.112 3.49,3.49 0 0 1 0,2.96 v 0 A 3.49,3.49 0 0 1 0.192,1.808 3.061,3.061 0 0 1 0.717,0.867 2.485,2.485 0 0 1 1.5,0.233 2.083,2.083 0 0 1 2.448,0 h 39.171 a 2.083,2.083 0 0 1 0.953,0.233 2.485,2.485 0 0 1 0.778,0.634 3.061,3.061 0 0 1 0.525,0.941 3.49,3.49 0 0 1 0.192,1.152 z"
           inkscape:connector-curvature="0"
           style="fill:#707070" />
        <path
           id="Pfad_2"
           data-name="Pfad 2"
           d="M 27.624,2.96 A 4.257,4.257 0 0 1 27.469,4.112 3.326,3.326 0 0 1 27.046,5.053 2.161,2.161 0 0 1 26.419,5.687 1.424,1.424 0 0 1 25.651,5.92 H 1.973 A 1.424,1.424 0 0 1 1.205,5.687 2.161,2.161 0 0 1 0.578,5.053 3.326,3.326 0 0 1 0.155,4.112 4.257,4.257 0 0 1 0,2.96 v 0 A 4.257,4.257 0 0 1 0.155,1.808 3.326,3.326 0 0 1 0.578,0.867 2.161,2.161 0 0 1 1.205,0.233 1.424,1.424 0 0 1 1.973,0 h 23.678 a 1.424,1.424 0 0 1 0.768,0.233 2.161,2.161 0 0 1 0.627,0.634 3.326,3.326 0 0 1 0.423,0.941 4.257,4.257 0 0 1 0.155,1.152 z"
           transform="translate(0,17.971)"
           inkscape:connector-curvature="0"
           style="fill:#707070" />
        <path
           id="Pfad_3"
           data-name="Pfad 3"
           d="M 19.732,2.96 A 4.257,4.257 0 0 1 19.577,4.112 3.326,3.326 0 0 1 19.154,5.053 2.161,2.161 0 0 1 18.527,5.687 1.424,1.424 0 0 1 17.759,5.92 H 1.973 A 1.424,1.424 0 0 1 1.205,5.687 2.161,2.161 0 0 1 0.578,5.053 3.326,3.326 0 0 1 0.155,4.112 4.257,4.257 0 0 1 0,2.96 v 0 A 4.257,4.257 0 0 1 0.155,1.808 3.326,3.326 0 0 1 0.578,0.867 2.161,2.161 0 0 1 1.205,0.233 1.424,1.424 0 0 1 1.973,0 h 15.786 a 1.424,1.424 0 0 1 0.768,0.233 2.161,2.161 0 0 1 0.627,0.634 3.326,3.326 0 0 1 0.423,0.941 4.257,4.257 0 0 1 0.155,1.152 z"
           transform="translate(0,35.942)"
           inkscape:connector-curvature="0"
           style="fill:#707070" />
      </g>
    </g>
    <path
       id="Icon_metro-file-empty"
       data-name="Icon metro-file-empty"
       d="m 8.023,26.035 a 92.586,92.586 0 0 1 7.283,-10.492 84.4,84.4 0 0 1 8.329,-9.174 c 4.308,-3.98 6.4,-4.44 7.6,-4.44 h 41.429 c 3.685,0 6.683,3.777 6.683,8.419 v 90.922 c 0,4.642 -3,8.419 -6.683,8.419 H 11.182 c -3.685,0 -6.683,-3.777 -6.683,-8.419 V 35.6 c 0,-1.508 0.365,-4.141 3.525,-9.568 z M 19.086,20.3 a 88.576,88.576 0 0 0 -6.063,8.563 h 12.861 v -16.2 a 81.662,81.662 0 0 0 -6.8,7.637 z m -9.241,80.97 a 1.562,1.562 0 0 0 1.337,1.684 H 72.664 A 1.562,1.562 0 0 0 74,101.27 V 10.347 A 1.562,1.562 0 0 0 72.663,8.663 H 31.23 v 23.573 c 0,1.86 -1.2,3.368 -2.673,3.368 H 9.845 Z"
       transform="translate(171.005,211.028)"
       inkscape:connector-curvature="0"
       style="fill:#707070" />
    <g
       id="layer1"
       transform="translate(216.12,266.836)">
      <ellipse
         id="path10"
         cx="26.365999"
         cy="26.746"
         rx="26.365999"
         ry="26.746"
         transform="translate(2.148,2.955)"
         style="fill:none;stroke:#000000;stroke-width:4" />
      <path
         id="path10-3"
         d="M 6.3,0 A 26.876,26.876 0 0 1 0,17.309"
         transform="rotate(-65.237,26.877404,-22.922376)"
         inkscape:connector-curvature="0"
         style="fill:#ffffff;stroke:#d40000;stroke-width:10" />
      <path
         id="path10-3-6"
         d="M 56.129,267.9 A 26.618,26.618 0 0 1 38.164,293.181"
         transform="translate(-1.439,-238.095)"
         inkscape:connector-curvature="0"
         style="fill:#ffffff;stroke:#0055d4;stroke-width:10" />
      <path
         id="path10-3-7"
         d="M 6.252,0 A 26.877,26.877 0 0 1 0,17.256"
         transform="rotate(-164.089,6.4302903,11.119081)"
         inkscape:connector-curvature="0"
         style="fill:#ffffff;stroke:#ffcc00;stroke-width:10" />
      <path
         id="path10-3-6-5"
         d="M 9.287,0 A 26.187,26.187 0 0 1 0,5.491"
         transform="rotate(-161.225,14.155257,1.8651698)"
         inkscape:connector-curvature="0"
         style="fill:#ffffff;stroke:#0055d4;stroke-width:10" />
      <path
         id="path10-3-7-3"
         d="M 6.252,0 A 26.877,26.877 0 0 1 0,17.256"
         transform="rotate(113.881,-5.3793751,31.405863)"
         inkscape:connector-curvature="0"
         style="fill:#ffffff;stroke:#00aa00;stroke-width:10" />
      <path
         id="path10-3-6-5-5"
         d="M 4.852,0 A 26.277,26.277 0 0 1 0,3.514"
         transform="rotate(118.528,-7.3341637,18.486425)"
         inkscape:connector-curvature="0"
         style="fill:#ffffff;stroke:#d40000;stroke-width:10" />
    </g>
  </g>
</svg>
