<?xml version="1.0" encoding="UTF-8" standalone="no"?>
<svg
   xmlns:dc="http://purl.org/dc/elements/1.1/"
   xmlns:cc="http://creativecommons.org/ns#"
   xmlns:rdf="http://www.w3.org/1999/02/22-rdf-syntax-ns#"
   xmlns:svg="http://www.w3.org/2000/svg"
   xmlns="http://www.w3.org/2000/svg"
   xmlns:sodipodi="http://sodipodi.sourceforge.net/DTD/sodipodi-0.dtd"
   xmlns:inkscape="http://www.inkscape.org/namespaces/inkscape"
   width="60mm"
   height="60mm"
   viewBox="0 0 226.77166 226.77164"
   version="1.1"
   id="svg66"
   sodipodi:docname="Bin.svg"
   inkscape:version="0.92.5 (2060ec1f9f, 2020-04-08)">
  <metadata
     id="metadata70">
    <rdf:RDF>
      <cc:Work
         rdf:about="">
        <dc:format>image/svg+xml</dc:format>
        <dc:type
           rdf:resource="http://purl.org/dc/dcmitype/StillImage" />
        <dc:title></dc:title>
      </cc:Work>
    </rdf:RDF>
  </metadata>
  <sodipodi:namedview
     pagecolor="#ffffff"
     bordercolor="#666666"
     borderopacity="1"
     objecttolerance="10"
     gridtolerance="10"
     guidetolerance="10"
     inkscape:pageopacity="0"
     inkscape:pageshadow="2"
     inkscape:window-width="1604"
     inkscape:window-height="1067"
     id="namedview68"
     showgrid="false"
     units="mm"
     inkscape:zoom="2.1631233"
     inkscape:cx="118.45205"
     inkscape:cy="165.20192"
     inkscape:window-x="0"
     inkscape:window-y="0"
     inkscape:window-maximized="0"
     inkscape:current-layer="svg66" />
  <defs
     id="defs6">
    <clipPath
       id="clip-path">
      <rect
         id="Rechteck_3"
         data-name="Rechteck 3"
         width="72.186996"
         height="189.745"
         x="0"
         y="0"
         style="fill:#5500d4" />
    </clipPath>
    <clipPath
       id="clip-path-2">
      <path
         id="Pfad_2"
         data-name="Pfad 2"
         d="M 0,0 272.813,-2.913 268.3,410.564 -4.516,413.477 Z"
         inkscape:connector-curvature="0"
         style="fill:#138d65" />
    </clipPath>
  </defs>
  <g
     id="Gruppe_4"
     data-name="Gruppe 4"
     transform="matrix(0.55464694,0,0,0.61167129,-26.437029,-29.100355)">
    <g
       id="Gruppe_3"
       data-name="Gruppe 3"
       transform="translate(2.934,-6.673)">
      <g
         id="bacteria"
         transform="matrix(0.438,-0.899,0.899,0.438,226.158,112.851)">
        <g
           id="Gruppe_2"
           data-name="Gruppe 2"
           transform="translate(10.763,-3.024)"
           clip-path="url(#clip-path)">
          <path
             id="Pfad_1"
             data-name="Pfad 1"
             d="m 27.4,0.008 a 1.019,1.019 0 0 0 -0.58,0.236 1.123,1.123 0 0 0 -0.314,0.56 0.8,0.8 0 0 0 0.156,0.514 6.917,6.917 0 0 1 1.351,3.25 4.723,4.723 0 0 1 -0.036,1.647 c -0.038,0.378 -0.152,0.8 -0.23,1.177 -0.038,0.188 -0.082,0.427 -0.12,0.663 a 12.626,12.626 0 0 0 -0.266,2.266 9.8,9.8 0 0 0 0.35,2.531 3.564,3.564 0 0 0 0.11,0.383 1.831,1.831 0 0 1 -0.736,2.074 12.28,12.28 0 0 0 -1.037,0.663 1.031,1.031 0 0 1 -0.616,0.177 1.366,1.366 0 0 1 -1.28,-1.118 8.317,8.317 0 0 0 -0.965,-2.117 6.5,6.5 0 0 0 -3.246,-2.456 c -0.078,0 -0.116,-0.044 -0.194,-0.044 a 0.907,0.907 0 0 0 -0.772,0.56 0.82,0.82 0 0 0 -0.072,0.663 0.659,0.659 0 0 0 0.314,0.427 5.908,5.908 0 0 1 2.268,2.354 5.84,5.84 0 0 1 0.506,1.56 8.9,8.9 0 0 1 0.23,1.824 v 0.146 a 5.127,5.127 0 0 1 -0.036,1.089 2.394,2.394 0 0 1 -0.422,0.838 25.825,25.825 0 0 0 -2.125,3.016 0.963,0.963 0 0 1 -0.809,0.514 1.009,1.009 0 0 1 -0.506,-0.134 1.434,1.434 0 0 1 -0.314,-0.236 9.606,9.606 0 0 1 -0.917,-1.367 l -0.194,-0.339 a 15.151,15.151 0 0 0 -0.93,-1.457 6.27,6.27 0 0 0 -1.545,-1.544 5,5 0 0 0 -1.821,-0.766 6.265,6.265 0 0 0 -1.351,-0.134 H 10.72 c -0.348,0 -0.7,0.427 -0.736,0.9 a 0.929,0.929 0 0 0 0.11,0.647 0.681,0.681 0 0 0 0.386,0.3 5.593,5.593 0 0 1 2.825,1.22 4.487,4.487 0 0 1 0.93,1.22 c 0.194,0.378 0.384,0.8 0.616,1.22 l 0.194,0.383 a 9.4,9.4 0 0 0 1.088,1.882 c 0.078,0.1 0.261,0.378 0.531,0.707 a 2.683,2.683 0 0 1 0.386,2.544 c -0.426,1.177 -0.843,2.392 -1.075,3.191 -0.116,0.329 -0.346,0.573 -0.616,0.573 a 0.692,0.692 0 0 1 -0.506,-0.19 c -0.232,-0.236 -0.348,-0.38 -0.386,-0.427 l -0.072,-0.146 a 9.989,9.989 0 0 0 -1.014,-1.31 5.06,5.06 0 0 0 -1.387,-1.089 3.3,3.3 0 0 0 -1.545,-0.324 4.809,4.809 0 0 0 -1.351,0.19 0.911,0.911 0 0 0 -0.5,0.94 c 0.038,0.424 0.221,0.75 0.531,0.75 a 3.478,3.478 0 0 1 2.173,0.663 2.88,2.88 0 0 1 0.809,0.94 c 0.194,0.329 0.384,0.7 0.616,1.074 l 0.156,0.28 c 0.116,0.236 0.538,0.94 1,1.647 a 2.617,2.617 0 0 1 0.314,1.883 c -0.078,0.329 -0.118,0.565 -0.156,0.707 a 1.123,1.123 0 0 1 -1,0.9 8.512,8.512 0 0 0 -1.121,0.044 11.843,11.843 0 0 0 -1.821,0.573 l -0.072,0.044 a 8.908,8.908 0 0 1 -1.351,0.47 2.968,2.968 0 0 1 -0.894,0.087 1.557,1.557 0 0 1 -0.46,-0.044 6.13,6.13 0 0 1 -2.776,-1.31 0.418,0.418 0 0 0 -0.314,-0.1 0.784,0.784 0 0 0 -0.544,0.339 1.009,1.009 0 0 0 0.084,1.177 7.821,7.821 0 0 0 3.168,2.241 4.728,4.728 0 0 0 1.617,0.28 h 0.35 a 16.282,16.282 0 0 0 1.7,-0.28 l 0.12,-0.044 a 8.106,8.106 0 0 1 1.461,-0.19 0.784,0.784 0 0 1 0.544,0.339 1.036,1.036 0 0 1 0.12,0.707 c -0.194,0.94 -0.5,2.629 -0.736,4.134 a 0.915,0.915 0 0 1 -1.28,0.809 c -0.232,-0.141 -0.382,-0.188 -0.46,-0.236 A 5.037,5.037 0 0 0 8.445,47.17 H 8.061 a 7.212,7.212 0 0 0 -3.246,0.9 0.958,0.958 0 0 0 -0.386,1.089 0.687,0.687 0 0 0 0.616,0.56 H 5.2 a 6.787,6.787 0 0 1 1.859,-0.28 3.857,3.857 0 0 1 1.111,0.134 4.576,4.576 0 0 1 1.244,0.617 7.7,7.7 0 0 1 1.159,1.03 l 0.194,0.146 a 2.289,2.289 0 0 1 0.616,1.737 q -0.231,2.471 -0.35,4.944 a 1.041,1.041 0 0 1 -0.809,1.043 h -0.35 a 2.931,2.931 0 0 1 -0.881,-0.146 8.885,8.885 0 0 1 -1.4,-0.6 l -0.145,-0.1 A 11.057,11.057 0 0 0 5.854,57.537 5.5,5.5 0 0 0 4.163,57.257 H 3.886 a 6.956,6.956 0 0 0 -3.512,1.313 0.973,0.973 0 0 0 -0.314,1.118 0.686,0.686 0 0 0 0.58,0.47 0.3,0.3 0 0 0 0.194,-0.044 6.278,6.278 0 0 1 2.437,-0.56 2.16,2.16 0 0 1 0.544,0.044 3.128,3.128 0 0 1 1.315,0.47 14.036,14.036 0 0 1 1.231,0.853 l 0.072,0.044 A 7.922,7.922 0 0 0 8.1,62 a 5.631,5.631 0 0 0 1.931,0.514 1.151,1.151 0 0 1 0.894,1.177 c 0,0.424 0.036,1.272 0.036,2.117 0,0.658 -0.5,1.089 -1,0.853 H 9.908 a 10.462,10.462 0 0 0 -1.387,-0.514 3.1,3.1 0 0 0 -0.93,-0.1 4.412,4.412 0 0 0 -0.772,0.1 6.253,6.253 0 0 0 -2.9,1.781 1.178,1.178 0 0 0 -0.194,1.089 0.591,0.591 0 0 0 0.506,0.427 0.634,0.634 0 0 0 0.266,-0.1 4.754,4.754 0 0 1 2.365,-0.884 H 6.9 a 2.3,2.3 0 0 1 1.075,0.28 7.133,7.133 0 0 1 0.965,0.6 l 0.194,0.146 a 9.9,9.9 0 0 0 1.244,0.663 1.722,1.722 0 0 1 0.845,1.413 c 0.038,0.378 0.044,0.755 0.12,1.133 a 1.7,1.7 0 0 1 -0.93,1.883 6.39,6.39 0 0 0 -1.121,0.56 10.19,10.19 0 0 0 -1.581,1.22 l -0.072,0.044 c -0.426,0.378 -0.82,0.717 -1.208,1 A 3.772,3.772 0 0 1 5.164,77.962 3.209,3.209 0 0 1 4.199,78.049 6.479,6.479 0 0 1 2.184,77.725 H 2.041 a 0.736,0.736 0 0 0 -0.628,0.56 0.983,0.983 0 0 0 0.434,1.089 7.352,7.352 0 0 0 3.356,0.94 H 5.4 a 4.842,4.842 0 0 0 1.931,-0.47 9.031,9.031 0 0 0 1.545,-0.9 l 0.35,-0.236 a 4.547,4.547 0 0 1 1.075,-0.56 3.976,3.976 0 0 1 0.771,-0.1 h 0.048 a 1.149,1.149 0 0 1 1,1 c 0.194,1.177 0.384,2.449 0.616,3.767 a 1.726,1.726 0 0 1 -0.072,0.881 1.04,1.04 0 0 1 -0.965,0.663 h -0.278 a 4.385,4.385 0 0 0 -1.931,0.427 8.417,8.417 0 0 0 -3.052,2.5 1.013,1.013 0 0 0 -0.038,1.174 0.592,0.592 0 0 0 0.506,0.28 0.67,0.67 0 0 0 0.386,-0.146 6.293,6.293 0 0 1 2.7,-1.544 3.528,3.528 0 0 1 0.687,-0.1 3.382,3.382 0 0 1 0.664,0.044 c 0.426,0.1 0.85,0.242 1.351,0.383 l 0.156,0.044 a 2,2 0 0 1 1.267,1.457 c 0.194,0.658 0.51,1.894 0.856,3.119 a 1.9,1.9 0 0 1 0.036,0.94 1.439,1.439 0 0 1 -1,1.177 9.371,9.371 0 0 1 -1.471,0.236 h -0.156 a 11.141,11.141 0 0 0 -1.653,0.236 5.38,5.38 0 0 0 -1.859,0.838 9.121,9.121 0 0 0 -2.631,3.1 1.017,1.017 0 0 0 0.161,1.176 0.716,0.716 0 0 0 0.422,0.19 0.67,0.67 0 0 0 0.47,-0.236 6.952,6.952 0 0 1 2.426,-2.074 4.209,4.209 0 0 1 1.315,-0.324 h 0.23 a 11.309,11.309 0 0 1 1.208,0.087 h 0.072 a 8.518,8.518 0 0 0 1.159,0.1 3.559,3.559 0 0 0 0.7,-0.044 c 0.27,-0.046 0.723,-0.154 1.3,-0.293 0.078,0 0.164,-0.044 0.242,-0.044 a 1.155,1.155 0 0 1 1.037,0.853 c 0.194,0.565 0.384,1.082 0.616,1.647 a 1.7,1.7 0 0 1 0.036,1.074 1.258,1.258 0 0 1 -0.845,0.9 1.551,1.551 0 0 0 -0.194,0.044 6.86,6.86 0 0 0 -1.859,0.853 10.047,10.047 0 0 0 -2.656,2.97 1.023,1.023 0 0 0 -0.156,0.56 1.189,1.189 0 0 0 0.23,0.514 0.574,0.574 0 0 0 0.386,0.146 0.986,0.986 0 0 0 0.46,-0.19 7.7,7.7 0 0 1 2.511,-1.971 4.3,4.3 0 0 1 1.315,-0.339 h 0.156 a 6.666,6.666 0 0 1 1.315,0.146 c 0.116,0 0.27,0.044 0.386,0.044 a 1.058,1.058 0 0 1 0.845,0.75 c 0.194,0.565 0.388,1.128 0.544,1.691 a 1.462,1.462 0 0 1 -0.386,1.472 3.092,3.092 0 0 1 -0.506,0.324 3.161,3.161 0 0 1 -1.159,0.383 h -0.46 a 9.007,9.007 0 0 1 -1.037,-0.059 c -0.31,0 -0.666,-0.044 -1.014,-0.044 a 4.334,4.334 0 0 0 -0.809,0.044 5.43,5.43 0 0 0 -1.9,0.617 13.311,13.311 0 0 0 -3,2.309 0.717,0.717 0 0 0 -0.23,0.56 0.626,0.626 0 0 0 0.194,0.47 0.716,0.716 0 0 0 0.422,0.19 0.67,0.67 0 0 0 0.386,-0.146 9.421,9.421 0 0 1 2.776,-1.413 3.088,3.088 0 0 1 0.93,-0.087 1.31,1.31 0 0 1 0.422,0.044 6.845,6.845 0 0 1 1.436,0.383 l 0.3,0.087 a 12.483,12.483 0 0 0 1.509,0.427 5.139,5.139 0 0 0 1.2,0.146 5.37,5.37 0 0 0 0.894,-0.1 c 0.232,-0.046 0.419,-0.085 0.651,-0.134 0.038,0 0.116,-0.059 0.194,-0.059 a 0.855,0.855 0 0 1 0.736,0.766 31.345,31.345 0 0 1 0.46,4.561 1.458,1.458 0 0 1 -0.194,0.707 0.936,0.936 0 0 1 -0.531,0.324 h -0.434 a 11.679,11.679 0 0 1 -1.351,-0.514 h -0.036 a 9.539,9.539 0 0 0 -1.811,-0.6 5.14,5.14 0 0 0 -1.2,-0.146 4.879,4.879 0 0 0 -0.82,0.044 13.233,13.233 0 0 0 -3.2,0.987 l -0.23,0.1 a 0.906,0.906 0 0 0 -0.506,0.6 0.916,0.916 0 0 0 0.12,0.766 0.778,0.778 0 0 0 0.725,0.411 H 12.8 a 10.314,10.314 0 0 1 2.437,-0.324 2.161,2.161 0 0 1 0.544,0.044 3.8,3.8 0 0 1 1.231,0.383 6.664,6.664 0 0 1 1.244,0.838 l 0.194,0.146 c 0.426,0.329 0.885,0.7 1.387,1.03 a 8.29,8.29 0 0 0 1.351,0.617 1.066,1.066 0 0 1 0.58,1.133 c -0.078,0.519 -0.152,0.982 -0.23,1.5 a 1.387,1.387 0 0 1 -0.736,1.043 l -0.278,0.134 a 6.2,6.2 0 0 1 -1.3,0.514 5.4,5.4 0 0 1 -0.856,0.1 h -0.386 a 9.12,9.12 0 0 1 -2.86,-0.94 0.944,0.944 0 0 0 -0.337,-0.1 0.74,0.74 0 0 0 -0.628,0.339 0.874,0.874 0 0 0 -0.145,0.707 1.088,1.088 0 0 0 0.422,0.707 12.775,12.775 0 0 0 3.282,1.691 10.124,10.124 0 0 0 1.545,0.324 1.073,1.073 0 0 1 0.687,1.413 c -0.348,1.131 -0.7,2.271 -0.965,2.883 a 0.958,0.958 0 0 1 -0.725,0.647 1.451,1.451 0 0 1 -0.434,-0.087 c -0.5,-0.329 -0.963,-0.565 -1.2,-0.707 a 7.1,7.1 0 0 0 -1.931,-0.56 c -0.194,0 -0.419,-0.059 -0.651,-0.059 a 6.439,6.439 0 0 0 -0.965,0.059 h -0.036 c -0.27,0 -0.55,0.044 -0.82,0.044 a 1.674,1.674 0 0 1 -0.5,-0.044 4.2,4.2 0 0 1 -1.244,-0.383 9.986,9.986 0 0 1 -2.462,-2.03 0.6,0.6 0 0 0 -0.47,-0.177 0.373,0.373 0 0 0 -0.3,0.134 0.534,0.534 0 0 0 -0.194,0.427 0.961,0.961 0 0 0 0.194,0.617 14.484,14.484 0 0 0 2.663,2.863 5.352,5.352 0 0 0 1.737,0.94 c 0.58,0.188 1.086,0.285 1.665,0.427 a 8.924,8.924 0 0 1 1.351,0.324 3.752,3.752 0 0 1 1.086,0.617 c 0.116,0.1 0.232,0.182 0.386,0.324 a 2.268,2.268 0 0 1 0.386,2.544 c -0.194,0.424 -0.434,0.84 -0.628,1.264 -0.464,0.94 -0.881,1.94 -1.267,2.927 a 1.493,1.493 0 0 1 -1.244,1.03 h -0.81 a 4.491,4.491 0 0 1 -1.159,-0.427 6.459,6.459 0 0 1 -1.231,-0.987 2.23,2.23 0 0 1 -0.35,-0.324 12.6,12.6 0 0 0 -1.121,-1 4.8,4.8 0 0 0 -1.811,-0.94 4.891,4.891 0 0 0 -1.2,-0.134 3.934,3.934 0 0 0 -0.736,0.044 8.593,8.593 0 0 0 -1.859,0.56 1.073,1.073 0 0 0 -0.5,1.133 0.69,0.69 0 0 0 0.616,0.707 h 0.11 a 7.022,7.022 0 0 1 1.351,-0.19 3.779,3.779 0 0 1 1.629,0.339 4.535,4.535 0 0 1 1.159,0.838 c 0.27,0.283 0.575,0.612 0.845,0.94 l 0.278,0.339 a 8.869,8.869 0 0 0 1.5,1.413 5.1,5.1 0 0 0 1.979,0.838 c 0.116,0 0.185,0.059 0.3,0.059 a 1.044,1.044 0 0 1 0.664,0.47 1.6,1.6 0 0 1 0.194,0.94 21.791,21.791 0 0 0 -0.194,3.53 1.261,1.261 0 0 1 -0.194,0.75 0.5,0.5 0 0 1 -0.434,0.19 1.2,1.2 0 0 1 -0.386,-0.1 h -0.036 c -0.154,-0.046 -0.268,-0.144 -0.422,-0.19 a 8.833,8.833 0 0 0 -1.28,-0.56 5.387,5.387 0 0 0 -1.653,-0.324 H 8.325 a 4.806,4.806 0 0 0 -1.9,0.56 8.5,8.5 0 0 0 -1.653,1.221 1.331,1.331 0 0 0 -0.23,1.28 0.672,0.672 0 0 0 0.58,0.514 0.633,0.633 0 0 0 0.266,-0.1 4.884,4.884 0 0 1 2.582,-0.94 h 0.278 a 3.79,3.79 0 0 1 1.315,0.427 8.254,8.254 0 0 1 0.845,0.514 c 0.154,0.1 0.35,0.244 0.544,0.339 a 7.6,7.6 0 0 0 1.775,0.794 c 0.078,0 0.116,0.044 0.194,0.044 a 1.082,1.082 0 0 1 0.736,0.853 c 0.078,0.283 0.116,0.56 0.194,0.794 a 0.959,0.959 0 0 1 -0.386,1.089 h -0.036 a 7.172,7.172 0 0 0 -1.785,1.413 9.8,9.8 0 0 0 -1.2,1.793 c -0.116,0.188 -0.186,0.37 -0.3,0.56 a 9.049,9.049 0 0 1 -0.58,0.987 4.269,4.269 0 0 1 -1.014,1.133 4.63,4.63 0 0 1 -2.848,0.987 0.6,0.6 0 0 0 -0.434,0.236 0.985,0.985 0 0 0 -0.145,0.663 c 0.038,0.47 0.339,0.938 0.687,0.987 a 5.679,5.679 0 0 0 1.244,0.1 5.246,5.246 0 0 0 2.59,-0.659 5.233,5.233 0 0 0 1.581,-1.457 13.063,13.063 0 0 0 0.894,-1.28 c 0.078,-0.141 0.188,-0.285 0.266,-0.427 a 5.965,5.965 0 0 1 1,-1.264 3.242,3.242 0 0 1 1.086,-0.75 0.836,0.836 0 0 1 0.314,-0.1 0.819,0.819 0 0 1 0.725,0.529 24.637,24.637 0 0 0 2.209,3.574 c 0.54,0.707 0.428,2.017 -1.2,2.914 a 9.161,9.161 0 0 0 -3.476,2.78 9.217,9.217 0 0 0 -1.315,4.324 1.055,1.055 0 0 0 0.616,1.043 0.473,0.473 0 0 0 0.266,0.044 0.6,0.6 0 0 0 0.58,-0.514 7.787,7.787 0 0 1 1.44,-3.216 6.477,6.477 0 0 1 2.582,-1.6 7.788,7.788 0 0 0 1.7,-0.987 11.19,11.19 0 0 0 1.088,-1.029 0.889,0.889 0 0 1 1.3,-0.044 15.269,15.269 0 0 0 2.052,1.46 2.26,2.26 0 0 1 0.965,1.691 c 0.038,0.188 0.034,0.326 0.072,0.514 0.038,0.47 0.12,0.9 0.12,1.323 a 5.689,5.689 0 0 1 -0.12,1.647 7.216,7.216 0 0 1 -1.653,3.06 0.829,0.829 0 0 0 -0.194,0.514 0.915,0.915 0 0 0 0.23,0.617 0.835,0.835 0 0 0 0.615,0.324 0.684,0.684 0 0 0 0.422,-0.146 7.882,7.882 0 0 0 2.559,-3.428 8.862,8.862 0 0 0 0.422,-2.354 4.806,4.806 0 0 1 0.036,-0.617 0.947,0.947 0 0 1 1,-0.987 26.558,26.558 0 0 0 3.668,0.514 c 0.348,0 0.622,0.326 0.7,0.75 a 6.634,6.634 0 0 1 0.036,1.516 9.2,9.2 0 0 1 -0.386,1.691 c -0.038,0.141 -0.082,0.285 -0.12,0.427 -0.154,0.519 -0.3,1.079 -0.46,1.691 a 7.3,7.3 0 0 0 -0.156,2.4 8.07,8.07 0 0 0 0.544,2.266 9.954,9.954 0 0 0 1.086,1.971 0.858,0.858 0 0 0 0.651,0.339 1.4,1.4 0 0 0 0.422,-0.1 0.7,0.7 0 0 0 0.386,-0.514 0.947,0.947 0 0 0 -0.036,-0.56 7.641,7.641 0 0 1 -0.845,-3.487 6.123,6.123 0 0 1 0.266,-1.6 c 0.116,-0.424 0.3,-0.84 0.46,-1.264 a 4.869,4.869 0 0 0 0.194,-0.47 11.6,11.6 0 0 0 0.628,-2.176 14.194,14.194 0 0 0 0.072,-1.588 1.947,1.947 0 0 1 1.159,-1.84 22.093,22.093 0 0 0 2.2,-0.853 0.453,0.453 0 0 1 0.242,-0.044 0.764,0.764 0 0 1 0.687,0.75 c 0.038,0.378 0.082,0.709 0.12,0.9 a 8.183,8.183 0 0 0 0.651,2.31 7.839,7.839 0 0 0 1.244,1.84 7.066,7.066 0 0 0 1.581,1.264 0.974,0.974 0 0 0 0.35,0.087 0.825,0.825 0 0 0 0.687,-0.367 1.015,1.015 0 0 0 0.194,-0.663 0.536,0.536 0 0 0 -0.23,-0.47 5.809,5.809 0 0 1 -2.161,-4.383 c -0.038,-0.47 0,-0.94 0,-1.413 v -0.514 a 0.713,0.713 0 0 1 0.036,-0.28 2.838,2.838 0 0 1 0.93,-1.691 c 0.54,-0.424 1.043,-0.94 1.545,-1.413 a 0.832,0.832 0 0 1 0.544,-0.236 0.935,0.935 0 0 1 0.723,0.47 4.773,4.773 0 0 0 0.506,0.75 7.386,7.386 0 0 0 1.737,1.737 8.81,8.81 0 0 0 1.9,1 l 0.3,0.087 c 0.464,0.188 0.892,0.37 1.315,0.56 a 5.894,5.894 0 0 1 1.28,0.94 7.533,7.533 0 0 1 1.617,3.207 0.64,0.64 0 0 0 0.616,0.514 0.452,0.452 0 0 0 0.242,-0.044 0.94,0.94 0 0 0 0.616,-1.03 8.755,8.755 0 0 0 -1.471,-4.34 6.8,6.8 0 0 0 -1.617,-1.647 16.776,16.776 0 0 0 -1.509,-0.94 l -0.266,-0.134 a 13.457,13.457 0 0 1 -1.4,-0.94 5.614,5.614 0 0 1 -0.917,-1.089 9.541,9.541 0 0 1 -0.894,-1.84 1.332,1.332 0 0 1 0.156,-1.264 c 0.426,-0.658 1.2,-1.886 1.9,-3.016 a 0.71,0.71 0 0 1 1.267,-0.044 c 0.194,0.283 0.348,0.468 0.386,0.514 a 6.887,6.887 0 0 0 1.581,1.457 6.735,6.735 0 0 0 3.632,0.94 0.821,0.821 0 0 0 0.7,-0.794 0.755,0.755 0 0 0 -0.506,-0.853 5.72,5.72 0 0 1 -2.776,-1.264 6.5,6.5 0 0 1 -0.965,-1.177 14,14 0 0 1 -0.772,-1.6 3.3,3.3 0 0 1 0.036,-2.354 c 0.348,-0.8 0.7,-1.644 0.93,-2.163 a 0.883,0.883 0 0 1 1.509,-0.383 c 0.116,0.141 0.228,0.231 0.266,0.28 a 6.891,6.891 0 0 0 1.7,1.236 6.121,6.121 0 0 0 2.667,0.56 7.515,7.515 0 0 0 1,-0.044 0.866,0.866 0 0 0 0.651,-0.9 0.731,0.731 0 0 0 -0.58,-0.794 6.244,6.244 0 0 1 -2.9,-1 4.616,4.616 0 0 1 -1.037,-1.03 c -0.27,-0.424 -0.548,-0.9 -0.856,-1.367 0,0 -0.154,-0.272 -0.194,-0.367 a 2.221,2.221 0 0 1 -0.145,-1.793 c 0.426,-1.272 0.809,-2.6 1.2,-3.913 0.116,-0.329 0.344,-0.6 0.651,-0.6 h 0.156 a 2.9,2.9 0 0 1 1.159,0.514 11.524,11.524 0 0 1 1.2,1.03 l 0.12,0.1 a 13.883,13.883 0 0 0 1.351,1.22 5.315,5.315 0 0 0 3.282,1.087 8.062,8.062 0 0 0 2.2,-0.339 0.9,0.9 0 0 0 0.544,-0.987 0.681,0.681 0 0 0 -0.616,-0.663 h -0.616 a 5.37,5.37 0 0 1 -2.4,-0.47 3.484,3.484 0 0 1 -1.159,-0.838 14.094,14.094 0 0 1 -1,-1.236 l -0.072,-0.087 a 9.6,9.6 0 0 0 -1.351,-1.56 6.957,6.957 0 0 0 -1.509,-1.03 1.307,1.307 0 0 1 -0.58,-1.457 c 0.194,-0.894 0.426,-1.84 0.58,-2.78 a 1.224,1.224 0 0 1 0.93,-1.03 h 0.036 a 9.092,9.092 0 0 1 1.509,-0.19 h 0.072 a 3.9,3.9 0 0 1 1.28,0.236 6.58,6.58 0 0 1 2.546,1.927 0.52,0.52 0 0 0 0.422,0.19 0.731,0.731 0 0 0 0.46,-0.236 1.015,1.015 0 0 0 0.084,-1.177 8.987,8.987 0 0 0 -2.787,-2.927 5.533,5.533 0 0 0 -1.882,-0.707 5.353,5.353 0 0 0 -1.086,-0.087 0.635,0.635 0 0 1 -0.506,-0.324 1.264,1.264 0 0 1 -0.145,-0.663 c 0.116,-0.753 0.3,-2.027 0.5,-3.25 0.116,-0.753 0.809,-1.226 1.387,-0.9 a 0.941,0.941 0 0 0 0.278,0.146 5.773,5.773 0 0 0 1.931,0.47 h 0.156 a 6.775,6.775 0 0 0 3.392,-1.043 0.875,0.875 0 0 0 0.35,-1.074 0.64,0.64 0 0 0 -0.616,-0.514 c -0.038,0 -0.118,0 -0.156,0.044 a 7.045,7.045 0 0 1 -2.051,0.367 5.282,5.282 0 0 1 -0.917,-0.087 3.811,3.811 0 0 1 -1.28,-0.56 c -0.386,-0.283 -0.772,-0.612 -1.159,-0.94 l -0.072,-0.059 c -0.116,-0.1 -0.234,-0.185 -0.35,-0.28 a 1.43,1.43 0 0 1 -0.47,-1.177 c 0.038,-0.519 0.084,-1.03 0.084,-1.5 0.038,-0.424 0.3,-0.809 0.687,-0.809 h 0.242 a 5.3,5.3 0 0 0 2.048,-0.426 9.369,9.369 0 0 0 1.7,-1 l 0.084,-0.044 c 0.426,-0.283 0.845,-0.56 1.231,-0.794 a 2.8,2.8 0 0 1 1.315,-0.383 h 0.35 a 6.721,6.721 0 0 1 2.582,0.663 0.409,0.409 0 0 0 0.23,0.044 0.685,0.685 0 0 0 0.58,-0.47 1.073,1.073 0 0 0 -0.266,-1.177 7.654,7.654 0 0 0 -3.476,-1.5 c -0.154,0 -0.316,-0.044 -0.47,-0.044 a 5.507,5.507 0 0 0 -1.5,0.236 11.1,11.1 0 0 0 -1.594,0.647 l -0.145,0.059 a 5.507,5.507 0 0 1 -1.4,0.514 4.3,4.3 0 0 1 -0.723,0.087 1.621,1.621 0 0 1 -0.47,-0.044 H 61.2 a 1.262,1.262 0 0 1 -0.894,-1.264 c 0,-1.506 -0.03,-2.968 -0.145,-4.427 a 1.52,1.52 0 0 1 0.23,-0.853 c 0.54,-0.658 1,-0.087 2.582,0.146 a 5.475,5.475 0 0 0 1.967,-0.1 7.442,7.442 0 0 0 3.282,-2.061 1.083,1.083 0 0 0 0.156,-1.177 0.66,0.66 0 0 0 -0.544,-0.383 0.746,0.746 0 0 0 -0.3,0.087 c -3.09,2.117 -4.323,0.858 -6.794,-0.177 a 2.04,2.04 0 0 1 -1.159,-1.647 c -0.154,-1.177 -0.348,-2.312 -0.58,-3.443 a 1.8,1.8 0 0 1 0.616,-1.737 3.439,3.439 0 0 1 0.386,-0.236 5.824,5.824 0 0 1 1.159,-0.427 2.605,2.605 0 0 1 0.616,-0.044 5.882,5.882 0 0 1 0.845,0.044 h 0.24 a 10.613,10.613 0 0 0 1.231,0.044 h 0.386 a 4.448,4.448 0 0 0 1.931,-0.514 7.535,7.535 0 0 0 2.932,-2.78 1.085,1.085 0 0 0 -0.036,-1.22 0.642,0.642 0 0 0 -0.506,-0.28 0.443,0.443 0 0 0 -0.386,0.177 5.885,5.885 0 0 1 -2.618,1.75 2.973,2.973 0 0 1 -0.93,0.134 1.558,1.558 0 0 1 -0.46,-0.044 7.1,7.1 0 0 1 -1.315,-0.28 l -0.194,-0.044 a 7.24,7.24 0 0 0 -1.859,-0.28 5.48,5.48 0 0 0 -2.087,0.411 c -0.116,0.046 -0.186,0.1 -0.3,0.146 a 0.824,0.824 0 0 1 -0.47,0.044 1,1 0 0 1 -0.687,-0.75 c -0.154,-0.47 -0.316,-0.9 -0.47,-1.367 -0.27,-0.8 -0.538,-1.557 -0.809,-2.31 a 0.7,0.7 0 0 1 0.036,-0.56 0.573,0.573 0 0 1 0.434,-0.324 c 0.348,-0.046 0.647,-0.1 0.917,-0.146 a 5.294,5.294 0 0 0 1.859,-0.794 10.914,10.914 0 0 0 2.74,-2.927 1.023,1.023 0 0 0 0.156,-0.56 0.87,0.87 0 0 0 -0.23,-0.514 0.735,0.735 0 0 0 -0.386,-0.19 0.52,0.52 0 0 0 -0.422,0.19 8.242,8.242 0 0 1 -2.559,1.927 3.129,3.129 0 0 1 -1.3,0.28 h -0.048 a 9.317,9.317 0 0 1 -1.461,-0.146 c -0.116,0 -0.236,-0.044 -0.314,-0.044 a 1.258,1.258 0 0 1 -0.965,-0.9 c -0.194,-0.565 -0.466,-1.5 -0.736,-2.441 a 2.491,2.491 0 0 1 0.434,-2.266 c 0.386,-0.47 0.727,-0.84 0.881,-1.03 a 14.578,14.578 0 0 1 1.086,-1.264 3.849,3.849 0 0 1 1.2,-0.809 A 6.235,6.235 0 0 1 60,80.39 h 0.58 a 0.682,0.682 0 0 0 0.651,-0.6 0.957,0.957 0 0 0 -0.072,-0.573 0.553,0.553 0 0 0 -0.422,-0.324 9.446,9.446 0 0 0 -2.475,-0.383 9.851,9.851 0 0 0 -1.159,0.1 5.966,5.966 0 0 0 -1.9,0.75 11.962,11.962 0 0 0 -1.545,1.22 0.413,0.413 0 0 1 -0.194,0.146 c -0.464,0.329 -1.037,0.085 -1.231,-0.573 -0.31,-1.177 -0.666,-2.392 -0.82,-3.191 a 0.989,0.989 0 0 1 0.12,-0.809 0.8,0.8 0 0 1 0.58,-0.411 c 0.348,-0.046 0.582,-0.1 0.736,-0.1 a 5.632,5.632 0 0 0 1.931,-0.514 10.739,10.739 0 0 0 3.052,-2.31 0.717,0.717 0 0 0 0.23,-0.56 0.65,0.65 0 0 0 -0.194,-0.514 0.606,0.606 0 0 0 -0.47,-0.236 0.51,0.51 0 0 0 -0.337,0.134 8.2,8.2 0 0 1 -2.751,1.413 4.942,4.942 0 0 1 -0.772,0.1 2.468,2.468 0 0 1 -0.58,-0.059 11.8,11.8 0 0 1 -1.461,-0.411 l -0.314,-0.1 A 1.286,1.286 0 0 1 50.374,71.511 C 50.142,70.239 49.986,68.97 49.83,67.744 a 1.542,1.542 0 0 1 0.616,-1.472 5.056,5.056 0 0 1 0.965,-0.411 2.529,2.529 0 0 1 0.856,-0.146 h 0.386 a 6.8,6.8 0 0 1 1.425,0.383 10.9,10.9 0 0 0 1.775,0.411 c 0.194,0 0.35,0.059 0.544,0.059 a 5.014,5.014 0 0 0 1.436,-0.19 11.037,11.037 0 0 0 3.282,-1.647 0.732,0.732 0 0 0 0.3,-0.47 0.6,0.6 0 0 0 -0.11,-0.514 0.621,0.621 0 0 0 -0.544,-0.3 0.718,0.718 0 0 0 -0.278,0.059 7.674,7.674 0 0 1 -2.932,0.794 H 57.515 A 3.417,3.417 0 0 1 56.55,64.213 7.636,7.636 0 0 1 54.813,63.404 l -0.12,-0.087 a 10.708,10.708 0 0 0 -1.545,-0.809 6.594,6.594 0 0 0 -2.076,-0.47 h -0.434 a 1.157,1.157 0 0 1 -1,-0.648 1.679,1.679 0 0 1 -0.194,-0.9 c 0.038,-0.894 0.08,-1.786 0.156,-2.634 a 1.251,1.251 0 0 1 1.159,-1.236 c 0.232,0 0.468,-0.044 0.7,-0.044 a 13.15,13.15 0 0 0 1.653,-0.427 l 0.156,-0.044 a 6.245,6.245 0 0 1 1.471,-0.324 h 0.266 a 3.883,3.883 0 0 1 1.037,0.134 9.868,9.868 0 0 1 2.751,1.6 0.653,0.653 0 0 0 0.386,0.146 0.516,0.516 0 0 0 0.386,-0.146 0.714,0.714 0 0 0 0.194,-0.47 0.963,0.963 0 0 0 -0.194,-0.56 12.533,12.533 0 0 0 -2.9,-2.5 5.582,5.582 0 0 0 -1.9,-0.707 10.73,10.73 0 0 0 -1.315,-0.087 H 52.305 A 4.54,4.54 0 0 1 51.46,53.147 h -0.084 a 1.153,1.153 0 0 1 -0.736,-0.853 1.584,1.584 0 0 1 0,-0.853 48.416,48.416 0 0 1 1.436,-4.795 2,2 0 0 1 1.581,-1.413 4.523,4.523 0 0 1 0.771,-0.044 h 0.386 a 4.194,4.194 0 0 1 1.315,0.324 8.886,8.886 0 0 1 1.425,0.94 l 0.278,0.236 c 0.426,0.329 0.921,0.758 1.425,1.089 a 5.427,5.427 0 0 0 2.087,0.794 3.087,3.087 0 0 0 0.651,0.044 6.394,6.394 0 0 0 3.366,-1.074 1.207,1.207 0 0 0 0.422,-1.28 c -0.078,-0.424 -0.346,-0.707 -0.616,-0.707 a 0.412,0.412 0 0 0 -0.194,0.059 5.762,5.762 0 0 1 -2.051,0.411 3.242,3.242 0 0 1 -1.2,-0.177 4.1,4.1 0 0 1 -1.351,-0.809 10.633,10.633 0 0 1 -1.05,-1.03 l -0.3,-0.339 a 9.37,9.37 0 0 0 -1.737,-1.457 5.259,5.259 0 0 0 -2.209,-0.75 0.972,0.972 0 0 1 -0.3,-0.044 1.331,1.331 0 0 1 -1.05,-1.56 c 0.154,-1.223 0.272,-3.191 0.35,-4.841 a 1.125,1.125 0 0 1 1.244,-1.177 c 0.116,0.046 0.232,0.041 0.386,0.087 a 13.241,13.241 0 0 0 1.425,0.28 c 0.194,0 0.386,0.044 0.58,0.044 a 4.355,4.355 0 0 0 1.387,-0.236 6.526,6.526 0 0 0 3.175,-2.634 1.318,1.318 0 0 0 0,-1.31 0.714,0.714 0 0 0 -0.544,-0.383 0.5,0.5 0 0 0 -0.35,0.146 5.127,5.127 0 0 1 -2.7,1.588 1.559,1.559 0 0 1 -0.46,0.059 6.523,6.523 0 0 1 -0.894,-0.1 c -0.348,-0.1 -0.7,-0.229 -1.086,-0.324 -0.154,-0.046 -0.268,-0.1 -0.422,-0.146 -0.038,0 -0.3,-0.1 -0.651,-0.19 A 2.578,2.578 0 0 1 53.5,28.947 31.654,31.654 0 0 0 52.113,25.226 1.3,1.3 0 0 1 52.041,24.373 1.183,1.183 0 0 1 52.463,23.725 c 0.386,-0.236 0.575,-0.337 0.651,-0.383 0.116,-0.046 0.232,-0.1 0.386,-0.146 0.464,-0.141 0.885,-0.283 1.387,-0.47 a 5.17,5.17 0 0 0 1.737,-1.177 8.217,8.217 0 0 0 1.979,-4 1.164,1.164 0 0 0 -0.47,-1.177 0.633,0.633 0 0 0 -0.386,-0.134 0.593,0.593 0 0 0 -0.544,0.427 6.287,6.287 0 0 1 -1.882,2.824 3.616,3.616 0 0 1 -1.244,0.6 8.255,8.255 0 0 1 -1.121,0.236 c -0.116,0.046 -0.268,0.057 -0.422,0.1 -0.154,0.043 -0.694,0.18 -1.387,0.367 a 1.961,1.961 0 0 1 -1.967,-0.56 c -0.656,-0.658 -1.282,-1.318 -1.629,-1.647 a 1.419,1.419 0 0 1 -0.23,-1.6 9.864,9.864 0 0 0 0.894,-2.677 15.727,15.727 0 0 0 0.156,-2.59 v -0.663 c 0,-0.519 -0.038,-1.043 0,-1.516 A 8.3,8.3 0 0 1 48.671,7.715 7.357,7.357 0 0 1 50.832,4.508 0.706,0.706 0 0 0 51.076,4 1.008,1.008 0 0 0 50.882,3.337 1.038,1.038 0 0 0 50.11,2.91 a 0.814,0.814 0 0 0 -0.35,0.1 8,8 0 0 0 -3.175,3.471 9.651,9.651 0 0 0 -0.723,2.59 c -0.078,0.707 -0.118,1.418 -0.156,2.03 l -0.036,0.47 a 11.008,11.008 0 0 1 -0.242,1.971 6.017,6.017 0 0 1 -0.5,1.413 1.066,1.066 0 0 1 -0.856,0.663 1.174,1.174 0 0 1 -0.422,-0.087 20.908,20.908 0 0 0 -3.246,-1.457 1.3,1.3 0 0 1 -0.771,-0.809 1.558,1.558 0 0 1 0,-1.177 1.014,1.014 0 0 0 0.084,-0.236 9.058,9.058 0 0 0 0.55,-2.352 9.418,9.418 0 0 0 -0.894,-4.517 0.85,0.85 0 0 0 -0.736,-0.514 0.41,0.41 0 0 0 -0.23,0.044 0.59,0.59 0 0 0 -0.422,0.427 0.928,0.928 0 0 0 -0.036,0.56 8.573,8.573 0 0 1 0.266,3.633 4.687,4.687 0 0 1 -0.544,1.5 c -0.194,0.378 -0.417,0.753 -0.687,1.177 l -0.24,0.383 a 1.927,1.927 0 0 1 -1.617,0.987 17.993,17.993 0 0 0 -2.776,0.236 c -0.078,0 -0.2,0.044 -0.278,0.044 a 1.883,1.883 0 0 1 -1.775,-1.5 c 0,-0.046 -0.036,-0.1 -0.036,-0.146 a 6.579,6.579 0 0 1 -0.278,-1.457 7.906,7.906 0 0 1 0.12,-1.793 c 0,-0.141 0.036,-0.283 0.036,-0.47 0.078,-0.565 0.154,-1.123 0.194,-1.737 A 7.948,7.948 0 0 0 30.104,3.957 8.1,8.1 0 0 0 27.908,0.19 0.642,0.642 0 0 0 27.4,0 Z"
             transform="translate(0.425,0.506)"
             inkscape:connector-curvature="0"
             style="fill:#5500d4;stroke:#000000;stroke-width:1.5" />
        </g>
      </g>
      <g
         id="bacteria-2"
         data-name="bacteria"
         transform="rotate(106,162.18293,285.19018)"
         style="isolation:isolate">
        <g
           id="Gruppe_2-2"
           data-name="Gruppe 2"
           transform="translate(2.517,-0.038)"
           clip-path="url(#clip-path-2)">
          <path
             id="Pfad_1-2"
             data-name="Pfad 1"
             d="m 103.559,-1.089 a 5.767,5.767 0 0 0 -2.2,0.539 2.618,2.618 0 0 0 -1.2,1.233 1.274,1.274 0 0 0 0.577,1.114 c 2.89,2.326 4.617,4.676 5.029,7.028 a 6.049,6.049 0 0 1 -0.175,3.59 17.412,17.412 0 0 1 -0.9,2.574 c -0.148,0.41 -0.321,0.933 -0.47,1.449 a 16.812,16.812 0 0 0 -1.058,4.949 12.91,12.91 0 0 0 1.262,5.5 5.408,5.408 0 0 0 0.405,0.83 c 0.857,1.732 -0.343,3.7 -2.83,4.548 -1.319,0.423 -2.615,0.957 -3.935,1.486 a 6.222,6.222 0 0 1 -2.33,0.411 c -2.191,0.023 -4.093,-0.852 -4.809,-2.384 a 15.88,15.88 0 0 0 -3.6,-4.575 c -2.889,-2.432 -6.679,-4.049 -12.21,-5.222 -0.295,0 -0.437,-0.091 -0.732,-0.087 a 3.967,3.967 0 0 0 -2.929,1.252 c -0.444,0.52 -0.577,1.036 -0.287,1.447 a 1.774,1.774 0 0 0 1.177,0.917 c 3.928,1.391 6.786,3.007 8.516,5.037 a 9.352,9.352 0 0 1 1.875,3.378 11.615,11.615 0 0 1 0.825,3.966 v 0.319 a 6.529,6.529 0 0 1 -0.161,2.375 5.18,5.18 0 0 1 -1.613,1.842 72.032,72.032 0 0 0 -8.1,6.659 4.534,4.534 0 0 1 -3.071,1.153 6.068,6.068 0 0 1 -1.909,-0.271 5.861,5.861 0 0 1 -1.181,-0.5 24.31,24.31 0 0 1 -3.433,-2.942 L 63.37,45.8 a 36.612,36.612 0 0 0 -3.479,-3.137 21.753,21.753 0 0 0 -5.8,-3.3 27.371,27.371 0 0 0 -6.865,-1.6 40.452,40.452 0 0 0 -5.1,-0.237 l -2.008,0.021 a 2.893,2.893 0 0 0 -2.8,1.984 1.315,1.315 0 0 0 0.4,1.407 2.79,2.79 0 0 0 1.451,0.628 30.043,30.043 0 0 1 10.646,2.546 12.547,12.547 0 0 1 3.484,2.622 c 0.724,0.815 1.431,1.72 2.3,2.635 l 0.724,0.826 a 20.97,20.97 0 0 0 4.058,4.06 c 0.293,0.2 0.979,0.813 1.991,1.518 2.024,1.412 2.59,3.567 1.4,5.528 -1.637,2.582 -3.244,5.247 -4.139,7 a 2.8,2.8 0 0 1 -2.34,1.273 3.839,3.839 0 0 1 -1.907,-0.394 C 54.515,68.674 54.081,68.365 53.938,68.266 L 53.671,67.95 a 28.148,28.148 0 0 0 -3.8,-2.815 20.815,20.815 0 0 0 -5.216,-2.318 20.355,20.355 0 0 0 -5.832,-0.643 30.992,30.992 0 0 0 -5.111,0.469 2.132,2.132 0 0 0 -1.912,2.066 1.839,1.839 0 0 0 1.99,1.613 20.187,20.187 0 0 1 8.2,1.357 8.884,8.884 0 0 1 3.037,2.021 c 0.725,0.709 1.433,1.5 2.3,2.316 l 0.583,0.6 a 51.4,51.4 0 0 0 3.745,3.549 3.712,3.712 0 0 1 1.145,4.091 c -0.3,0.72 -0.46,1.237 -0.606,1.546 A 4.285,4.285 0 0 1 48.386,83.8 c -1.314,0.014 -3.218,0.029 -4.239,0.14 -2.632,0.336 -5,0.893 -6.9,1.322 l -0.272,0.1 c -1.757,0.427 -3.514,0.86 -5.118,1.079 a 19.282,19.282 0 0 1 -3.38,0.226 10.049,10.049 0 0 1 -1.736,-0.077 32.476,32.476 0 0 1 -10.461,-2.744 2.4,2.4 0 0 0 -1.185,-0.211 3.785,3.785 0 0 0 -2.063,0.761 1.517,1.517 0 0 0 0.291,2.561 33.67,33.67 0 0 0 11.9,4.777 29.749,29.749 0 0 0 6.1,0.545 l 1.322,-0.014 c 2.192,-0.124 4.537,-0.452 6.436,-0.679 l 0.455,-0.1 a 52.446,52.446 0 0 1 5.525,-0.473 3.636,3.636 0 0 1 2.047,0.717 1.47,1.47 0 0 1 0.437,1.535 c -0.755,2.057 -1.967,5.748 -2.879,9.039 -0.455,1.544 -2.814,2.409 -4.855,1.815 -0.873,-0.3 -1.437,-0.393 -1.731,-0.5 a 29.893,29.893 0 0 0 -7.284,-1.171 l -1.458,0.016 a 44.146,44.146 0 0 0 -12.29,2.085 c -1.319,0.423 -1.912,1.47 -1.484,2.39 a 2.473,2.473 0 0 0 2.313,1.2 l 0.59,-0.006 a 43.637,43.637 0 0 1 7.033,-0.685 24.711,24.711 0 0 1 4.2,0.246 23.787,23.787 0 0 1 4.686,1.294 29.144,29.144 0 0 1 4.357,2.2 l 0.729,0.311 a 3.941,3.941 0 0 1 2.285,3.76 q -0.931,5.393 -1.44,10.787 c -0.157,1.233 -1.474,2.188 -3.084,2.306 l -1.322,0.014 a 18.52,18.52 0 0 1 -3.326,-0.284 48.57,48.57 0 0 1 -5.275,-1.259 l -0.547,-0.218 a 59.847,59.847 0 0 0 -6.006,-1.475 34.774,34.774 0 0 0 -6.382,-0.542 l -1.052,0.011 a 40.316,40.316 0 0 0 -13.3,3.025 c -1.176,0.421 -1.785,1.531 -1.214,2.448 a 2.694,2.694 0 0 0 2.18,1 1.855,1.855 0 0 0 0.734,-0.1 39.253,39.253 0 0 1 9.223,-1.319 14,14 0 0 1 2.054,0.073 17.9,17.9 0 0 1 4.96,0.972 c 1.452,0.5 3.031,1.11 4.632,1.809 l 0.27,0.092 a 37.306,37.306 0 0 0 6.269,2.178 34,34 0 0 0 7.285,1.042 c 1.752,0.082 3.364,1.2 3.35,2.528 -0.01,0.924 0.105,2.77 0.085,4.612 -0.016,1.433 -1.914,2.394 -3.8,1.9 h -0.183 c -1.6,-0.392 -3.337,-0.776 -5.23,-1.064 a 19.942,19.942 0 0 0 -3.511,-0.186 28.533,28.533 0 0 0 -2.918,0.255 30.329,30.329 0 0 0 -10.988,4 1.806,1.806 0 0 0 -0.759,2.382 2.29,2.29 0 0 0 1.9,0.909 3.652,3.652 0 0 0 1.006,-0.235 27.66,27.66 0 0 1 8.959,-2.022 h 0.135 a 13.867,13.867 0 0 1 4.056,0.567 33.554,33.554 0 0 1 3.634,1.277 l 0.729,0.311 c 0.873,0.3 2.936,1 4.684,1.394 a 4.021,4.021 0 0 1 3.161,3.045 14.759,14.759 0 0 0 0.427,2.464 c 0.418,1.843 -1.067,3.6 -3.558,4.142 a 34.181,34.181 0 0 0 -4.252,1.266 44.378,44.378 0 0 0 -6,2.723 l -0.272,0.1 c -1.618,0.84 -3.116,1.6 -4.589,2.227 a 21.043,21.043 0 0 1 -4.8,1.272 20.858,20.858 0 0 1 -3.651,0.229 41.04,41.04 0 0 1 -7.608,-0.624 l -0.55,0.006 a 2.848,2.848 0 0 0 -2.387,1.246 c -0.448,0.929 0.305,1.956 1.615,2.356 a 43.675,43.675 0 0 0 12.66,1.914 l 0.733,-0.008 a 30.06,30.06 0 0 0 7.309,-1.1 45.707,45.707 0 0 0 5.861,-2.016 l 1.328,-0.529 a 24.08,24.08 0 0 1 4.076,-1.264 25.7,25.7 0 0 1 2.918,-0.255 h 0.183 a 3.886,3.886 0 0 1 3.76,2.138 c 0.7,2.557 1.392,5.32 2.237,8.183 a 2.3,2.3 0 0 1 -0.292,1.923 4.632,4.632 0 0 1 -3.664,1.483 l -1.052,0.011 a 27.393,27.393 0 0 0 -7.307,1.007 35.479,35.479 0 0 0 -11.6,5.571 1.518,1.518 0 0 0 -0.163,2.566 2.847,2.847 0 0 0 1.905,0.59 3.858,3.858 0 0 0 1.461,-0.335 32.072,32.072 0 0 1 10.25,-3.474 22.711,22.711 0 0 1 2.6,-0.252 21.98,21.98 0 0 1 2.508,0.068 c 1.607,0.19 3.2,0.492 5.1,0.78 l 0.588,0.089 a 6.128,6.128 0 0 1 4.753,3.124 c 0.717,1.426 1.883,4.106 3.16,6.763 a 2.464,2.464 0 0 1 0.113,2.048 c -0.453,1.337 -1.913,2.277 -3.812,2.6 -2.043,0.33 -3.82,0.449 -5.566,0.574 l -0.59,0.006 c -1.9,0.121 -4.065,0.251 -6.251,0.582 a 28.946,28.946 0 0 0 -17.062,8.77 1.557,1.557 0 0 0 0.555,2.544 3.8,3.8 0 0 0 1.589,0.4 3.519,3.519 0 0 0 1.782,-0.534 28.59,28.59 0 0 1 9.219,-4.616 26.145,26.145 0 0 1 4.979,-0.759 l 0.868,-0.009 c 1.458,-0.016 2.955,0.058 4.563,0.142 h 0.271 c 1.313,0.087 2.77,0.194 4.379,0.177 a 23.251,23.251 0 0 0 2.646,-0.123 c 1.021,-0.112 2.736,-0.365 4.93,-0.691 0.295,0 0.622,-0.1 0.917,-0.1 a 4.45,4.45 0 0 1 3.9,1.817 c 0.719,1.224 1.424,2.342 2.287,3.564 a 2.251,2.251 0 0 1 0.11,2.339 4.351,4.351 0 0 1 -3.216,1.988 c -0.295,0 -0.583,0.1 -0.734,0.1 a 37.84,37.84 0 0 0 -7.047,1.934 33.585,33.585 0 0 0 -10.109,6.58 1.64,1.64 0 0 0 -0.6,1.227 2.251,2.251 0 0 0 0.856,1.111 3.18,3.18 0 0 0 1.454,0.3 5.585,5.585 0 0 0 1.741,-0.433 33.474,33.474 0 0 1 9.535,-4.4 26.6,26.6 0 0 1 4.979,-0.792 l 0.59,-0.006 a 42.94,42.94 0 0 1 4.968,0.266 c 0.438,0 1.019,0.084 1.457,0.08 a 3.9,3.9 0 0 1 3.177,1.6 c 0.719,1.224 1.439,2.442 2.015,3.662 0.569,1.125 -0.027,2.486 -1.493,3.224 a 14.967,14.967 0 0 1 -1.92,0.726 18.809,18.809 0 0 1 -4.391,0.881 l -1.737,0.019 c -1.171,0.013 -2.318,0 -3.918,-0.087 -1.171,0.013 -2.516,-0.068 -3.831,-0.054 a 28.342,28.342 0 0 0 -3.06,0.128 32.44,32.44 0 0 0 -7.177,1.42 58.011,58.011 0 0 0 -11.415,5.155 1.4,1.4 0 0 0 -0.882,1.23 1.164,1.164 0 0 0 0.722,1.017 3.8,3.8 0 0 0 1.589,0.4 3.856,3.856 0 0 0 1.461,-0.335 50.157,50.157 0 0 1 10.526,-3.191 20.051,20.051 0 0 1 3.515,-0.228 8.428,8.428 0 0 1 1.592,0.078 41.508,41.508 0 0 1 5.416,0.776 l 1.137,0.178 c 1.749,0.289 3.649,0.683 5.694,0.869 a 32.97,32.97 0 0 0 4.514,0.271 c 1.171,-0.013 2.351,-0.148 3.38,-0.26 0.877,-0.11 1.587,-0.2 2.465,-0.317 a 6.966,6.966 0 0 1 0.734,-0.137 2.809,2.809 0 0 1 2.762,1.639 40.245,40.245 0 0 1 1.628,9.92 2.33,2.33 0 0 1 -0.75,1.548 4.584,4.584 0 0 1 -2.015,0.727 l -1.187,0.013 h -0.454 c -1.607,-0.19 -3.2,-0.677 -5.094,-1.065 h -0.135 a 55.562,55.562 0 0 0 -6.829,-1.243 32.974,32.974 0 0 0 -4.514,-0.271 c -1.02,0.011 -2.079,0.017 -3.1,0.128 a 79.947,79.947 0 0 0 -12.109,2.279 l -0.871,0.233 a 2.867,2.867 0 0 0 -1.926,1.336 1.312,1.312 0 0 0 0.436,1.664 3.65,3.65 0 0 0 2.731,0.867 l 0.733,-0.008 a 66.611,66.611 0 0 1 9.217,-0.8 14.013,14.013 0 0 1 2.054,0.073 22.393,22.393 0 0 1 4.643,0.785 30.165,30.165 0 0 1 4.68,1.775 l 0.729,0.311 c 1.6,0.7 3.329,1.493 5.217,2.189 a 44.488,44.488 0 0 0 5.092,1.289 c 1.455,0.292 2.462,1.418 2.164,2.446 -0.307,1.134 -0.6,2.145 -0.9,3.279 a 3.847,3.847 0 0 1 -2.805,2.3 l -1.055,0.3 a 35.8,35.8 0 0 1 -4.936,1.172 c -1.021,0.112 -2.217,0.248 -3.237,0.259 l -1.458,0.016 a 53.174,53.174 0 0 1 -10.788,-1.934 5.583,5.583 0 0 0 -1.272,-0.21 3.742,3.742 0 0 0 -2.382,0.764 1.348,1.348 0 0 0 -0.567,1.546 2.5,2.5 0 0 0 1.576,1.523 65.352,65.352 0 0 0 12.36,3.563 c 1.017,0.2 3.348,0.463 5.832,0.643 2.037,0.185 3.312,1.6 2.563,3.052 a 57.07,57.07 0 0 1 -3.717,6.321 3.729,3.729 0 0 1 -2.756,1.44 9.046,9.046 0 0 1 -1.639,-0.173 c -1.888,-0.7 -3.627,-1.193 -4.5,-1.492 a 42.4,42.4 0 0 0 -7.284,-1.143 c -0.733,0.008 -1.584,-0.112 -2.46,-0.1 -1.314,0.014 -2.478,0.054 -3.65,0.168 h -0.135 c -1.02,0.011 -2.08,0.117 -3.1,0.128 a 10.811,10.811 0 0 1 -1.871,-0.075 24.836,24.836 0 0 1 -4.691,-0.784 39.572,39.572 0 0 1 -9.257,-4.324 3.341,3.341 0 0 0 -1.772,-0.367 2.02,2.02 0 0 0 -1.142,0.3 1.11,1.11 0 0 0 -0.743,0.937 1.543,1.543 0 0 0 0.718,1.336 47.12,47.12 0 0 0 9.97,6.141 26.808,26.808 0 0 0 6.542,1.979 c 2.186,0.385 4.1,0.578 6.283,0.862 1.894,0.187 3.644,0.359 5.1,0.651 a 18.419,18.419 0 0 1 4.088,1.3 c 0.436,0.2 0.872,0.388 1.45,0.69 2.32,1.308 3.027,3.668 1.4,5.528 -0.743,0.932 -1.661,1.848 -2.4,2.78 a 73.869,73.869 0 0 0 -4.858,6.429 6.029,6.029 0 0 1 -4.725,2.3 l -3.059,0.033 a 25.562,25.562 0 0 1 -4.371,-0.883 26.384,26.384 0 0 1 -4.629,-2.1 8.208,8.208 0 0 1 -1.315,-0.691 c -1.307,-0.7 -2.763,-1.532 -4.214,-2.133 a 24.459,24.459 0 0 0 -6.821,-1.976 31.442,31.442 0 0 0 -4.514,-0.243 25.707,25.707 0 0 0 -2.781,0.125 52.232,52.232 0 0 0 -7.04,1.3 2.236,2.236 0 0 0 -1.9,2.489 2.122,2.122 0 0 0 2.309,1.515 H 9.19 a 45.3,45.3 0 0 1 5.111,-0.469 23.372,23.372 0 0 1 6.15,0.673 19.67,19.67 0 0 1 4.362,1.779 c 1.013,0.6 2.16,1.309 3.172,2.015 l 1.044,0.728 a 31.93,31.93 0 0 0 5.623,3.019 27.841,27.841 0 0 0 7.461,1.745 c 0.438,0 0.7,0.121 1.138,0.117 a 4.482,4.482 0 0 1 2.5,1 2.29,2.29 0 0 1 0.711,2.041 27.892,27.892 0 0 0 -0.817,7.7 2.029,2.029 0 0 1 -0.751,1.643 2.666,2.666 0 0 1 -1.646,0.432 7.231,7.231 0 0 1 -1.455,-0.208 h -0.135 c -0.58,-0.095 -1.008,-0.3 -1.589,-0.4 A 48.04,48.04 0 0 0 35.247,334.609 33.665,33.665 0 0 0 29,333.957 l -1.187,0.013 a 29.144,29.144 0 0 0 -7.175,1.3 38.134,38.134 0 0 0 -6.275,2.726 2.061,2.061 0 0 0 -0.9,2.8 2.5,2.5 0 0 0 2.179,1.1 3.65,3.65 0 0 0 1.006,-0.235 28.492,28.492 0 0 1 9.781,-2.153 l 1.052,-0.011 a 22.177,22.177 0 0 1 4.961,0.876 c 1.016,0.3 2.167,0.688 3.182,1.086 0.579,0.2 1.317,0.518 2.047,0.717 a 40.922,40.922 0 0 0 6.689,1.659 c 0.295,0 0.437,0.091 0.732,0.087 a 3.292,3.292 0 0 1 2.76,1.829 c 0.288,0.613 0.425,1.216 0.714,1.722 0.428,0.919 -0.165,1.961 -1.484,2.39 h -0.135 a 30.717,30.717 0 0 0 -6.781,3.152 26.082,26.082 0 0 0 -4.56,3.956 c -0.443,0.413 -0.71,0.814 -1.153,1.233 a 21.945,21.945 0 0 1 -2.214,2.173 14.393,14.393 0 0 1 -3.859,2.51 26.9,26.9 0 0 1 -10.786,2.265 3.046,3.046 0 0 0 -1.647,0.533 1.5,1.5 0 0 0 -0.565,1.45 2.789,2.789 0 0 0 2.574,2.122 36.794,36.794 0 0 0 4.7,0.174 32.207,32.207 0 0 0 9.775,-1.549 20.339,20.339 0 0 0 6.01,-3.238 36.141,36.141 0 0 0 3.408,-2.824 c 0.3,-0.311 0.716,-0.629 1.014,-0.94 a 18.418,18.418 0 0 1 3.814,-2.8 14.977,14.977 0 0 1 4.121,-1.679 4.986,4.986 0 0 1 1.189,-0.237 3.4,3.4 0 0 1 2.728,1.124 58.128,58.128 0 0 0 8.264,7.7 c 2.023,1.518 1.569,4.378 -4.586,6.4 -5.42,1.8 -9.962,3.393 -13.2,6.2 a 15.392,15.392 0 0 0 -5.074,9.476 c -0.153,0.925 0.847,1.962 2.3,2.248 a 2.949,2.949 0 0 0 1,0.084 2.3,2.3 0 0 0 2.2,-1.143 15.816,15.816 0 0 1 5.5,-7.046 c 2.937,-1.98 6.282,-2.637 9.8,-3.6 a 39.523,39.523 0 0 0 6.452,-2.219 42.778,42.778 0 0 0 4.129,-2.288 5.207,5.207 0 0 1 4.924,-0.148 66.859,66.859 0 0 0 7.717,3.092 5.088,5.088 0 0 1 3.608,3.645 c 0.139,0.407 0.12,0.71 0.259,1.117 a 22.332,22.332 0 0 1 0.423,2.879 7.4,7.4 0 0 1 -0.493,3.594 c -0.9,2.266 -3.085,4.545 -6.319,6.735 a 1.526,1.526 0 0 0 -0.745,1.128 1.589,1.589 0 0 0 0.854,1.335 4.138,4.138 0 0 0 2.318,0.681 3.983,3.983 0 0 0 1.6,-0.336 c 4.692,-2.206 7.97,-4.782 9.753,-7.572 a 12.524,12.524 0 0 0 1.649,-5.146 6.138,6.138 0 0 1 0.15,-1.345 c 0.158,-1.334 1.914,-2.372 3.808,-2.19 4.519,0.467 9.764,0.915 13.849,0.972 a 2.6,2.6 0 0 1 2.627,1.607 8.385,8.385 0 0 1 0.1,3.3 13.607,13.607 0 0 1 -1.5,3.7 c -0.147,0.309 -0.318,0.625 -0.464,0.934 -0.594,1.137 -1.173,2.364 -1.777,3.7 a 9.467,9.467 0 0 0 -0.647,5.23 11.651,11.651 0 0 0 2,4.916 21.493,21.493 0 0 0 4.056,4.251 4.245,4.245 0 0 0 2.454,0.713 8.737,8.737 0 0 0 1.6,-0.241 2.029,2.029 0 0 0 1.47,-1.135 1.249,1.249 0 0 0 -0.122,-1.219 c -2.162,-2.642 -3.281,-5.2 -3.112,-7.564 a 8.514,8.514 0 0 1 1.042,-3.5 28.412,28.412 0 0 1 1.767,-2.773 9.307,9.307 0 0 0 0.744,-1.033 18.556,18.556 0 0 0 2.426,-4.768 18.1,18.1 0 0 0 0.309,-3.463 c 0.02,-1.848 1.934,-3.514 4.425,-4.056 3.217,-0.65 6.42,-1.412 8.321,-1.948 a 2.858,2.858 0 0 1 0.917,-0.1 c 1.314,-0.014 2.446,0.685 2.579,1.607 a 13.8,13.8 0 0 0 0.433,1.949 12.436,12.436 0 0 0 2.407,5.007 19.814,19.814 0 0 0 4.656,3.959 28.6,28.6 0 0 0 5.945,2.691 5.933,5.933 0 0 0 1.32,0.176 4.166,4.166 0 0 0 2.606,-0.828 1.68,1.68 0 0 0 0.749,-1.452 1.1,1.1 0 0 0 -0.857,-1.015 c -3.485,-1.81 -5.947,-3.945 -7.1,-5.982 a 9.141,9.141 0 0 1 -0.966,-3.483 22.078,22.078 0 0 1 0.034,-3.08 l 0.012,-1.12 a 0.968,0.968 0 0 1 0.142,-0.612 6.552,6.552 0 0 1 3.549,-3.732 c 2.05,-0.946 3.966,-2.091 5.873,-3.142 a 4.59,4.59 0 0 1 2.061,-0.537 4.213,4.213 0 0 1 2.721,1 12.065,12.065 0 0 0 1.894,1.615 25.551,25.551 0 0 0 6.523,3.715 44.822,44.822 0 0 0 7.138,2.1 l 1.137,0.178 c 1.748,0.39 3.361,0.77 4.958,1.167 a 25.2,25.2 0 0 1 4.813,2 15.544,15.544 0 0 1 6.034,6.922 2.417,2.417 0 0 0 2.314,1.1 2.86,2.86 0 0 0 0.917,-0.1 c 1.613,-0.325 2.635,-1.349 2.351,-2.27 a 14.539,14.539 0 0 0 -5.457,-9.4 23.114,23.114 0 0 0 -6.071,-3.524 c -1.887,-0.8 -3.936,-1.4 -5.682,-1.988 l -1,-0.28 c -2.325,-0.8 -3.96,-1.4 -5.267,-1.993 a 16.967,16.967 0 0 1 -3.44,-2.337 19.036,19.036 0 0 1 -3.334,-3.973 1.964,1.964 0 0 1 0.62,-2.761 c 1.625,-1.451 4.578,-4.158 7.234,-6.65 a 3.805,3.805 0 0 1 4.789,-0.146 c 0.726,0.608 1.3,1.005 1.446,1.1 a 25.363,25.363 0 0 0 5.94,3.111 40.357,40.357 0 0 0 13.7,1.9 2.664,2.664 0 0 0 2.664,-1.758 c 0.154,-0.925 -0.73,-1.75 -1.892,-1.839 a 30.2,30.2 0 0 1 -10.462,-2.643 19.292,19.292 0 0 1 -3.621,-2.525 27.58,27.58 0 0 1 -2.878,-3.463 4.434,4.434 0 0 1 0.191,-5.13 c 1.334,-1.755 2.676,-3.612 3.565,-4.752 1.036,-1.551 3.821,-2 5.713,-0.9 0.435,0.3 0.855,0.495 1,0.6 a 29.757,29.757 0 0 0 6.4,2.625 37.791,37.791 0 0 0 10.064,1.113 c 1.171,-0.013 2.47,-0.021 3.785,-0.136 1.315,-0.115 2.472,-0.956 2.483,-1.98 0.01,-0.924 -0.858,-1.62 -2.172,-1.707 a 35.678,35.678 0 0 1 -10.922,-2.061 16.06,16.06 0 0 1 -3.895,-2.2 c -1.01,-0.913 -2.05,-1.932 -3.2,-2.944 0,0 -0.575,-0.587 -0.724,-0.793 a 3.059,3.059 0 0 1 -0.507,-3.9 c 1.639,-2.789 3.121,-5.688 4.61,-8.576 a 2.906,2.906 0 0 1 2.476,-1.342 l 0.59,-0.006 a 15.641,15.641 0 0 1 4.369,1.073 44.593,44.593 0 0 1 4.492,2.2 l 0.452,0.219 a 51.789,51.789 0 0 0 5.077,2.605 26.4,26.4 0 0 0 6.822,1.881 32.521,32.521 0 0 0 5.556,0.355 51.807,51.807 0 0 0 8.309,-0.828 c 1.317,-0.221 2.211,-1.143 2.079,-2.172 a 2.167,2.167 0 0 0 -2.31,-1.42 L 245,318.6 a 33.307,33.307 0 0 1 -9.063,-0.928 15.047,15.047 0 0 1 -4.362,-1.779 41.33,41.33 0 0 1 -3.755,-2.653 l -0.269,-0.187 a 29.632,29.632 0 0 0 -5.069,-3.344 31.124,31.124 0 0 0 -5.679,-2.184 c -1.747,-0.5 -2.751,-1.913 -2.156,-3.151 0.754,-1.956 1.653,-4.026 2.257,-6.082 A 4.059,4.059 0 0 1 220.443,296 h 0.135 c 2.042,-0.229 3.956,-0.457 5.709,-0.475 h 0.271 a 24.421,24.421 0 0 1 4.83,0.464 27.824,27.824 0 0 1 9.578,4.1 2.723,2.723 0 0 0 1.589,0.4 3.849,3.849 0 0 0 1.742,-0.534 c 1.027,-0.728 1.214,-1.754 0.347,-2.568 a 30.153,30.153 0 0 0 -10.462,-6.265 31.29,31.29 0 0 0 -7.1,-1.464 34.687,34.687 0 0 0 -4.1,-0.147 2.861,2.861 0 0 1 -1.9,-0.685 1.826,1.826 0 0 1 -0.534,-1.439 c 0.456,-1.645 1.188,-4.43 1.95,-7.1 0.456,-1.645 3.088,-2.7 5.263,-2.01 a 4.856,4.856 0 0 0 1.048,0.308 35.273,35.273 0 0 0 7.286,0.947 l 0.59,-0.006 a 40.753,40.753 0 0 0 12.843,-2.41 c 1.319,-0.423 1.919,-1.437 1.348,-2.355 a 2.417,2.417 0 0 0 -2.314,-1.095 1.226,1.226 0 0 0 -0.591,0.1 44.945,44.945 0 0 1 -7.76,0.883 34.149,34.149 0 0 1 -3.463,-0.153 20.68,20.68 0 0 1 -4.822,-1.169 c -1.451,-0.6 -2.9,-1.3 -4.359,-2 l -0.269,-0.126 c -0.436,-0.2 -0.88,-0.394 -1.316,-0.6 -1.164,-0.6 -1.911,-1.519 -1.749,-2.545 a 27.336,27.336 0 0 0 0.354,-3.273 2.5,2.5 0 0 1 2.616,-1.791 l 0.916,-0.01 a 33.467,33.467 0 0 0 7.857,-0.98 47.026,47.026 0 0 0 6.453,-2.247 l 0.32,-0.1 c 1.616,-0.633 3.208,-1.255 4.671,-1.78 a 16.989,16.989 0 0 1 4.98,-0.887 l 1.322,-0.014 a 40.842,40.842 0 0 1 9.743,1.34 2.54,2.54 0 0 0 0.867,0.086 2.823,2.823 0 0 0 2.2,-1.048 1.722,1.722 0 0 0 -0.976,-2.554 41.68,41.68 0 0 0 -13.1,-3.13 c -0.582,0.006 -1.194,-0.082 -1.776,-0.076 a 35.327,35.327 0 0 0 -5.662,0.576 c -2.2,0.432 -4.28,0.941 -6.038,1.475 l -0.551,0.135 a 32.247,32.247 0 0 1 -5.3,1.176 c -1.021,0.112 -1.866,0.21 -2.735,0.22 a 10.471,10.471 0 0 1 -1.776,-0.076 h -0.135 c -1.894,-0.187 -3.212,-1.287 -3.348,-2.719 a 70.069,70.069 0 0 0 -0.444,-9.641 2.436,2.436 0 0 1 0.889,-1.868 c 2.055,-1.455 3.778,-0.231 9.756,0.215 a 35.668,35.668 0 0 0 7.435,-0.3 36.328,36.328 0 0 0 12.453,-4.623 1.659,1.659 0 0 0 0.617,-2.571 2.835,2.835 0 0 0 -2.046,-0.812 4.54,4.54 0 0 0 -1.141,0.2 c -11.729,4.738 -16.36,2.045 -25.672,-0.112 a 5.348,5.348 0 0 1 -4.342,-3.542 64.371,64.371 0 0 0 -2.109,-7.479 c -0.423,-1.429 0.462,-2.967 2.368,-3.81 0.44,-0.212 0.88,-0.317 1.463,-0.531 a 34.11,34.11 0 0 1 4.392,-0.976 16.989,16.989 0 0 1 2.327,-0.12 c 0.876,-0.009 1.88,-0.026 3.194,0.061 l 0.908,-0.01 c 1.457,0.085 3.042,0.063 4.651,0.046 l 1.458,-0.016 a 27.274,27.274 0 0 0 7.31,-1.2 28.786,28.786 0 0 0 11.148,-6.177 1.6,1.6 0 0 0 -0.106,-2.658 3.126,3.126 0 0 0 -1.905,-0.59 2.365,2.365 0 0 0 -1.462,0.4 27.846,27.846 0 0 1 -9.936,3.919 19.107,19.107 0 0 1 -3.516,0.329 10.053,10.053 0 0 1 -1.736,-0.077 44.139,44.139 0 0 1 -4.964,-0.557 l -0.732,-0.087 a 46,46 0 0 0 -7.02,-0.535 34.64,34.64 0 0 0 -7.9,0.98 c -0.439,0.105 -0.7,0.226 -1.143,0.331 a 5.3,5.3 0 0 1 -1.778,0.114 3.224,3.224 0 0 1 -2.579,-1.607 c -0.57,-1.018 -1.174,-1.941 -1.744,-2.96 -1,-1.73 -1.994,-3.371 -3,-5 a 0.97,0.97 0 0 1 0.149,-1.222 2.461,2.461 0 0 1 1.649,-0.723 c 1.316,-0.115 2.448,-0.245 3.469,-0.356 a 29.743,29.743 0 0 0 7.045,-1.805 37.792,37.792 0 0 0 10.426,-6.488 1.64,1.64 0 0 0 0.6,-1.227 c 0,-0.409 -0.421,-0.807 -0.856,-1.111 a 3.814,3.814 0 0 0 -1.453,-0.4 2.808,2.808 0 0 0 -1.6,0.431 36.7,36.7 0 0 1 -9.717,4.3 19.616,19.616 0 0 1 -4.93,0.663 h -0.183 c -1.609,0.017 -3.329,-0.082 -5.517,-0.26 -0.438,0 -0.891,-0.086 -1.186,-0.083 a 4.493,4.493 0 0 1 -3.627,-1.915 c -0.719,-1.224 -1.725,-3.251 -2.722,-5.289 -0.857,-1.732 -0.216,-3.6 1.7,-4.956 1.469,-1.04 2.768,-1.86 3.354,-2.281 a 47.661,47.661 0 0 1 4.133,-2.8 18.005,18.005 0 0 1 4.536,-1.812 39.609,39.609 0 0 1 9.363,-1.029 l 2.191,-0.023 a 2.527,2.527 0 0 0 2.476,-1.342 1.3,1.3 0 0 0 -0.257,-1.246 2.226,2.226 0 0 0 -1.586,-0.688 60,60 0 0 0 -9.344,-0.734 c -1.458,0.016 -2.917,0.154 -4.384,0.271 a 34.264,34.264 0 0 0 -7.18,1.711 51.426,51.426 0 0 0 -5.868,2.722 1.761,1.761 0 0 1 -0.736,0.327 c -1.76,0.735 -3.922,0.227 -4.639,-1.2 -1.143,-2.552 -2.46,-5.186 -3.023,-6.921 a 1.445,1.445 0 0 1 0.473,-1.769 3.561,3.561 0 0 1 2.2,-0.919 c 1.316,-0.115 2.2,-0.247 2.783,-0.254 a 34.664,34.664 0 0 0 7.31,-1.2 47.148,47.148 0 0 0 11.59,-5.157 1.4,1.4 0 0 0 0.882,-1.23 1.146,1.146 0 0 0 -0.721,-1.112 3.037,3.037 0 0 0 -1.771,-0.5 2.9,2.9 0 0 0 -1.278,0.3 43.317,43.317 0 0 1 -10.43,3.19 c -1.021,0.112 -2.042,0.246 -2.918,0.255 a 15.919,15.919 0 0 1 -2.189,-0.105 c -1.894,-0.187 -3.905,-0.546 -5.511,-0.837 l -1.185,-0.211 a 3.543,3.543 0 0 1 -3.034,-2.308 c -0.846,-2.762 -1.405,-5.522 -1.966,-8.186 -0.28,-1.329 0.745,-2.6 2.361,-3.233 a 28.6,28.6 0 0 1 3.658,-0.935 16.126,16.126 0 0 1 3.238,-0.354 l 1.458,-0.016 a 41.2,41.2 0 0 1 5.376,0.777 67.216,67.216 0 0 0 6.7,0.824 c 0.733,-0.008 1.321,0.115 2.054,0.107 a 32.362,32.362 0 0 0 5.43,-0.472 58.915,58.915 0 0 0 12.443,-3.721 1.892,1.892 0 0 0 1.15,-1.037 0.909,0.909 0 0 0 -0.4,-1.115 2.981,2.981 0 0 0 -2.048,-0.622 4.527,4.527 0 0 0 -1.053,0.14 47.04,47.04 0 0 1 -11.1,1.848 h -0.135 a 22.074,22.074 0 0 1 -3.647,-0.151 40.817,40.817 0 0 1 -6.545,-1.694 l -0.452,-0.186 a 54.518,54.518 0 0 0 -5.82,-1.7 40.638,40.638 0 0 0 -7.836,-0.941 l -1.641,0.018 a 5.173,5.173 0 0 1 -3.769,-1.371 2.426,2.426 0 0 1 -0.712,-1.946 c 0.165,-1.95 0.345,-3.895 0.652,-5.745 0.312,-1.543 2.069,-2.715 4.411,-2.74 0.876,-0.009 1.77,-0.114 2.646,-0.123 2.336,-0.232 4.357,-0.668 6.256,-1 l 0.591,-0.1 a 39.313,39.313 0 0 1 5.568,-0.765 l 1,-0.011 a 24.851,24.851 0 0 1 3.916,0.249 47.929,47.929 0 0 1 10.358,3.383 3.657,3.657 0 0 0 1.454,0.3 2.9,2.9 0 0 0 1.461,-0.335 c 0.442,-0.313 0.74,-0.624 0.744,-1.032 a 1.61,1.61 0 0 0 -0.72,-1.213 48.226,48.226 0 0 0 -10.886,-5.331 31.616,31.616 0 0 0 -7.145,-1.463 c -1.457,-0.085 -3.073,-0.158 -4.969,-0.137 l -4.382,0.047 a 29.573,29.573 0 0 1 -3.194,-0.061 h -0.319 a 3.53,3.53 0 0 1 -2.76,-1.829 2.065,2.065 0 0 1 0.02,-1.859 78.589,78.589 0 0 1 5.541,-10.479 c 1.039,-1.752 3.377,-2.908 6.009,-3.143 1.021,-0.112 2.04,-0.117 2.917,-0.126 l 1.458,-0.016 a 25.59,25.59 0 0 1 4.963,0.652 40.779,40.779 0 0 1 5.363,1.992 l 1.046,0.5 c 1.6,0.7 3.463,1.615 5.36,2.316 a 30.6,30.6 0 0 0 7.868,1.646 20.06,20.06 0 0 0 2.461,0.069 38.217,38.217 0 0 0 12.748,-2.476 2.227,2.227 0 0 0 1.624,-2.805 2.371,2.371 0 0 0 -2.309,-1.515 2.5,2.5 0 0 0 -0.734,0.137 36.435,36.435 0 0 1 -7.761,0.979 20.55,20.55 0 0 1 -4.513,-0.338 19.671,19.671 0 0 1 -5.087,-1.709 37.4,37.4 0 0 1 -3.943,-2.2 l -1.131,-0.727 a 36.735,36.735 0 0 0 -6.53,-3.1 30.337,30.337 0 0 0 -8.331,-1.546 6.213,6.213 0 0 1 -1.138,-0.083 c -2.477,-0.074 -4.244,-1.606 -3.93,-3.356 a 94.63,94.63 0 0 0 1.438,-10.563 c 0.161,-1.642 2.4,-2.9 4.728,-2.615 0.437,0.1 0.875,0.08 1.456,0.175 1.75,0.188 3.476,0.467 5.379,0.553 0.733,-0.008 1.457,0.08 2.19,0.072 a 27.787,27.787 0 0 0 5.248,-0.571 27.159,27.159 0 0 0 12.06,-5.867 1.878,1.878 0 0 0 0.031,-2.856 3.1,3.1 0 0 0 -2.046,-0.812 2.764,2.764 0 0 0 -1.326,0.333 25.7,25.7 0 0 1 -10.251,3.569 10.066,10.066 0 0 1 -1.738,0.147 c -1.02,0.011 -2.205,-0.1 -3.375,-0.188 -1.312,-0.193 -2.639,-0.47 -4.1,-0.662 -0.581,-0.095 -1.009,-0.208 -1.59,-0.3 -0.143,0 -1.145,-0.2 -2.457,-0.388 -2.91,-0.484 -5.253,-1.875 -6.251,-3.813 a 53.79,53.79 0 0 0 -5.153,-8.052 1.742,1.742 0 0 1 -0.251,-1.856 3.113,3.113 0 0 1 1.609,-1.428 c 1.463,-0.531 2.183,-0.757 2.471,-0.861 0.439,-0.105 0.879,-0.228 1.461,-0.335 1.756,-0.327 3.353,-0.652 5.253,-1.081 a 24.108,24.108 0 0 0 6.592,-2.634 17.806,17.806 0 0 0 7.576,-8.8 c 0.448,-0.929 -0.44,-2.044 -1.749,-2.545 a 3.619,3.619 0 0 0 -1.455,-0.276 2.477,2.477 0 0 0 -2.066,0.951 16.959,16.959 0 0 1 -7.181,6.229 19.506,19.506 0 0 1 -4.713,1.361 c -1.317,0.221 -2.785,0.438 -4.244,0.56 -0.439,0.105 -1.013,0.134 -1.6,0.241 -0.587,0.107 -2.625,0.42 -5.251,0.857 a 11.23,11.23 0 0 1 -7.419,-1.141 c -2.462,-1.407 -4.812,-2.821 -6.119,-3.523 -1.449,-0.808 -1.863,-2.242 -0.83,-3.485 a 16.835,16.835 0 0 0 3.441,-5.87 20.166,20.166 0 0 0 0.651,-5.65 l 0.016,-1.445 a 25.4,25.4 0 0 1 0.036,-3.3 11.548,11.548 0 0 1 1.183,-3.988 c 1.341,-2.478 4.132,-4.876 8.242,-7.075 0.585,-0.314 0.924,-0.721 0.928,-1.13 a 1.592,1.592 0 0 0 -0.717,-1.437 5.029,5.029 0 0 0 -2.906,-0.9 4.917,4.917 0 0 0 -1.325,0.238 c -5.71,2.11 -9.714,4.694 -12.08,7.692 a 15.367,15.367 0 0 0 -2.794,5.673 c -0.312,1.543 -0.48,3.1 -0.638,4.43 l -0.147,1.026 a 14.748,14.748 0 0 1 -0.963,4.3 10.511,10.511 0 0 1 -1.906,3.1 4.527,4.527 0 0 1 -3.25,1.479 7.272,7.272 0 0 1 -1.591,-0.173 112.8,112.8 0 0 0 -12.234,-3.044 4.3,4.3 0 0 1 -2.9,-1.733 2.1,2.1 0 0 1 0.028,-2.564 c 0.146,-0.209 0.323,-0.412 0.324,-0.519 a 13.514,13.514 0 0 0 2.111,-5.151 c 0.472,-3.084 -0.679,-6.347 -3.27,-9.807 a 3.6,3.6 0 0 0 -2.768,-1.09 2.576,2.576 0 0 0 -0.869,0.1 2.1,2.1 0 0 0 -1.6,0.946 1.242,1.242 0 0 0 -0.149,1.222 c 1.283,2.858 1.675,5.642 0.917,7.906 a 8.318,8.318 0 0 1 -2.091,3.292 35.25,35.25 0 0 1 -2.625,2.592 l -0.917,0.844 a 9.217,9.217 0 0 1 -6.134,2.215 c -3.505,0.037 -7.132,0.283 -10.5,0.627 -0.295,0 -0.758,0.1 -1.053,0.106 -3.067,0.033 -5.667,-1.16 -6.672,-3.2 0,-0.1 -0.133,-0.217 -0.132,-0.318 a 9.025,9.025 0 0 1 -1.017,-3.163 10.184,10.184 0 0 1 0.5,-3.913 c 0,-0.308 0.142,-0.617 0.147,-1.026 a 31.187,31.187 0 0 0 0.774,-3.793 10.279,10.279 0 0 0 -0.811,-5.215 c -1.282,-2.959 -3.858,-5.6 -8.211,-8.12 a 3.524,3.524 0 0 0 -1.907,-0.394 z"
             transform="translate(1.595,1.086)"
             inkscape:connector-curvature="0"
             style="fill:#138d65;stroke:#000000;stroke-width:4" />
        </g>
      </g>
      <g
         id="Pfad_5"
         data-name="Pfad 5"
         transform="translate(205,238)"
         style="fill:#ffffff">
        <path
           d="M 24,47 C 20.894581,47 17.88258,46.392021 15.04767,45.192959 12.30897,44.03458 9.8491497,42.37606 7.7365499,40.263451 5.62394,38.150848 3.96542,35.691029 2.80704,32.952332 1.60798,30.11742 1,27.105419 1,24 1,20.894581 1.60798,17.88258 2.80704,15.04767 3.96542,12.30897 5.62394,9.8491497 7.7365499,7.7365499 9.8491497,5.62394 12.30897,3.96542 15.04767,2.80704 17.88258,1.60798 20.894581,1 24,1 c 3.105419,0 6.11742,0.60798 8.952332,1.80704 2.738697,1.15838 5.198516,2.8169 7.311119,4.9295099 C 42.37606,9.8491497 44.03458,12.30897 45.192959,15.04767 46.392021,17.88258 47,20.894581 47,24 c 0,3.105419 -0.607979,6.11742 -1.807041,8.952332 -1.158379,2.738697 -2.816899,5.198516 -4.929508,7.311119 -2.112603,2.112609 -4.572422,3.771129 -7.311119,4.929508 C 30.11742,46.392021 27.105419,47 24,47 Z"
           id="path14"
           inkscape:connector-curvature="0"
           style="stroke:none" />
        <path
           d="M 24,2 C 21.02914,2 18.148199,2.5814018 15.437222,3.7280502 12.817719,4.83601 10.464741,6.4225616 8.4436493,8.4436493 6.4225616,10.464741 4.83601,12.817719 3.7280502,15.437222 2.5814018,18.148199 2,21.02914 2,24 c 0,2.97086 0.5814018,5.851801 1.7280502,8.562782 1.1079598,2.619499 2.6945114,4.972477 4.7155991,6.993569 2.0210917,2.021087 4.3740697,3.607639 6.9935727,4.715599 C 18.148199,45.418602 21.02914,46 24,46 c 2.97086,0 5.851801,-0.581398 8.562782,-1.72805 2.619499,-1.10796 4.972477,-2.694512 6.993569,-4.715599 2.021087,-2.021092 3.607639,-4.37407 4.715599,-6.993569 C 45.418602,29.851801 46,26.97086 46,24 46,21.02914 45.418602,18.148199 44.27195,15.437222 43.16399,12.817719 41.577438,10.464741 39.556351,8.4436493 37.535259,6.4225616 35.182281,4.83601 32.562782,3.7280502 29.851801,2.5814018 26.97086,2 24,2 M 24,0 C 37.254829,0 48,10.745171 48,24 48,37.254829 37.254829,48 24,48 10.745171,48 0,37.254829 0,24 0,10.745171 10.745171,0 24,0 Z"
           id="path16"
           inkscape:connector-curvature="0"
           style="fill:#000000;stroke:none" />
      </g>
      <g
         id="Pfad_3"
         data-name="Pfad 3"
         transform="translate(269,283)"
         style="fill:#ffffff">
        <path
           d="M 24,47 C 20.894581,47 17.88258,46.392021 15.04767,45.192959 12.30897,44.03458 9.8491497,42.37606 7.7365499,40.263451 5.62394,38.150848 3.96542,35.691029 2.80704,32.952332 1.60798,30.11742 1,27.105419 1,24 1,20.894581 1.60798,17.88258 2.80704,15.04767 3.96542,12.30897 5.62394,9.8491497 7.7365499,7.7365499 9.8491497,5.62394 12.30897,3.96542 15.04767,2.80704 17.88258,1.60798 20.894581,1 24,1 c 3.105419,0 6.11742,0.60798 8.952332,1.80704 2.738697,1.15838 5.198516,2.8169 7.311119,4.9295099 C 42.37606,9.8491497 44.03458,12.30897 45.192959,15.04767 46.392021,17.88258 47,20.894581 47,24 c 0,3.105419 -0.607979,6.11742 -1.807041,8.952332 -1.158379,2.738697 -2.816899,5.198516 -4.929508,7.311119 -2.112603,2.112609 -4.572422,3.771129 -7.311119,4.929508 C 30.11742,46.392021 27.105419,47 24,47 Z"
           id="path19"
           inkscape:connector-curvature="0"
           style="stroke:none" />
        <path
           d="M 24,2 C 21.02914,2 18.148199,2.5814018 15.437222,3.7280502 12.817719,4.83601 10.464741,6.4225616 8.4436493,8.4436493 6.4225616,10.464741 4.83601,12.817719 3.7280502,15.437222 2.5814018,18.148199 2,21.02914 2,24 c 0,2.97086 0.5814018,5.851801 1.7280502,8.562782 1.1079598,2.619499 2.6945114,4.972477 4.7155991,6.993569 2.0210917,2.021087 4.3740697,3.607639 6.9935727,4.715599 C 18.148199,45.418602 21.02914,46 24,46 c 2.97086,0 5.851801,-0.581398 8.562782,-1.72805 2.619499,-1.10796 4.972477,-2.694512 6.993569,-4.715599 2.021087,-2.021092 3.607639,-4.37407 4.715599,-6.993569 C 45.418602,29.851801 46,26.97086 46,24 46,21.02914 45.418602,18.148199 44.27195,15.437222 43.16399,12.817719 41.577438,10.464741 39.556351,8.4436493 37.535259,6.4225616 35.182281,4.83601 32.562782,3.7280502 29.851801,2.5814018 26.97086,2 24,2 M 24,0 C 37.254829,0 48,10.745171 48,24 48,37.254829 37.254829,48 24,48 10.745171,48 0,37.254829 0,24 0,10.745171 10.745171,0 24,0 Z"
           id="path21"
           inkscape:connector-curvature="0"
           style="fill:#000000;stroke:none" />
      </g>
      <g
         id="Pfad_7"
         data-name="Pfad 7"
         transform="translate(106,224)"
         style="fill:#ffffff">
        <path
           d="M 24,47 C 20.894581,47 17.88258,46.392021 15.04767,45.192959 12.30897,44.03458 9.8491497,42.37606 7.7365499,40.263451 5.62394,38.150848 3.96542,35.691029 2.80704,32.952332 1.60798,30.11742 1,27.105419 1,24 1,20.894581 1.60798,17.88258 2.80704,15.04767 3.96542,12.30897 5.62394,9.8491497 7.7365499,7.7365499 9.8491497,5.62394 12.30897,3.96542 15.04767,2.80704 17.88258,1.60798 20.894581,1 24,1 c 3.105419,0 6.11742,0.60798 8.952332,1.80704 2.738697,1.15838 5.198516,2.8169 7.311119,4.9295099 C 42.37606,9.8491497 44.03458,12.30897 45.192959,15.04767 46.392021,17.88258 47,20.894581 47,24 c 0,3.105419 -0.607979,6.11742 -1.807041,8.952332 -1.158379,2.738697 -2.816899,5.198516 -4.929508,7.311119 -2.112603,2.112609 -4.572422,3.771129 -7.311119,4.929508 C 30.11742,46.392021 27.105419,47 24,47 Z"
           id="path24"
           inkscape:connector-curvature="0"
           style="stroke:none" />
        <path
           d="M 24,2 C 21.02914,2 18.148199,2.5814018 15.437222,3.7280502 12.817719,4.83601 10.464741,6.4225616 8.4436493,8.4436493 6.4225616,10.464741 4.83601,12.817719 3.7280502,15.437222 2.5814018,18.148199 2,21.02914 2,24 c 0,2.97086 0.5814018,5.851801 1.7280502,8.562782 1.1079598,2.619499 2.6945114,4.972477 4.7155991,6.993569 2.0210917,2.021087 4.3740697,3.607639 6.9935727,4.715599 C 18.148199,45.418602 21.02914,46 24,46 c 2.97086,0 5.851801,-0.581398 8.562782,-1.72805 2.619499,-1.10796 4.972477,-2.694512 6.993569,-4.715599 2.021087,-2.021092 3.607639,-4.37407 4.715599,-6.993569 C 45.418602,29.851801 46,26.97086 46,24 46,21.02914 45.418602,18.148199 44.27195,15.437222 43.16399,12.817719 41.577438,10.464741 39.556351,8.4436493 37.535259,6.4225616 35.182281,4.83601 32.562782,3.7280502 29.851801,2.5814018 26.97086,2 24,2 M 24,0 C 37.254829,0 48,10.745171 48,24 48,37.254829 37.254829,48 24,48 10.745171,48 0,37.254829 0,24 0,10.745171 10.745171,0 24,0 Z"
           id="path26"
           inkscape:connector-curvature="0"
           style="fill:#000000;stroke:none" />
      </g>
      <g
         id="Pfad_6"
         data-name="Pfad 6"
         transform="translate(160,296)"
         style="fill:#ffffff">
        <path
           d="M 15,29 C 11.26047,29 7.74476,27.543751 5.1005101,24.89949 2.45625,22.255239 1,18.739531 1,15 1,11.26047 2.45625,7.74476 5.1005101,5.1005101 7.74476,2.45625 11.26047,1 15,1 18.739531,1 22.255239,2.45625 24.89949,5.1005101 27.543751,7.74476 29,11.26047 29,15 29,18.739531 27.543751,22.255239 24.89949,24.89949 22.255239,27.543751 18.739531,29 15,29 Z"
           id="path29"
           inkscape:connector-curvature="0"
           style="stroke:none" />
        <path
           d="M 15,2 C 11.527571,2 8.262991,3.3522396 5.8076096,5.8076096 3.3522396,8.262991 2,11.527571 2,15 2,18.472431 3.3522396,21.737011 5.8076096,24.19239 8.262991,26.64776 11.527571,28 15,28 18.472431,28 21.737011,26.64776 24.19239,24.19239 26.64776,21.737011 28,18.472431 28,15 28,11.527571 26.64776,8.262991 24.19239,5.8076096 21.737011,3.3522396 18.472431,2 15,2 M 15,0 C 23.284269,0 30,6.7157307 30,15 30,23.284269 23.284269,30 15,30 6.7157307,30 0,23.284269 0,15 0,6.7157307 6.7157307,0 15,0 Z"
           id="path31"
           inkscape:connector-curvature="0"
           style="fill:#000000;stroke:none" />
      </g>
      <g
         id="Ellipse_5"
         data-name="Ellipse 5"
         transform="translate(309,227)"
         style="fill:#ffffff;stroke:#000000;stroke-width:2">
        <circle
           cx="17.5"
           cy="17.5"
           r="17.5"
           id="circle34"
           style="stroke:none" />
        <circle
           cx="17.5"
           cy="17.5"
           r="16.5"
           id="circle36"
           style="fill:none" />
      </g>
      <g
         id="Pfad_4"
         data-name="Pfad 4"
         transform="translate(352,311)"
         style="fill:#ffffff">
        <path
           d="M 17.5,34 C 13.09269,34 8.9491796,32.283699 5.8327398,29.167259 2.7163,26.050819 1,21.90731 1,17.5 1,13.09269 2.7163,8.9491796 5.8327398,5.8327398 8.9491796,2.7163 13.09269,1 17.5,1 21.90731,1 26.050819,2.7163 29.167259,5.8327398 32.283699,8.9491796 34,13.09269 34,17.5 34,21.90731 32.283699,26.050819 29.167259,29.167259 26.050819,32.283699 21.90731,34 17.5,34 Z"
           id="path39"
           inkscape:connector-curvature="0"
           style="stroke:none" />
        <path
           d="M 17.5,2 C 13.3598,2 9.4674091,3.6122799 6.5398502,6.5398502 3.6122799,9.4674091 2,13.3598 2,17.5 2,21.6402 3.6122799,25.532589 6.5398502,28.46015 9.4674091,31.38772 13.3598,33 17.5,33 21.6402,33 25.532589,31.38772 28.46015,28.46015 31.38772,25.532589 33,21.6402 33,17.5 33,13.3598 31.38772,9.4674091 28.46015,6.5398502 25.532589,3.6122799 21.6402,2 17.5,2 m 0,-2 C 27.16498,0 35,7.8350201 35,17.5 35,27.16498 27.16498,35 17.5,35 7.8350201,35 0,27.16498 0,17.5 0,7.8350201 7.8350201,0 17.5,0 Z"
           id="path41"
           inkscape:connector-curvature="0"
           style="fill:#000000;stroke:none" />
      </g>
      <g
         id="Pfad_10"
         data-name="Pfad 10"
         transform="translate(272.5,82)"
         style="fill:#ffffff">
        <path
           d="m 7.5,14.25 c -3.7219601,0 -6.75,-3.02804 -6.75,-6.75 0,-3.7219601 3.0280399,-6.75 6.75,-6.75 3.72196,0 6.75,3.0280399 6.75,6.75 0,3.72196 -3.02804,6.75 -6.75,6.75 z"
           id="path44"
           inkscape:connector-curvature="0"
           style="stroke:none" />
        <path
           d="m 7.5,1.5 c -3.3084097,0 -6,2.6915903 -6,6 0,3.308411 2.6915903,6 6,6 3.308411,0 6,-2.691589 6,-6 0,-3.3084097 -2.691589,-6 -6,-6 M 7.5,0 C 11.642139,0 15,3.3578596 15,7.5 15,11.642139 11.642139,15 7.5,15 3.3578596,15 0,11.642139 0,7.5 0,3.3578596 3.3578596,0 7.5,0 Z"
           id="path46"
           inkscape:connector-curvature="0"
           style="fill:#000000;stroke:none" />
      </g>
      <g
         id="Ellipse_8"
         data-name="Ellipse 8"
         transform="translate(370.5,130)"
         style="fill:#ffffff;stroke:#000000;stroke-width:1.5">
        <circle
           cx="5"
           cy="5"
           r="5"
           id="circle49"
           style="stroke:none" />
        <circle
           cx="5"
           cy="5"
           r="4.25"
           id="circle51"
           style="fill:none" />
      </g>
      <g
         id="Pfad_9"
         data-name="Pfad 9"
         transform="translate(299.5,104)"
         style="fill:#ffffff">
        <path
           d="M 5,9.25 C 2.6565399,9.25 0.75,7.3434601 0.75,5 0.75,2.6565399 2.6565399,0.75 5,0.75 7.3434601,0.75 9.25,2.6565399 9.25,5 9.25,7.3434601 7.3434601,9.25 5,9.25 Z"
           id="path54"
           inkscape:connector-curvature="0"
           style="stroke:none" />
        <path
           d="M 5,1.5 C 3.0700898,1.5 1.5,3.0700898 1.5,5 1.5,6.9299097 3.0700898,8.5 5,8.5 6.9299097,8.5 8.5,6.9299097 8.5,5 8.5,3.0700898 6.9299097,1.5 5,1.5 M 5,0 c 2.7614202,0 5,2.2385802 5,5 0,2.7614202 -2.2385798,5 -5,5 C 2.2385802,10 0,7.7614202 0,5 0,2.2385802 2.2385802,0 5,0 Z"
           id="path56"
           inkscape:connector-curvature="0"
           style="fill:#000000;stroke:none" />
      </g>
      <g
         id="Pfad_8"
         data-name="Pfad 8"
         transform="translate(334.5,104)"
         style="fill:#ffffff">
        <path
           d="m 7.5,14.25 c -3.7219601,0 -6.75,-3.02804 -6.75,-6.75 0,-3.7219601 3.0280399,-6.75 6.75,-6.75 3.72196,0 6.75,3.0280399 6.75,6.75 0,3.72196 -3.02804,6.75 -6.75,6.75 z"
           id="path59"
           inkscape:connector-curvature="0"
           style="stroke:none" />
        <path
           d="m 7.5,1.5 c -3.3084097,0 -6,2.6915903 -6,6 0,3.308411 2.6915903,6 6,6 3.308411,0 6,-2.691589 6,-6 0,-3.3084097 -2.691589,-6 -6,-6 M 7.5,0 C 11.642139,0 15,3.3578596 15,7.5 15,11.642139 11.642139,15 7.5,15 3.3578596,15 0,11.642139 0,7.5 0,3.3578596 3.3578596,0 7.5,0 Z"
           id="path61"
           inkscape:connector-curvature="0"
           style="fill:#000000;stroke:none" />
      </g>
    </g>
  </g>
</svg>
