<?xml version="1.0" encoding="UTF-8" standalone="no"?>
<svg
   xmlns:dc="http://purl.org/dc/elements/1.1/"
   xmlns:cc="http://creativecommons.org/ns#"
   xmlns:rdf="http://www.w3.org/1999/02/22-rdf-syntax-ns#"
   xmlns:svg="http://www.w3.org/2000/svg"
   xmlns="http://www.w3.org/2000/svg"
   xmlns:sodipodi="http://sodipodi.sourceforge.net/DTD/sodipodi-0.dtd"
   xmlns:inkscape="http://www.inkscape.org/namespaces/inkscape"
   width="236.488"
   height="203.945"
   viewBox="0 0 236.488 203.945"
   version="1.1"
   id="svg10"
   sodipodi:docname="Icon_Dir_2.svg"
   inkscape:version="0.92.5 (2060ec1f9f, 2020-04-08)">
  <metadata
     id="metadata16">
    <rdf:RDF>
      <cc:Work
         rdf:about="">
        <dc:format>image/svg+xml</dc:format>
        <dc:type
           rdf:resource="http://purl.org/dc/dcmitype/StillImage" />
      </cc:Work>
    </rdf:RDF>
  </metadata>
  <defs
     id="defs14" />
  <sodipodi:namedview
     pagecolor="#ffffff"
     bordercolor="#666666"
     borderopacity="1"
     objecttolerance="10"
     gridtolerance="10"
     guidetolerance="10"
     inkscape:pageopacity="0"
     inkscape:pageshadow="2"
     inkscape:window-width="1720"
     inkscape:window-height="1128"
     id="namedview12"
     showgrid="false"
     inkscape:zoom="4.6286987"
     inkscape:cx="131.86713"
     inkscape:cy="122.16585"
     inkscape:window-x="0"
     inkscape:window-y="0"
     inkscape:window-maximized="0"
     inkscape:current-layer="svg10" />
  <path
     style="isolation:isolate"
     id="Pfad_2"
     data-name="Pfad 2"
     d="M 66.5,78.5 H 217.605 V 185.84 H 66.5 Z"
     fill="rgba(230,213,75,0.69)"
     inkscape:connector-curvature="0" />
  <path
     id="Pfad_2-2"
     data-name="Pfad 2"
     d="m 19.5,24.019 h 83 v 161.82 h -83 z"
     inkscape:connector-curvature="0"
     style="isolation:isolate;fill:#ebe28f" />
  <path
     id="Pfad_3"
     data-name="Pfad 3"
     d="m 102.504,52.429 h 91.355 v 26.949 h -91.355 z"
     inkscape:connector-curvature="0"
     style="isolation:isolate;fill:#ebe28f" />
  <path
     id="Pfad_2-2-3"
     data-name="Pfad 2"
     d="M 48.158028,86.091578 H 219.30375 V 182.01833 H 48.158028 Z"
     inkscape:connector-curvature="0"
     style="isolation:isolate;fill:#ebe28f;stroke-width:1.10559928" />
  <path
     id="Pfad_1"
     data-name="Pfad 1"
     d="M 213.762,68.482 V 46.155 A 10.9,10.9 0 0 0 203.149,34.991 H 112.938 L 81.1,1.5 H 12.113 A 10.9,10.9 0 0 0 1.5,12.664 v 156.29 c 0,18.5 14.255,33.491 31.839,33.491 h 191.036 a 10.9,10.9 0 0 0 10.613,-11.164 V 79.645 A 10.9,10.9 0 0 0 224.375,68.481 Z M 22.726,23.827 h 49.351 l 26,26.793 5.837,6.7 h 88.619 V 68.482 H 54.566 A 10.9,10.9 0 0 0 43.952,79.645 V 168.4 a 11.6,11.6 0 0 1 -9.021,11.722 10.257,10.257 0 0 1 -8.556,-2.622 11.424,11.424 0 0 1 -3.648,-8.551 z M 213.762,180.118 H 65.179 V 90.809 h 148.583 z"
     inkscape:connector-curvature="0"
     style="fill:#fde10b;stroke:#707070;stroke-width:3" />
</svg>
