<svg xmlns="http://www.w3.org/2000/svg" width="99.823" height="81.505" viewBox="0 0 99.823 81.505">
  <g id="Gruppe_4" data-name="Gruppe 4" transform="translate(-274.903 -292.991)">
    <path id="Icon_awesome-dna" data-name="Icon awesome-dna" d="M.007,83.058c-.076,1.6.437,2.992,1.1,2.992l2.243.017c.562,0,1.035-.992,1.111-2.337.049-.824.125-1.866.236-3.043H26.387c.111,1.16.2,2.219.243,3.043.076,1.345.549,2.353,1.111,2.337l2.243-.017c.667,0,1.187-1.4,1.1-2.992-.319-6.371-1.778-21.685-8.256-34.914a52.236,52.236,0,0,1-4.062,5.951c.431.773.792,1.58,1.18,2.387H11.09a42.8,42.8,0,0,1,5.465-8.64C28.505,33.469,30.7,11.061,31.1,3.009c.076-1.6-.437-2.992-1.1-2.992L27.748,0c-.562,0-1.035.992-1.111,2.337-.049.824-.125,1.866-.236,3.043H4.708C4.6,4.2,4.521,3.177,4.472,2.337,4.4.992,3.923-.017,3.361,0L1.118.017C.451.017-.069,1.412.007,3.009.368,10.221,2.18,28.88,11.11,43.034,2.187,57.188.368,75.847.007,83.058ZM15.555,36.915a44.089,44.089,0,0,1-4.465-7.329h8.923A42.927,42.927,0,0,1,15.555,36.915Zm9.1-20.777c-.4,1.748-.889,3.547-1.458,5.379H7.916c-.576-1.832-1.062-3.631-1.458-5.379ZM6.451,69.93c.4-1.748.889-3.547,1.458-5.379H23.144c.576,1.832,1.069,3.631,1.472,5.379Z" transform="translate(297.883 374.496) rotate(-130)" fill="#d3c7c7"/>
    <path id="Icon_awesome-tree" data-name="Icon awesome-tree" d="M32.019,26.613,25.257,20.25H27.85a1.986,1.986,0,0,0,1.759-.918,1.349,1.349,0,0,0-.278-1.691L22.718,11.25h2.445a1.965,1.965,0,0,0,1.766-.957A1.37,1.37,0,0,0,26.57,8.6L17.237.34a1.6,1.6,0,0,0-1.974,0L5.93,8.6a1.371,1.371,0,0,0-.359,1.693,1.966,1.966,0,0,0,1.766.957H9.782L3.169,17.642a1.351,1.351,0,0,0-.277,1.69,1.986,1.986,0,0,0,1.759.918H7.243L.482,26.613a1.356,1.356,0,0,0-.3,1.706,2.026,2.026,0,0,0,1.778.932H13.542v1.719l-2.564,3.4c-.45.748.2,1.628,1.211,1.628h8.122c1.006,0,1.661-.88,1.211-1.628l-2.564-3.4V29.25H30.542a2.026,2.026,0,0,0,1.778-.932A1.356,1.356,0,0,0,32.019,26.613Z" transform="translate(274.903 292.992)" fill="#3c8664"/>
    <g id="Icon_feather-home" data-name="Icon feather-home" transform="translate(306.815 292.992)">
      <path id="Pfad_3" data-name="Pfad 3" d="M4.5,13.5,18,3,31.5,13.5V30a3,3,0,0,1-3,3H7.5a3,3,0,0,1-3-3Z" fill="none" stroke="#9a8738" stroke-linecap="round" stroke-linejoin="round" stroke-width="3"/>
      <path id="Pfad_4" data-name="Pfad 4" d="M13.5,33V18h9V33" fill="none" stroke="#9a8738" stroke-linecap="round" stroke-linejoin="round" stroke-width="3"/>
    </g>
    <path id="Icon_awesome-water" data-name="Icon awesome-water" d="M97.431,38.662a28.139,28.139,0,0,1-10.036-2.446,10.175,10.175,0,0,0-8.355,0c-6.569,3.247-18.581,3.247-25.255-.16a9.707,9.707,0,0,0-8.095.192c-6.587,3.215-18.529,3.2-25.168-.182a9.87,9.87,0,0,0-8.164.214,27.724,27.724,0,0,1-10,2.392C.988,38.758,0,39.506,0,40.35v3.439c0,.972,1.317,1.794,2.895,1.709a45.692,45.692,0,0,0,13.763-2.766c9.793,3.7,23.747,3.642,33.28,0,9.793,3.7,23.747,3.642,33.28,0a47.036,47.036,0,0,0,13.711,2.755c1.577.085,2.895-.737,2.895-1.709V40.4c.017-.854-.988-1.645-2.392-1.741Zm0-15.379a28.139,28.139,0,0,1-10.036-2.446,10.175,10.175,0,0,0-8.355,0c-6.569,3.247-18.581,3.247-25.255-.16a9.707,9.707,0,0,0-8.095.192c-6.587,3.215-18.529,3.2-25.168-.182a9.87,9.87,0,0,0-8.164.214,27.724,27.724,0,0,1-10,2.392C.988,23.38,0,24.127,0,24.971V28.41c0,.972,1.317,1.794,2.895,1.709a45.692,45.692,0,0,0,13.763-2.766c9.793,3.7,23.747,3.642,33.28,0,9.793,3.7,23.747,3.642,33.28,0a47.036,47.036,0,0,0,13.711,2.755c1.577.085,2.895-.737,2.895-1.709V25.024c.017-.854-.988-1.645-2.392-1.741Zm0-15.379A28.366,28.366,0,0,1,87.395,5.459a10.175,10.175,0,0,0-8.355,0C72.471,8.706,60.459,8.706,53.785,5.3a9.707,9.707,0,0,0-8.095.192C39.1,8.706,27.161,8.7,20.523,5.31a9.87,9.87,0,0,0-8.164.214,27.724,27.724,0,0,1-10,2.392C.988,8,0,8.749,0,9.592v3.439C0,14,1.317,14.825,2.895,14.74a45.692,45.692,0,0,0,13.763-2.766c9.793,3.7,23.747,3.642,33.28,0,9.793,3.7,23.747,3.642,33.28,0a47.036,47.036,0,0,0,13.711,2.755c1.577.085,2.895-.737,2.895-1.709V9.646c.017-.854-.988-1.645-2.392-1.741Z" transform="translate(274.903 328.993)" fill="#266cbe"/>
    <path id="Icon_awesome-mountain" data-name="Icon awesome-mountain" d="M32.242,24.4,17.617.775a1.593,1.593,0,0,0-2.734,0L.258,24.4A1.743,1.743,0,0,0,.2,26.121,1.617,1.617,0,0,0,1.625,27h29.25a1.617,1.617,0,0,0,1.426-.879,1.742,1.742,0,0,0-.059-1.721ZM16.25,4.808l4.336,7H16.25L13,15.188,11.067,13.18Z" transform="translate(342.227 297.492)" fill="#968e8e"/>
  </g>
</svg>
