<?xml version="1.0" encoding="UTF-8" standalone="no"?>
<!-- Created with Inkscape (http://www.inkscape.org/) -->

<svg
   xmlns:osb="http://www.openswatchbook.org/uri/2009/osb"
   xmlns:dc="http://purl.org/dc/elements/1.1/"
   xmlns:cc="http://creativecommons.org/ns#"
   xmlns:rdf="http://www.w3.org/1999/02/22-rdf-syntax-ns#"
   xmlns:svg="http://www.w3.org/2000/svg"
   xmlns="http://www.w3.org/2000/svg"
   xmlns:xlink="http://www.w3.org/1999/xlink"
   xmlns:sodipodi="http://sodipodi.sourceforge.net/DTD/sodipodi-0.dtd"
   xmlns:inkscape="http://www.inkscape.org/namespaces/inkscape"
   width="6.2410574mm"
   height="6.3417625mm"
   viewBox="0 0 6.2410574 6.3417625"
   version="1.1"
   id="svg8"
   inkscape:version="0.92.3 (2405546, 2018-03-11)"
   sodipodi:docname="Login24.svg">
  <defs
     id="defs2">
    <linearGradient
       id="linearGradient878"
       osb:paint="solid">
      <stop
         style="stop-color:#864400;stop-opacity:1;"
         offset="0"
         id="stop876" />
    </linearGradient>
    <linearGradient
       inkscape:collect="always"
       id="linearGradient821">
      <stop
         style="stop-color:#000000;stop-opacity:1;"
         offset="0"
         id="stop817" />
      <stop
         style="stop-color:#000000;stop-opacity:0"
         offset="1"
         id="stop819" />
    </linearGradient>
    <linearGradient
       inkscape:collect="always"
       xlink:href="#linearGradient821"
       id="linearGradient823"
       x1="110.11504"
       y1="67.682747"
       x2="183.86816"
       y2="195.57121"
       gradientUnits="userSpaceOnUse"
       gradientTransform="matrix(0.06956012,0,0,0.05289065,161.86713,62.803993)" />
  </defs>
  <sodipodi:namedview
     id="base"
     pagecolor="#ffffff"
     bordercolor="#666666"
     borderopacity="1.0"
     inkscape:pageopacity="0.0"
     inkscape:pageshadow="2"
     inkscape:zoom="15.839192"
     inkscape:cx="-7.403346"
     inkscape:cy="1.5442998"
     inkscape:document-units="mm"
     inkscape:current-layer="layer1"
     showgrid="false"
     inkscape:window-width="1918"
     inkscape:window-height="1058"
     inkscape:window-x="23"
     inkscape:window-y="0"
     inkscape:window-maximized="0"
     fit-margin-top="0"
     fit-margin-left="0"
     fit-margin-right="0"
     fit-margin-bottom="0" />
  <metadata
     id="metadata5">
    <rdf:RDF>
      <cc:Work
         rdf:about="">
        <dc:format>image/svg+xml</dc:format>
        <dc:type
           rdf:resource="http://purl.org/dc/dcmitype/StillImage" />
        <dc:title></dc:title>
      </cc:Work>
    </rdf:RDF>
  </metadata>
  <g
     inkscape:label="Layer 1"
     inkscape:groupmode="layer"
     id="layer1"
     transform="translate(-167.71515,-66.304679)">
    <rect
       style="fill:url(#linearGradient823);fill-opacity:1;stroke:#581900;stroke-width:0.15818934;stroke-linecap:round;stroke-linejoin:miter;stroke-miterlimit:4;stroke-dasharray:none;stroke-opacity:1"
       id="rect815"
       width="4.3503642"
       height="5.3292947"
       x="169.52675"
       y="66.383774" />
    <ellipse
       style="fill:#00ff00;fill-opacity:1;stroke:none;stroke-width:0.02282813;stroke-linecap:round;stroke-linejoin:bevel;stroke-miterlimit:4;stroke-dasharray:none;stroke-opacity:1"
       id="path829"
       cx="169.58029"
       cy="67.397598"
       rx="0.50039488"
       ry="0.45460168" />
    <rect
       style="fill:#00ff00;fill-opacity:1;stroke:none;stroke-width:0.0276747;stroke-linecap:round;stroke-linejoin:bevel;stroke-miterlimit:4;stroke-dasharray:none;stroke-opacity:1"
       id="rect831"
       width="1.4847178"
       height="2.1486812"
       x="168.83681"
       y="67.974083" />
    <rect
       style="fill:#00ff00;fill-opacity:1;stroke:none;stroke-width:0.02690135;stroke-linecap:round;stroke-linejoin:bevel;stroke-miterlimit:4;stroke-dasharray:none;stroke-opacity:1"
       id="rect835"
       width="0.39041725"
       height="1.385334"
       x="168.21443"
       y="68.736839" />
    <rect
       style="fill:#00ff00;fill-opacity:1;stroke:none;stroke-width:0.02325307;stroke-linecap:round;stroke-linejoin:bevel;stroke-miterlimit:4;stroke-dasharray:none;stroke-opacity:1"
       id="rect835-3"
       width="0.41048399"
       height="0.98446381"
       x="179.07571"
       y="-10.879542"
       transform="matrix(0.90441449,0.42665493,-0.6322087,0.77479814,0,0)" />
    <rect
       style="fill:#00ff00;fill-opacity:1;stroke:none;stroke-width:0.03550354;stroke-linecap:round;stroke-linejoin:bevel;stroke-miterlimit:4;stroke-dasharray:none;stroke-opacity:1"
       id="rect852"
       width="0.58115637"
       height="1.1839379"
       x="189.25446"
       y="47.64912"
       transform="matrix(0.99045108,0.13786465,-0.38681235,0.92215845,0,0)" />
    <rect
       style="fill:#00ff00;fill-opacity:1;stroke:none;stroke-width:0.03516018;stroke-linecap:round;stroke-linejoin:bevel;stroke-miterlimit:4;stroke-dasharray:none;stroke-opacity:1"
       id="rect854"
       width="0.5236901"
       height="1.7034929"
       x="179.99178"
       y="-133.59999"
       transform="matrix(0.4086461,0.91269292,-0.71390988,0.70023759,0,0)" />
    <rect
       style="fill:#00ff00;fill-opacity:1;stroke:none;stroke-width:0.0359226;stroke-linecap:round;stroke-linejoin:bevel;stroke-miterlimit:4;stroke-dasharray:none;stroke-opacity:1"
       id="rect856"
       width="0.6240465"
       height="2.9449334"
       x="132.26108"
       y="106.69079"
       transform="matrix(0.97545337,-0.22020607,0.3781773,0.92573318,0,0)" />
    <rect
       style="fill:#00ff00;fill-opacity:1;stroke:none;stroke-width:0.0243511;stroke-linecap:round;stroke-linejoin:bevel;stroke-miterlimit:4;stroke-dasharray:none;stroke-opacity:1"
       id="rect835-3-3"
       width="0.43645877"
       height="1.0153811"
       x="-87.182091"
       y="137.05568"
       transform="matrix(-0.91596261,0.40126362,0.66006747,0.75120632,0,0)" />
    <rect
       style="fill:#864400;fill-opacity:1;stroke:#581900;stroke-width:0.13779981;stroke-linecap:round;stroke-linejoin:miter;stroke-miterlimit:4;stroke-dasharray:none;stroke-opacity:1"
       id="rect815-5"
       width="3.3011754"
       height="5.3292947"
       x="176.46489"
       y="112.02811"
       transform="matrix(0.96724101,-0.25385985,0,1,0,0)" />
    <rect
       style="fill:#552200;fill-opacity:1;stroke:#581900;stroke-width:0.19993499;stroke-linecap:round;stroke-linejoin:miter;stroke-miterlimit:4;stroke-dasharray:none;stroke-opacity:1"
       id="rect890"
       width="0.76136291"
       height="0.14295138"
       x="188.77847"
       y="115.05361"
       transform="matrix(0.97197462,-0.23508583,-0.10875349,0.99406875,0,0)" />
    <path
       style="fill:#55d400;fill-opacity:1;stroke:#000000;stroke-width:0.01194492;stroke-linecap:round;stroke-linejoin:bevel;stroke-miterlimit:4;stroke-dasharray:none;stroke-opacity:1"
       d="m 167.82688,72.161048 c -0.0564,-0.12662 -0.10264,-0.234231 -0.10264,-0.239137 0,-0.0049 0.19176,-0.196781 0.42613,-0.426391 0.23437,-0.229609 0.43004,-0.424871 0.43482,-0.433915 0.0104,-0.01972 0.38647,-0.914266 0.39092,-0.929889 0.003,-0.0099 -0.003,-0.01089 -0.0661,-0.01089 h -0.0692 v -0.760464 -0.760464 l -0.015,0.01541 c -0.008,0.0085 -0.0615,0.07253 -0.1182,0.142341 l -0.10315,0.126928 v 0.618123 0.618124 h -0.19285 -0.19285 v -0.692285 -0.692285 l 0.30949,-0.38051 0.30949,-0.38051 0.74029,-4.51e-4 0.74029,-4.51e-4 0.14774,0.168036 0.14775,0.168035 v 0.294816 c 0,0.263093 -0.001,0.295221 -0.01,0.298591 -0.005,0.0021 -0.0105,0.0038 -0.0113,0.0038 -8.1e-4,0 -0.0615,-0.06842 -0.1348,-0.152054 l -0.13332,-0.152054 -0.002,0.758672 -0.002,0.758671 h -0.0504 c -0.0439,0 -0.0499,0.0013 -0.0465,0.01008 0.002,0.0055 0.0906,0.222513 0.19662,0.482159 l 0.19276,0.472085 v 0.624677 0.624677 l -0.0669,0.01563 c -0.0368,0.0086 -0.0675,0.01499 -0.0683,0.01422 -0.002,-0.0017 -0.18634,-0.452501 -0.59253,-1.447141 -0.1684,-0.412345 -0.30803,-0.753069 -0.31029,-0.757165 -0.004,-0.0074 -0.43385,1.009229 -0.43754,1.034938 -0.001,0.0081 -0.213,0.220145 -0.54002,0.540495 -0.29596,0.28993 -0.5675,0.55609 -0.60342,0.591466 l -0.0653,0.06432 z"
       id="path30"
       inkscape:connector-curvature="0" />
    <path
       style="fill:#55d400;fill-opacity:1;stroke:#000000;stroke-width:0.01194492;stroke-linecap:round;stroke-linejoin:bevel;stroke-miterlimit:4;stroke-dasharray:none;stroke-opacity:1"
       d="m 169.48476,67.841095 c -0.20211,-0.03961 -0.3544,-0.178806 -0.39264,-0.358862 -0.0491,-0.23112 0.11441,-0.463808 0.36686,-0.522152 0.052,-0.01201 0.0717,-0.01348 0.14259,-0.01063 0.0913,0.0037 0.14732,0.01663 0.21183,0.04896 0.13652,0.06843 0.22918,0.184814 0.2566,0.322351 0.0307,0.153753 -0.0356,0.321172 -0.16632,0.420245 -0.0471,0.03566 -0.1358,0.07867 -0.19186,0.09299 -0.0556,0.01419 -0.17224,0.01784 -0.22706,0.0071 z"
       id="path32"
       inkscape:connector-curvature="0" />
    <path
       style="fill:#a05a2c;fill-opacity:1;stroke:#000000;stroke-width:0.02388985;stroke-linecap:round;stroke-linejoin:bevel;stroke-miterlimit:4;stroke-dasharray:none;stroke-opacity:1"
       d="m 170.75119,69.874478 0.003,-2.590551 1.31883,-0.346141 c 0.72536,-0.190378 1.41261,-0.370785 1.52723,-0.400906 l 0.2084,-0.05476 v 2.592383 2.592383 l -0.0653,0.01858 c -0.14601,0.04154 -2.9687,0.779565 -2.98155,0.779565 -0.0102,0 -0.013,-0.691394 -0.0107,-2.59055 z m 0.58298,0.268708 c 0.24221,-0.0588 0.44318,-0.109588 0.44661,-0.112863 0.009,-0.0087 0.0461,-0.340212 0.038,-0.340025 -0.0127,2.95e-4 -0.92437,0.222712 -0.92794,0.226397 -0.002,0.002 -0.01,0.05964 -0.0173,0.128083 -0.008,0.06844 -0.0168,0.142633 -0.0204,0.164876 -0.005,0.03374 -0.003,0.04044 0.0171,0.04044 0.013,0 0.22181,-0.04811 0.46403,-0.106909 z"
       id="path26"
       inkscape:connector-curvature="0" />
  </g>
</svg>
