<?xml version="1.0" encoding="UTF-8" standalone="no"?>
<svg
   xmlns:dc="http://purl.org/dc/elements/1.1/"
   xmlns:cc="http://creativecommons.org/ns#"
   xmlns:rdf="http://www.w3.org/1999/02/22-rdf-syntax-ns#"
   xmlns:svg="http://www.w3.org/2000/svg"
   xmlns="http://www.w3.org/2000/svg"
   id="svg29"
   version="1.1"
   viewBox="0 0 50 50"
   height="32px"
   width="32px">
  <metadata
     id="metadata33">
    <rdf:RDF>
      <cc:Work
         rdf:about="">
        <dc:format>image/svg+xml</dc:format>
        <dc:type
           rdf:resource="http://purl.org/dc/dcmitype/StillImage" />
      </cc:Work>
    </rdf:RDF>
  </metadata>
  <defs
     id="defs15">
    <style
       id="style2">.a{fill:#acbbd5;stroke-linecap:round;stroke-linejoin:bevel;}.b{fill:#b789de;stroke:#6f6b6b;}.c,.d{stroke:none;}.d{fill:#797373;}.e{filter:url(#a);}</style>
    <filter
       filterUnits="userSpaceOnUse"
       height="50"
       width="50"
       y="0"
       x="0"
       id="a">
      <feOffset
         id="feOffset4"
         input="SourceAlpha"
         dy="3" />
      <feGaussianBlur
         id="feGaussianBlur6"
         result="b"
         stdDeviation="3" />
      <feFlood
         id="feFlood8"
         flood-opacity="0.161" />
      <feComposite
         result="result1"
         id="feComposite10"
         in2="b"
         operator="in" />
      <feComposite
         id="feComposite12"
         in2="result1"
         in="SourceGraphic" />
    </filter>
  </defs>
  <g
     id="g27"
     transform="translate(1548 563)">
    <g
       id="g23"
       transform="matrix(1, 0, 0, 1, -1548, -563)"
       class="e">
      <g
         id="g21"
         transform="translate(9 6)"
         class="a">
        <path
           id="path17"
           d="M 31.5 31.5 L 0.5 31.5 L 0.5 0.4999990463256836 L 13.21428966522217 0.4999990463256836 L 13.21428966522217 15.99999904632568 L 13.21428966522217 16.5 L 13.71428966522217 16.5 L 31.5 16.5 L 31.5 31.5 Z M 4.071430206298828 23.5 L 4.071430206298828 24 L 4.071430206298828 28 L 4.071430206298828 28.5 L 4.571430206298828 28.5 L 22.85713958740234 28.5 L 23.35713958740234 28.5 L 23.35713958740234 28 L 23.35713958740234 24 L 23.35713958740234 23.5 L 22.85713958740234 23.5 L 4.571430206298828 23.5 L 4.071430206298828 23.5 Z M 4.071430206298828 15.49999904632568 L 4.071430206298828 15.99999904632568 L 4.071430206298828 20 L 4.071430206298828 20.5 L 4.571430206298828 20.5 L 9.142860412597656 20.5 L 9.642860412597656 20.5 L 9.642860412597656 20 L 9.642860412597656 15.99999904632568 L 9.642860412597656 15.49999904632568 L 9.142860412597656 15.49999904632568 L 4.571430206298828 15.49999904632568 L 4.071430206298828 15.49999904632568 Z M 4.071430206298828 7.499999046325684 L 4.071430206298828 7.999999046325684 L 4.071430206298828 11.99999904632568 L 4.071430206298828 12.49999904632568 L 4.571430206298828 12.49999904632568 L 9.142860412597656 12.49999904632568 L 9.642860412597656 12.49999904632568 L 9.642860412597656 11.99999904632568 L 9.642860412597656 7.999999046325684 L 9.642860412597656 7.499999046325684 L 9.142860412597656 7.499999046325684 L 4.571430206298828 7.499999046325684 L 4.071430206298828 7.499999046325684 Z M 30.66927528381348 11.49999904632568 L 18.78570938110352 11.49999904632568 L 18.78570938110352 1.101882576942444 L 30.66927528381348 11.49999904632568 Z"
           class="c" />
        <path
           id="path19"
           d="M 1 0.9999980926513672 L 1 31 L 31 31 L 31 17 L 13.71429061889648 17 L 12.71429061889648 15.99999904632568 L 12.71429061889648 0.9999980926513672 L 1 0.9999980926513672 M 9.142860412597656 12.99999809265137 L 4.571430206298828 12.99999809265137 L 3.571430206298828 11.99999809265137 L 3.571430206298828 7.999998092651367 L 4.571430206298828 6.999998092651367 L 9.142860412597656 6.999998092651367 L 10.14286041259766 7.999998092651367 L 10.14286041259766 11.99999809265137 L 9.142860412597656 12.99999809265137 M 9.142860412597656 21 L 4.571430206298828 21 L 3.571430206298828 20 L 3.571430206298828 15.99999904632568 L 4.571430206298828 14.99999809265137 L 9.142860412597656 14.99999809265137 L 10.14286041259766 15.99999904632568 L 10.14286041259766 20 L 9.142860412597656 21 M 22.85713958740234 29 L 4.571430206298828 29 L 3.571430206298828 28 L 3.571430206298828 24 L 4.571430206298828 23 L 22.85713958740234 23 L 23.85713958740234 24 L 23.85713958740234 28 L 22.85713958740234 29 M 19.28570938110352 2.203765869140625 L 19.28570938110352 10.99999809265137 L 29.33855056762695 10.99999809265137 L 19.28570938110352 2.203765869140625 M 0 -1.9073486328125e-06 L 13.71429061889648 -1.9073486328125e-06 L 13.71429061889648 15.99999904632568 L 32 15.99999904632568 L 32 32 L 0 32 L 0 -1.9073486328125e-06 Z M 9.142860412597656 11.99999809265137 L 9.142860412597656 7.999998092651367 L 4.571430206298828 7.999998092651367 L 4.571430206298828 11.99999809265137 L 9.142860412597656 11.99999809265137 Z M 9.142860412597656 20 L 9.142860412597656 15.99999904632568 L 4.571430206298828 15.99999904632568 L 4.571430206298828 20 L 9.142860412597656 20 Z M 22.85713958740234 28 L 22.85713958740234 24 L 4.571430206298828 24 L 4.571430206298828 28 L 22.85713958740234 28 Z M 18.28570938110352 -1.9073486328125e-06 L 32 11.99999809265137 L 18.28570938110352 11.99999809265137 L 18.28570938110352 -1.9073486328125e-06 Z"
           class="d" />
      </g>
    </g>
    <path
       id="path25"
       transform="translate(-1522 -539)"
       d="M14.553,7.875H8.01L12.367,12.2a.445.445,0,0,0,.612.019A6.531,6.531,0,0,0,15,8.363a.44.44,0,0,0-.443-.488ZM14.116,6.1A6.606,6.606,0,0,0,7.963,0,.442.442,0,0,0,7.5.444V6.563h6.17a.441.441,0,0,0,.446-.459ZM6.176,7.875V1.387A.441.441,0,0,0,5.684.948,6.574,6.574,0,0,0,0,7.667,6.675,6.675,0,0,0,6.7,14a6.6,6.6,0,0,0,3.73-1.2.432.432,0,0,0,.043-.658Z"
       class="b" />
  </g>
</svg>
