<?xml version="1.0" encoding="UTF-8" standalone="no"?>
<svg
   xmlns:dc="http://purl.org/dc/elements/1.1/"
   xmlns:cc="http://creativecommons.org/ns#"
   xmlns:rdf="http://www.w3.org/1999/02/22-rdf-syntax-ns#"
   xmlns:svg="http://www.w3.org/2000/svg"
   xmlns="http://www.w3.org/2000/svg"
   xmlns:sodipodi="http://sodipodi.sourceforge.net/DTD/sodipodi-0.dtd"
   xmlns:inkscape="http://www.inkscape.org/namespaces/inkscape"
   width="24"
   height="24"
   viewBox="0 0 23.999999 24.000002"
   version="1.1"
   id="svg10"
   sodipodi:docname="report.svg"
   inkscape:version="0.92.5 (2060ec1f9f, 2020-04-08)">
  <metadata
     id="metadata16">
    <rdf:RDF>
      <cc:Work
         rdf:about="">
        <dc:format>image/svg+xml</dc:format>
        <dc:type
           rdf:resource="http://purl.org/dc/dcmitype/StillImage" />
        <dc:title></dc:title>
      </cc:Work>
    </rdf:RDF>
  </metadata>
  <defs
     id="defs14" />
  <sodipodi:namedview
     pagecolor="#ffffff"
     bordercolor="#666666"
     borderopacity="1"
     objecttolerance="10"
     gridtolerance="10"
     guidetolerance="10"
     inkscape:pageopacity="0"
     inkscape:pageshadow="2"
     inkscape:window-width="1514"
     inkscape:window-height="1020"
     id="namedview12"
     showgrid="false"
     inkscape:zoom="19.668716"
     inkscape:cx="17.327687"
     inkscape:cy="17.10105"
     inkscape:window-x="263"
     inkscape:window-y="-23"
     inkscape:window-maximized="0"
     inkscape:current-layer="svg10" />
  <g
     id="Gruppe_1"
     data-name="Gruppe 1"
     transform="matrix(0.29744393,0,0,0.24694851,-47.38655,-53.685459)">
    <path
       id="Pfad_1"
       data-name="Pfad 1"
       d="M 69.625,10.2 H 52.219 C 50.47,4.864 45.89,1 40.477,1 35.064,1 30.483,4.864 28.734,10.2 H 11.328 C 6.748,10.2 3,14.338 3,19.4 v 64.391 c 0,5.059 3.748,9.2 8.328,9.2 h 58.3 c 4.58,0 8.328,-4.14 8.328,-9.2 V 19.4 c -0.003,-5.062 -3.751,-9.2 -8.331,-9.2 z m -29.148,0 a 4.411,4.411 0 0 1 4.164,4.6 4.411,4.411 0 0 1 -4.164,4.6 4.411,4.411 0 0 1 -4.164,-4.6 4.411,4.411 0 0 1 4.164,-4.6 z M 48.8,74.592 H 19.656 v -9.2 H 48.8 Z M 61.3,56.194 H 19.656 v -9.2 H 61.3 Z m 0,-18.4 H 19.656 V 28.6 H 61.3 Z"
       transform="translate(160,219)"
       inkscape:connector-curvature="0" />
    <path
       id="Pfad_2"
       data-name="Pfad 2"
       d="M 69.625,10.2 H 52.219 C 50.47,4.864 45.89,1 40.477,1 35.064,1 30.483,4.864 28.734,10.2 H 11.328 C 6.748,10.2 3,14.338 3,19.4 v 64.391 c 0,5.059 3.748,9.2 8.328,9.2 h 58.3 c 4.58,0 8.328,-4.14 8.328,-9.2 V 19.4 c -0.003,-5.062 -3.751,-9.2 -8.331,-9.2 z m -29.148,0 a 4.411,4.411 0 0 1 4.164,4.6 4.411,4.411 0 0 1 -4.164,4.6 4.411,4.411 0 0 1 -4.164,-4.6 4.411,4.411 0 0 1 4.164,-4.6 z M 48.8,74.592 H 19.656 v -9.2 H 48.8 Z M 61.3,56.194 H 19.656 v -9.2 H 61.3 Z m 0,-18.4 H 19.656 V 28.6 H 61.3 Z"
       transform="translate(159,219)"
       inkscape:connector-curvature="0"
       style="fill:#ffffff;stroke:#707070;stroke-width:4" />
    <path
       id="Pfad_3"
       data-name="Pfad 3"
       d="m 19.1,2 v 38 a 19.106,19.106 0 0 1 0,-38 z m 3.857,0 V 19.081 H 40 A 19.084,19.084 0 0 0 22.957,2 Z m 0,20.919 V 40 A 19.066,19.066 0 0 0 40,22.919 Z"
       transform="translate(198.477,273.839)"
       inkscape:connector-curvature="0"
       style="fill:#8e7b2e" />
    <path
       id="Icon_open-magnifying-glass"
       data-name="Icon open-magnifying-glass"
       d="M 14.28,0 A 14.568,14.568 0 0 0 0,14.807 a 14.568,14.568 0 0 0 14.28,14.81 13.713,13.713 0 0 0 6.773,-1.735 4.159,4.159 0 0 0 0.53,0.55 l 4.08,4.231 a 4.071,4.071 0 0 0 4.109,1.323 4.242,4.242 0 0 0 3.042,-3.155 4.416,4.416 0 0 0 -1.276,-4.261 l -4.08,-4.231 a 4.113,4.113 0 0 0 -0.653,-0.55 15.032,15.032 0 0 0 1.8,-7.024 14.568,14.568 0 0 0 -14.284,-14.81 z m 0,4.231 a 10.345,10.345 0 0 1 10.2,10.579 10.833,10.833 0 0 1 -2.693,7.278 l -0.122,0.127 a 4.159,4.159 0 0 0 -0.53,0.55 10,10 0 0 1 -6.9,2.666 A 10.345,10.345 0 0 1 4.039,14.85 10.345,10.345 0 0 1 14.24,4.271 Z"
       transform="translate(202.627,231.882)"
       inkscape:connector-curvature="0"
       style="fill:#ffffff;stroke:#8e4b2e;stroke-width:3" />
    <path
       id="Icon_awesome-circle"
       data-name="Icon awesome-circle"
       d="m 9.466,0.562 a 8.809,8.809 0 1 0 0,17.617 8.809,8.809 0 1 0 0,-17.617 z"
       transform="translate(207.408,237.667)"
       inkscape:connector-curvature="0"
       style="fill:#ffffff" />
    <path
       id="Pfad_4"
       data-name="Pfad 4"
       d="m 22.957,19.081 z m 0,3.838 V 40 A 19.066,19.066 0 0 0 40,22.919 Z"
       transform="translate(198.477,273.839)"
       inkscape:connector-curvature="0"
       style="fill:#2e8e7b" />
    <path
       id="Pfad_5"
       data-name="Pfad 5"
       d="M 22.957,2 V 19.081 H 40 A 19.084,19.084 0 0 0 22.957,2 Z"
       transform="translate(198.477,273.839)"
       inkscape:connector-curvature="0"
       style="fill:#8e2e71" />
  </g>
</svg>
